<?xml version="1.0" encoding="UTF-8" standalone="no"?>
<!-- Created with Inkscape (http://www.inkscape.org/) -->

<svg
   xmlns:dc="http://purl.org/dc/elements/1.1/"
   xmlns:cc="http://creativecommons.org/ns#"
   xmlns:rdf="http://www.w3.org/1999/02/22-rdf-syntax-ns#"
   xmlns:svg="http://www.w3.org/2000/svg"
   xmlns="http://www.w3.org/2000/svg"
   xmlns:sodipodi="http://sodipodi.sourceforge.net/DTD/sodipodi-0.dtd"
   xmlns:inkscape="http://www.inkscape.org/namespaces/inkscape"
   width="75.006348mm"
   height="64.649582mm"
   viewBox="0 0 75.00635 64.649582"
   version="1.1"
   id="svg13880"
   inkscape:version="0.92.3 (2405546, 2018-03-11)"
   sodipodi:docname="roficom_volume.svg">
  <defs
     id="defs13874">
    <clipPath
       clipPathUnits="userSpaceOnUse"
       id="clipPath2285">
      <path
         d="M 6995,7569 H 9313 V 9887 H 6995 V 7569"
         id="path2283"
         inkscape:connector-curvature="0" />
    </clipPath>
    <clipPath
       clipPathUnits="userSpaceOnUse"
       id="clipPath2469">
      <path
         d="m 10073,5505 h 2319 V 8616 H 10073 V 5505"
         id="path2467"
         inkscape:connector-curvature="0" />
    </clipPath>
    <clipPath
       clipPathUnits="userSpaceOnUse"
       id="clipPath2285-7">
      <path
         d="M 6995,7569 H 9313 V 9887 H 6995 V 7569"
         id="path2283-0"
         inkscape:connector-curvature="0" />
    </clipPath>
  </defs>
  <sodipodi:namedview
     id="base"
     pagecolor="#ffffff"
     bordercolor="#666666"
     borderopacity="1.0"
     inkscape:pageopacity="0.0"
     inkscape:pageshadow="2"
     inkscape:zoom="2.8"
     inkscape:cx="0.80617143"
     inkscape:cy="105.15166"
     inkscape:document-units="mm"
     inkscape:current-layer="layer1"
     showgrid="false"
     fit-margin-top="3"
     fit-margin-left="3"
     fit-margin-right="3"
     fit-margin-bottom="3"
     inkscape:window-width="1916"
     inkscape:window-height="1040"
     inkscape:window-x="0"
     inkscape:window-y="18"
     inkscape:window-maximized="0" />
  <metadata
     id="metadata13877">
    <rdf:RDF>
      <cc:Work
         rdf:about="">
        <dc:format>image/svg+xml</dc:format>
        <dc:type
           rdf:resource="http://purl.org/dc/dcmitype/StillImage" />
        <dc:title></dc:title>
      </cc:Work>
    </rdf:RDF>
  </metadata>
  <g
     inkscape:label="Layer 1"
     inkscape:groupmode="layer"
     id="layer1"
     transform="translate(-69.854951,-57.440301)">
    <g
       transform="translate(-37.715896,-76.830634)"
       id="g18063">
      <g
         style="fill:#b3b3b3"
         id="g2279"
         transform="matrix(0.02116667,0,0,-0.02116667,-27.423872,357.54419)">
        <g
           style="fill:#b3b3b3"
           clip-path="url(#clipPath2285-7)"
           id="g2281">
          <path
             inkscape:connector-curvature="0"
             id="path2287"
             style="fill:#b3b3b3;stroke:#000000;stroke-width:24;stroke-linecap:round;stroke-linejoin:round;stroke-miterlimit:10;stroke-dasharray:none;stroke-opacity:1"
             d="m 9161,9735 h -2 -6 -10 -14 -17 -22 -25 -29 -32 -35 -39 -42 -45 -47 -50 -52 -55 -56 -58 -60 -61 -61 -63 -63 -63 -63 -63 -63 -61 -61 -60 -58 -56 -55 -52 -50 -47 -45 -42 -39 -35 -32 -29 -25 -22 -17 -14 -10 -6 -2" />
          <path
             inkscape:connector-curvature="0"
             id="path2289"
             style="fill:#b3b3b3;stroke:#000000;stroke-width:24;stroke-linecap:round;stroke-linejoin:round;stroke-miterlimit:10;stroke-dasharray:none;stroke-opacity:1"
             d="M 9161,9735 V 7721 h -2 -6 -10 -14 -17 -22 -25 -29 -32 -35 -39 -42 -45 -47 -50 -52 -55 -56 -58 -60 -61 -61 -63 -63 -63 -63 -63 -63 -61 -61 -60 -58 -56 -55 -52 -50 -47 -45 -42 -39 -35 -32 -29 -25 -22 -17 -14 -10 -6 -2 v 2014" />
        </g>
      </g>
      <path
         inkscape:connector-curvature="0"
         id="rect17481-5"
         d="m 120.23424,146.80322 v 3.6251 45.2422 h 3.62562 v -45.2422 h 42.61859 v 45.2422 h 3.62562 v -48.8673 h -46.24421 z"
         style="opacity:0.98999999;fill:none;fill-opacity:1;fill-rule:evenodd;stroke:#000000;stroke-width:0.5;stroke-linecap:round;stroke-linejoin:round;stroke-miterlimit:4;stroke-dasharray:none;stroke-dashoffset:0;stroke-opacity:1" />
      <rect
         transform="rotate(-90)"
         y="110.82085"
         x="-191.44173"
         height="9.2207985"
         width="37.284103"
         id="rect17505-3-6"
         style="opacity:0.98999999;fill:none;fill-opacity:1;fill-rule:evenodd;stroke:#000000;stroke-width:0.5;stroke-linecap:round;stroke-linejoin:round;stroke-miterlimit:4;stroke-dasharray:none;stroke-dashoffset:0;stroke-opacity:1" />
      <rect
         y="137.52094"
         x="126.52711"
         height="9.2207985"
         width="37.2841"
         id="rect17505-2"
         style="opacity:0.98999999;fill:none;fill-opacity:1;fill-rule:evenodd;stroke:#000000;stroke-width:0.5;stroke-linecap:round;stroke-linejoin:round;stroke-miterlimit:4;stroke-dasharray:none;stroke-dashoffset:0;stroke-opacity:1" />
      <rect
         transform="rotate(-90)"
         y="170.1064"
         x="-191.44173"
         height="9.2207985"
         width="37.284103"
         id="rect17505-5-9"
         style="opacity:0.98999999;fill:none;fill-opacity:1;fill-rule:evenodd;stroke:#000000;stroke-width:0.5;stroke-linecap:round;stroke-linejoin:round;stroke-miterlimit:4;stroke-dasharray:none;stroke-dashoffset:0;stroke-opacity:1" />
    </g>
  </g>
</svg>
