<?xml version="1.0" encoding="UTF-8" standalone="no"?>
<!-- Created with Inkscape (http://www.inkscape.org/) -->

<svg
   width="99.287338mm"
   height="76.433479mm"
   viewBox="0 0 99.28734 76.433479"
   version="1.1"
   id="svg1358"
   sodipodi:docname="rofi_sch.svg"
   inkscape:version="1.1.1 (1:1.1+202109281949+c3084ef5ed)"
   xmlns:inkscape="http://www.inkscape.org/namespaces/inkscape"
   xmlns:sodipodi="http://sodipodi.sourceforge.net/DTD/sodipodi-0.dtd"
   xmlns="http://www.w3.org/2000/svg"
   xmlns:svg="http://www.w3.org/2000/svg">
  <sodipodi:namedview
     id="namedview1360"
     pagecolor="#ffffff"
     bordercolor="#666666"
     borderopacity="1.0"
     inkscape:pageshadow="2"
     inkscape:pageopacity="0.0"
     inkscape:pagecheckerboard="0"
     inkscape:document-units="mm"
     showgrid="false"
     inkscape:zoom="2.535396"
     inkscape:cx="99.392756"
     inkscape:cy="129.36835"
     inkscape:window-width="1920"
     inkscape:window-height="1042"
     inkscape:window-x="0"
     inkscape:window-y="18"
     inkscape:window-maximized="1"
     inkscape:current-layer="g1445"
     fit-margin-top="0"
     fit-margin-left="0"
     fit-margin-right="0"
     fit-margin-bottom="0" />
  <defs
     id="defs1355">
    <clipPath
       clipPathUnits="userSpaceOnUse"
       id="clipPath1449">
      <path
         d="M 0,0 H 2483.3333 V 3509.0581 H 0 Z"
         clip-rule="evenodd"
         id="path1447" />
    </clipPath>
  </defs>
  <g
     inkscape:label="Layer 1"
     inkscape:groupmode="layer"
     id="layer1"
     transform="translate(-7.5170868,-54.532025)">
    <g
       id="g1445"
       clip-path="url(#clipPath1449)"
       transform="matrix(0.08466666,0,0,0.08466666,-2.6401858,21.520889)">
      <g
         id="g1451"
         transform="matrix(2.9991949,0,0,2.9991949,1.4995974,1.4995974)">
        <path
           d="M 80,320 H 400 V 420 H 80 Z"
           style="fill:none;stroke:#000000;stroke-width:1;stroke-linecap:butt;stroke-linejoin:miter;stroke-miterlimit:10;stroke-dasharray:none;stroke-opacity:1"
           id="path1453" />
        <path
           d="m 200,130 h 80 v 30 h -80 z"
           style="fill:none;stroke:#000000;stroke-width:1;stroke-linecap:butt;stroke-linejoin:miter;stroke-miterlimit:10;stroke-dasharray:none;stroke-opacity:1"
           id="path1455" />
      </g>
      <g
         id="g1457"
         transform="scale(2.9991949)">
        <path
           d="M 191.75999,180 H 70 v 11.75999"
           style="fill:none;stroke:#6c8ebf;stroke-width:1;stroke-linecap:butt;stroke-linejoin:miter;stroke-miterlimit:10;stroke-dasharray:none;stroke-opacity:1"
           id="path1459" />
        <path
           d="m 197.75999,180 -8,4 2,-4 -2,-4 z"
           style="fill:#6c8ebf;fill-opacity:1;fill-rule:nonzero;stroke:none"
           id="path1461" />
        <path
           d="m 197.75999,180 -8,4 2,-4 -2,-4 z"
           style="fill:none;stroke:#6c8ebf;stroke-width:1;stroke-linecap:butt;stroke-linejoin:miter;stroke-miterlimit:10;stroke-dasharray:none;stroke-opacity:1"
           id="path1463" />
        <path
           d="m 70,197.75999 -4,-8 4,2 4,-2 z"
           style="fill:#6c8ebf;fill-opacity:1;fill-rule:nonzero;stroke:none"
           id="path1465" />
        <path
           d="m 70,197.75999 -4,-8 4,2 4,-2 z"
           style="fill:none;stroke:#6c8ebf;stroke-width:1;stroke-linecap:butt;stroke-linejoin:miter;stroke-miterlimit:10;stroke-dasharray:none;stroke-opacity:1"
           id="path1467" />
        <path
           d="M 288.23999,180 H 410 v 11.75999"
           style="fill:none;stroke:#82b366;stroke-width:1;stroke-linecap:butt;stroke-linejoin:miter;stroke-miterlimit:10;stroke-dasharray:none;stroke-opacity:1"
           id="path1469" />
        <path
           d="m 282.23999,180 8,-4 -2,4 2,4 z"
           style="fill:#82b366;fill-opacity:1;fill-rule:nonzero;stroke:none"
           id="path1471" />
        <path
           d="m 282.23999,180 8,-4 -2,4 2,4 z"
           style="fill:none;stroke:#82b366;stroke-width:1;stroke-linecap:butt;stroke-linejoin:miter;stroke-miterlimit:10;stroke-dasharray:none;stroke-opacity:1"
           id="path1473" />
        <path
           d="m 410,197.75999 -4,-8 4,2 4,-2 z"
           style="fill:#82b366;fill-opacity:1;fill-rule:nonzero;stroke:none"
           id="path1475" />
        <path
           d="m 410,197.75999 -4,-8 4,2 4,-2 z"
           style="fill:none;stroke:#82b366;stroke-width:1;stroke-linecap:butt;stroke-linejoin:miter;stroke-miterlimit:10;stroke-dasharray:none;stroke-opacity:1"
           id="path1477" />
      </g>
      <g
         id="g1479"
         transform="matrix(2.9991949,0,0,2.9991949,1.4995974,1.4995974)">
        <path
           d="m 200,160 h 80 v 80 h -80 z"
           style="fill:#ffffff;fill-opacity:1;fill-rule:nonzero;stroke:none"
           id="path1481" />
        <path
           d="m 200,160 h 80 v 80 h -80 z"
           style="fill:none;stroke:#000000;stroke-width:1;stroke-linecap:butt;stroke-linejoin:miter;stroke-miterlimit:10;stroke-dasharray:none;stroke-opacity:1"
           id="path1483" />
      </g>
      <g
         id="g1485"
         transform="scale(2.9991949)">
        <text
           transform="translate(227.32813,198)"
           style="font-variant:normal;font-weight:normal;font-size:12px;font-family:Arial;-inkscape-font-specification:ArialMT;writing-mode:lr-tb;fill:#000000;fill-opacity:1;fill-rule:nonzero;stroke:none"
           id="text1489"><tspan
             x="0 8.6660156 16.669922"
             y="0"
             sodipodi:role="line"
             id="tspan1487">CPU</tspan></text>
        <text
           transform="translate(217.3125,212)"
           style="font-variant:normal;font-weight:normal;font-size:12px;font-family:Arial;-inkscape-font-specification:ArialMT;writing-mode:lr-tb;fill:#000000;fill-opacity:1;fill-rule:nonzero;stroke:none"
           id="text1493"><tspan
             x="0 3.9960938 12 20.003906 28.007812 34.681641 41.355469"
             y="0"
             sodipodi:role="line"
             id="tspan1491">(ESP32)</tspan></text>
        <path
           d="M 310,191.75999 V 180"
           style="fill:none;stroke:#82b366;stroke-width:1;stroke-linecap:butt;stroke-linejoin:miter;stroke-miterlimit:10;stroke-dasharray:none;stroke-opacity:1"
           id="path1495" />
        <path
           d="m 310,197.75999 -4,-8 4,2 4,-2 z"
           style="fill:#82b366;fill-opacity:1;fill-rule:nonzero;stroke:none"
           id="path1497" />
        <path
           d="m 310,197.75999 -4,-8 4,2 4,-2 z"
           style="fill:none;stroke:#82b366;stroke-width:1;stroke-linecap:butt;stroke-linejoin:miter;stroke-miterlimit:10;stroke-dasharray:none;stroke-opacity:1"
           id="path1499" />
        <path
           d="M 310,248.24001 V 260 h 110 v 20"
           style="fill:none;stroke:#b85450;stroke-width:1;stroke-linecap:butt;stroke-linejoin:miter;stroke-miterlimit:10;stroke-dasharray:none;stroke-opacity:1"
           id="path1501" />
        <path
           d="m 310,242.24001 4,8 -4,-2 -4,2 z"
           style="fill:#b85450;fill-opacity:1;fill-rule:nonzero;stroke:none"
           id="path1503" />
        <path
           d="m 310,242.24001 4,8 -4,-2 -4,2 z"
           style="fill:none;stroke:#b85450;stroke-width:1;stroke-linecap:butt;stroke-linejoin:miter;stroke-miterlimit:10;stroke-dasharray:none;stroke-opacity:1"
           id="path1505" />
      </g>
      <g
         id="g1507"
         transform="matrix(2.9991949,0,0,2.9991949,1.4995974,1.4995974)">
        <path
           d="m 290,200 h 40 v 40 h -40 z"
           style="fill:#ffffff;fill-opacity:1;fill-rule:nonzero;stroke:none"
           id="path1509" />
        <path
           d="m 290,200 h 40 v 40 h -40 z"
           style="fill:none;stroke:#000000;stroke-width:1;stroke-linecap:butt;stroke-linejoin:miter;stroke-miterlimit:10;stroke-dasharray:none;stroke-opacity:1"
           id="path1511" />
      </g>
      <g
         id="g1513"
         transform="scale(2.9991949)">
        <text
           transform="translate(292.3125,225)"
           style="font-variant:normal;font-weight:normal;font-size:12px;font-family:Arial;-inkscape-font-specification:ArialMT;writing-mode:lr-tb;fill:#000000;fill-opacity:1;fill-rule:nonzero;stroke:none"
           id="text1517"><tspan
             x="0 6 12.673828 15.339844 22.013672 25.347656 28.681641"
             y="0"
             sodipodi:role="line"
             id="tspan1515">Joint 1</tspan></text>
        <path
           d="M 360,191.75999 V 180"
           style="fill:none;stroke:#82b366;stroke-width:1;stroke-linecap:butt;stroke-linejoin:miter;stroke-miterlimit:10;stroke-dasharray:none;stroke-opacity:1"
           id="path1519" />
        <path
           d="m 360,197.75999 -4,-8 4,2 4,-2 z"
           style="fill:#82b366;fill-opacity:1;fill-rule:nonzero;stroke:none"
           id="path1521" />
        <path
           d="m 360,197.75999 -4,-8 4,2 4,-2 z"
           style="fill:none;stroke:#82b366;stroke-width:1;stroke-linecap:butt;stroke-linejoin:miter;stroke-miterlimit:10;stroke-dasharray:none;stroke-opacity:1"
           id="path1523" />
        <path
           d="M 360.07999,248.24001 360.20001,260"
           style="fill:none;stroke:#b85450;stroke-width:1;stroke-linecap:butt;stroke-linejoin:miter;stroke-miterlimit:10;stroke-dasharray:none;stroke-opacity:1"
           id="path1525" />
        <path
           d="m 360.01999,242.24001 4.08002,7.95999 -4.02002,-1.95999 -3.97998,2.03999 z"
           style="fill:#b85450;fill-opacity:1;fill-rule:nonzero;stroke:none"
           id="path1527" />
        <path
           d="m 360.01999,242.24001 4.08002,7.95999 -4.02002,-1.95999 -3.97998,2.03999 z"
           style="fill:none;stroke:#b85450;stroke-width:1;stroke-linecap:butt;stroke-linejoin:miter;stroke-miterlimit:10;stroke-dasharray:none;stroke-opacity:1"
           id="path1529" />
      </g>
      <g
         id="g1531"
         transform="matrix(2.9991949,0,0,2.9991949,1.4995974,1.4995974)">
        <path
           d="m 340,200 h 40 v 40 h -40 z"
           style="fill:#ffffff;fill-opacity:1;fill-rule:nonzero;stroke:none"
           id="path1533" />
        <path
           d="m 340,200 h 40 v 40 h -40 z"
           style="fill:none;stroke:#000000;stroke-width:1;stroke-linecap:butt;stroke-linejoin:miter;stroke-miterlimit:10;stroke-dasharray:none;stroke-opacity:1"
           id="path1535" />
      </g>
      <g
         id="g1537"
         transform="scale(2.9991949)">
        <text
           transform="translate(342.3125,225)"
           style="font-variant:normal;font-weight:normal;font-size:12px;font-family:Arial;-inkscape-font-specification:ArialMT;writing-mode:lr-tb;fill:#000000;fill-opacity:1;fill-rule:nonzero;stroke:none"
           id="text1541"><tspan
             x="0 6 12.673828 15.339844 22.013672 25.347656 28.681641"
             y="0"
             sodipodi:role="line"
             id="tspan1539">Joint 2</tspan></text>
        <path
           d="M 420,248.24001 V 372 H 250.60001"
           style="fill:none;stroke:#b85450;stroke-width:1;stroke-linecap:butt;stroke-linejoin:miter;stroke-miterlimit:10;stroke-dasharray:none;stroke-opacity:1"
           id="path1543" />
        <path
           d="m 420,242.24001 4,8 -4,-2 -4,2 z"
           style="fill:#b85450;fill-opacity:1;fill-rule:nonzero;stroke:none"
           id="path1545" />
        <path
           d="m 420,242.24001 4,8 -4,-2 -4,2 z"
           style="fill:none;stroke:#b85450;stroke-width:1;stroke-linecap:butt;stroke-linejoin:miter;stroke-miterlimit:10;stroke-dasharray:none;stroke-opacity:1"
           id="path1547" />
      </g>
      <g
         id="g1549"
         transform="matrix(2.9991949,0,0,2.9991949,1.4995974,1.4995974)">
        <path
           d="m 390,200 h 40 v 40 h -40 z"
           style="fill:#ffffff;fill-opacity:1;fill-rule:nonzero;stroke:none"
           id="path1551" />
        <path
           d="m 390,200 h 40 v 40 h -40 z"
           style="fill:none;stroke:#000000;stroke-width:1;stroke-linecap:butt;stroke-linejoin:miter;stroke-miterlimit:10;stroke-dasharray:none;stroke-opacity:1"
           id="path1553" />
      </g>
      <g
         id="g1555"
         transform="scale(2.9991949)">
        <text
           transform="translate(392.3125,225)"
           style="font-variant:normal;font-weight:normal;font-size:12px;font-family:Arial;-inkscape-font-specification:ArialMT;writing-mode:lr-tb;fill:#000000;fill-opacity:1;fill-rule:nonzero;stroke:none"
           id="text1559"><tspan
             x="0 6 12.673828 15.339844 22.013672 25.347656 28.681641"
             y="0"
             sodipodi:role="line"
             id="tspan1557">Joint 3</tspan></text>
        <path
           d="M 160,191.75999 V 180 200 180"
           style="fill:none;stroke:#6c8ebf;stroke-width:1;stroke-linecap:butt;stroke-linejoin:miter;stroke-miterlimit:10;stroke-dasharray:none;stroke-opacity:1"
           id="path1561" />
        <path
           d="m 160,197.75999 -4,-8 4,2 4,-2 z"
           style="fill:#6c8ebf;fill-opacity:1;fill-rule:nonzero;stroke:none"
           id="path1563" />
        <path
           d="m 160,197.75999 -4,-8 4,2 4,-2 z"
           style="fill:none;stroke:#6c8ebf;stroke-width:1;stroke-linecap:butt;stroke-linejoin:miter;stroke-miterlimit:10;stroke-dasharray:none;stroke-opacity:1"
           id="path1565" />
        <path
           d="m 138.82001,249 v 11 H 93.82 v -11.96001"
           style="fill:none;stroke:#d6b656;stroke-width:1;stroke-linecap:butt;stroke-linejoin:miter;stroke-miterlimit:10;stroke-dasharray:none;stroke-opacity:1"
           id="path1567" />
        <path
           d="m 138.82001,243 4,8 -4,-2 -4,2 z"
           style="fill:#d6b656;fill-opacity:1;fill-rule:nonzero;stroke:none"
           id="path1569" />
        <path
           d="m 138.82001,243 4,8 -4,-2 -4,2 z"
           style="fill:none;stroke:#d6b656;stroke-width:1;stroke-linecap:butt;stroke-linejoin:miter;stroke-miterlimit:10;stroke-dasharray:none;stroke-opacity:1"
           id="path1571" />
        <path
           d="m 93.82,242.03999 4,8 -4,-2 -4,2 z"
           style="fill:#d6b656;fill-opacity:1;fill-rule:nonzero;stroke:none"
           id="path1573" />
        <path
           d="m 93.82,242.03999 4,8 -4,-2 -4,2 z"
           style="fill:none;stroke:#d6b656;stroke-width:1;stroke-linecap:butt;stroke-linejoin:miter;stroke-miterlimit:10;stroke-dasharray:none;stroke-opacity:1"
           id="path1575" />
        <path
           d="M 160,248.24001 V 290 H 60.220001 v -39.88"
           style="fill:none;stroke:#b85450;stroke-width:1;stroke-linecap:butt;stroke-linejoin:miter;stroke-miterlimit:10;stroke-dasharray:none;stroke-opacity:1"
           id="path1577" />
        <path
           d="m 160,242.24001 4,8 -4,-2 -4,2 z"
           style="fill:#b85450;fill-opacity:1;fill-rule:nonzero;stroke:none"
           id="path1579" />
        <path
           d="m 160,242.24001 4,8 -4,-2 -4,2 z"
           style="fill:none;stroke:#b85450;stroke-width:1;stroke-linecap:butt;stroke-linejoin:miter;stroke-miterlimit:10;stroke-dasharray:none;stroke-opacity:1"
           id="path1581" />
        <path
           d="m 60.220001,244.12 4,8 -4,-2 -4,2 z"
           style="fill:#b85450;fill-opacity:1;fill-rule:nonzero;stroke:none"
           id="path1583" />
        <path
           d="m 60.220001,244.12 4,8 -4,-2 -4,2 z"
           style="fill:none;stroke:#b85450;stroke-width:1;stroke-linecap:butt;stroke-linejoin:miter;stroke-miterlimit:10;stroke-dasharray:none;stroke-opacity:1"
           id="path1585" />
      </g>
      <g
         id="g1587"
         transform="matrix(2.9991949,0,0,2.9991949,1.4995974,1.4995974)">
        <path
           d="m 130,200 h 60 v 40 h -60 z"
           style="fill:#ffffff;fill-opacity:1;fill-rule:nonzero;stroke:none"
           id="path1589" />
        <path
           d="m 130,200 h 60 v 40 h -60 z"
           style="fill:none;stroke:#000000;stroke-width:1;stroke-linecap:butt;stroke-linejoin:miter;stroke-miterlimit:10;stroke-dasharray:none;stroke-opacity:1"
           id="path1591" />
      </g>
      <g
         id="g1593"
         transform="scale(2.9991949)">
        <text
           transform="translate(134.32813,218)"
           style="font-variant:normal;font-weight:normal;font-size:12px;font-family:Arial;-inkscape-font-specification:ArialMT;writing-mode:lr-tb;fill:#000000;fill-opacity:1;fill-rule:nonzero;stroke:none"
           id="text1597"><tspan
             x="0 8.6660156 15.339844 22.669922 26.003906 34.669922 41.34375"
             y="0"
             sodipodi:role="line"
             id="tspan1595">RoFICoM</tspan></text>
        <text
           transform="translate(156.65625,232)"
           style="font-variant:normal;font-weight:normal;font-size:12px;font-family:Arial;-inkscape-font-specification:ArialMT;writing-mode:lr-tb;fill:#000000;fill-opacity:1;fill-rule:nonzero;stroke:none"
           id="text1601"><tspan
             x="0"
             y="0"
             id="tspan1599">1</tspan></text>
      </g>
      <g
         id="g1603"
         transform="matrix(2.9991949,0,0,2.9991949,1.4995974,1.4995974)">
        <path
           d="m 40,200 h 60 v 40 H 40 Z"
           style="fill:#ffffff;fill-opacity:1;fill-rule:nonzero;stroke:none"
           id="path1605" />
        <path
           d="m 40,200 h 60 v 40 H 40 Z"
           style="fill:none;stroke:#000000;stroke-width:1;stroke-linecap:butt;stroke-linejoin:miter;stroke-miterlimit:10;stroke-dasharray:none;stroke-opacity:1"
           id="path1607" />
      </g>
      <g
         id="g1609"
         transform="scale(2.9991949)">
        <text
           transform="translate(44.328125,218)"
           style="font-variant:normal;font-weight:normal;font-size:12px;font-family:Arial;-inkscape-font-specification:ArialMT;writing-mode:lr-tb;fill:#000000;fill-opacity:1;fill-rule:nonzero;stroke:none"
           id="text1613"><tspan
             x="0 8.6660156 15.339844 22.669922 26.003906 34.669922 41.34375"
             y="0"
             sodipodi:role="line"
             id="tspan1611">RoFICoM</tspan></text>
        <text
           transform="translate(66.65625,232)"
           style="font-variant:normal;font-weight:normal;font-size:12px;font-family:Arial;-inkscape-font-specification:ArialMT;writing-mode:lr-tb;fill:#000000;fill-opacity:1;fill-rule:nonzero;stroke:none"
           id="text1617"><tspan
             x="0"
             y="0"
             id="tspan1615">6</tspan></text>
        <path
           d="m 108,213 h 14 v 16 h -14 z"
           style="fill:#ffffff;fill-opacity:1;fill-rule:nonzero;stroke:none"
           id="path1619" />
        <text
           transform="translate(108,226)"
           style="font-variant:normal;font-weight:normal;font-size:14px;font-family:Arial;-inkscape-font-specification:ArialMT;writing-mode:lr-tb;fill:#202124;fill-opacity:1;fill-rule:nonzero;stroke:none"
           id="text1623"><tspan
             x="0"
             y="0"
             id="tspan1621">…</tspan></text>
      </g>
      <g
         id="g1625"
         transform="matrix(2.9991949,0,0,2.9991949,1.4995974,1.4995974)">
        <path
           d="m 80,300 h 320 v 20 H 80 Z"
           style="fill:#ffffff;fill-opacity:1;fill-rule:nonzero;stroke:none"
           id="path1627" />
        <path
           d="m 80,300 h 320 v 20 H 80 Z"
           style="fill:none;stroke:#000000;stroke-width:1;stroke-linecap:butt;stroke-linejoin:miter;stroke-miterlimit:10;stroke-dasharray:none;stroke-opacity:1"
           id="path1629" />
      </g>
      <g
         id="g1631"
         transform="scale(2.9991949)">
        <text
           transform="translate(205.98438,315)"
           style="font-variant:normal;font-weight:normal;font-size:12px;font-family:Arial;-inkscape-font-specification:ArialMT;writing-mode:lr-tb;fill:#000000;fill-opacity:1;fill-rule:nonzero;stroke:none"
           id="text1635"><tspan
             x="0 8.6660156 15.339844 22.013672 26.009766 32.683594 38.683594 45.357422 51.357422 57.357422 64.03125"
             y="0"
             sodipodi:role="line"
             id="tspan1633">Coprocessor</tspan></text>
        <path
           d="m 220,290.76001 v -42.52"
           style="fill:none;stroke:#9673a6;stroke-width:1;stroke-linecap:butt;stroke-linejoin:miter;stroke-miterlimit:10;stroke-dasharray:none;stroke-opacity:1"
           id="path1637" />
        <path
           d="m 220,296.76001 -4,-8 4,2 4,-2 z"
           style="fill:#9673a6;fill-opacity:1;fill-rule:nonzero;stroke:none"
           id="path1639" />
        <path
           d="m 220,296.76001 -4,-8 4,2 4,-2 z"
           style="fill:none;stroke:#9673a6;stroke-width:1;stroke-linecap:butt;stroke-linejoin:miter;stroke-miterlimit:10;stroke-dasharray:none;stroke-opacity:1"
           id="path1641" />
        <path
           d="m 220,242.24001 4,8 -4,-2 -4,2 z"
           style="fill:#9673a6;fill-opacity:1;fill-rule:nonzero;stroke:none"
           id="path1643" />
        <path
           d="m 220,242.24001 4,8 -4,-2 -4,2 z"
           style="fill:none;stroke:#9673a6;stroke-width:1;stroke-linecap:butt;stroke-linejoin:miter;stroke-miterlimit:10;stroke-dasharray:none;stroke-opacity:1"
           id="path1645" />
        <path
           d="m 260.41,291.56 -0.33999,-42.52001"
           style="fill:none;stroke:#9673a6;stroke-width:1;stroke-linecap:butt;stroke-linejoin:miter;stroke-miterlimit:10;stroke-dasharray:none;stroke-opacity:1"
           id="path1647" />
        <path
           d="m 260.45999,297.56 -4.06,-7.95999 4.01001,1.95999 3.98999,-2.03 z"
           style="fill:#9673a6;fill-opacity:1;fill-rule:nonzero;stroke:none"
           id="path1649" />
        <path
           d="m 260.45999,297.56 -4.06,-7.95999 4.01001,1.95999 3.98999,-2.03 z"
           style="fill:none;stroke:#9673a6;stroke-width:1;stroke-linecap:butt;stroke-linejoin:miter;stroke-miterlimit:10;stroke-dasharray:none;stroke-opacity:1"
           id="path1651" />
        <path
           d="m 260.01999,243.03999 4.06,7.96001 -4.00998,-1.96001 -3.99002,2.03002 z"
           style="fill:#9673a6;fill-opacity:1;fill-rule:nonzero;stroke:none"
           id="path1653" />
        <path
           d="m 260.01999,243.03999 4.06,7.96001 -4.00998,-1.96001 -3.99002,2.03002 z"
           style="fill:none;stroke:#9673a6;stroke-width:1;stroke-linecap:butt;stroke-linejoin:miter;stroke-miterlimit:10;stroke-dasharray:none;stroke-opacity:1"
           id="path1655" />
        <text
           transform="translate(170.32813,273)"
           style="font-variant:normal;font-weight:normal;font-size:12px;font-family:Arial;-inkscape-font-specification:ArialMT;writing-mode:lr-tb;fill:#000000;fill-opacity:1;fill-rule:nonzero;stroke:none"
           id="text1659"><tspan
             x="0 8.6660156 15.339844 22.013672 25.347656 29.34375 36.017578"
             y="0"
             sodipodi:role="line"
             id="tspan1657">Control</tspan></text>
        <text
           transform="translate(168.5625,287)"
           style="font-variant:normal;font-weight:normal;font-size:12px;font-family:Arial;-inkscape-font-specification:ArialMT;writing-mode:lr-tb;fill:#000000;fill-opacity:1;fill-rule:nonzero;stroke:none"
           id="text1663"><tspan
             x="0 3.9960938 12.662109 20.666016 29.115234 36.445312"
             y="0"
             sodipodi:role="line"
             id="tspan1661">(UART)</tspan></text>
        <text
           transform="translate(267,273)"
           style="font-variant:normal;font-weight:normal;font-size:12px;font-family:Arial;-inkscape-font-specification:ArialMT;writing-mode:lr-tb;fill:#000000;fill-opacity:1;fill-rule:nonzero;stroke:none"
           id="text1667"><tspan
             x="0 8.0039062 12 18.673828 25.347656 29.34375 36.017578 46.013672 56.009766 58.675781 65.349609"
             y="0"
             sodipodi:role="line"
             id="tspan1665">Programming</tspan></text>
        <text
           transform="translate(267,287)"
           style="font-variant:normal;font-weight:normal;font-size:12px;font-family:Arial;-inkscape-font-specification:ArialMT;writing-mode:lr-tb;fill:#000000;fill-opacity:1;fill-rule:nonzero;stroke:none"
           id="text1671"><tspan
             x="0 3.9960938 12.662109 20.666016 29.115234 36.445312"
             y="0"
             sodipodi:role="line"
             id="tspan1669">(UART)</tspan></text>
      </g>
      <g
         id="g1673"
         transform="matrix(2.9991949,0,0,2.9991949,1.4995974,1.4995974)">
        <path
           d="m 210,145 c 0,-5.5 4.5,-10 10,-10 5.56,0 10,4.5 10,10 0,5.55 -4.44,10 -10,10 -5.5,0 -10,-4.45 -10,-10 z m 6.25,0.14999 c -0.39999,0.10001 -0.64999,0.45002 -0.55,0.80001 0.1,0.33999 0.44999,0.55 0.8,0.44999 1.85001,-0.34999 3.7,0.75 4.14999,2.5 0,0.16001 0.15001,0.30001 0.25,0.40001 0.16001,0.05 0.35001,0.11 0.51001,0.05 0.39,-0.05 0.59,-0.40001 0.54,-0.75 -0.54,-2.45002 -3.15,-4.01001 -5.7,-3.45002 z m 1.7,2.94001 c -0.65,-0.29 -1.5,-0.14 -1.89,0.37001 -0.45,0.48999 -0.26,1.14 0.39,1.43998 0.66,0.30001 1.55999,0.20002 1.94999,-0.29998 0.41001,-0.5 0.25,-1.14 -0.44999,-1.51001 z m -2.4,-5.79 c -0.05,0 -0.05,0 -0.05,0 -0.39999,0.1 -0.7,0.48999 -0.55,0.9 0.1,0.40001 0.5,0.65001 0.94999,0.55 0.05,0 0.05,0 0.05,0 0.1,0 0.1,0 0.1,0 3,-0.69 6,1.10001 6.75,4.03999 0,0.11 0,0.11 0,0.11 0,0.05 0,0.05 0,0.05 0.1,0.40001 0.5,0.65001 0.91001,0.6 0.44999,-0.05 0.68998,-0.44999 0.64,-0.83999 -0.05,-0.06 -0.05,-0.06 -0.05,-0.06 -0.04,-0.20999 -0.04,-0.20999 -0.04,-0.20999 -0.9,-3.69001 -4.76,-6.04002 -8.56,-5.14001 z m 10.45999,6.30001 c 0.04,0 0.10001,0 0.10001,0 0.39,-0.04 0.7,-0.45002 0.64,-0.90001 -0.35001,-2.5 -1.85001,-4.9 -3.95,-6.4 -2.44999,-1.76001 -5.64,-2.3 -8.19999,-1.35 -0.40001,0.15001 -0.60001,0.6 -0.45002,1 0.15001,0.40001 0.61,0.6 0.96001,0.46 1.74001,-0.66 4.49001,-0.51001 6.78999,1.19001 C 224,144.09 225,146.35001 225.25,147.95 c 0.06,0.40001 0.41,0.65001 0.75999,0.65001 z"
           style="fill:#999999;fill-opacity:1;fill-rule:nonzero;stroke:none"
           id="path1675" />
        <path
           d="m 229.8,145 c -1e-5,0.64348 -0.0628,1.28076 -0.18832,1.91186 -0.12555,0.63112 -0.31145,1.24392 -0.55768,1.83841 -0.24626,0.5945 -0.54814,1.15926 -0.90564,1.69429 -0.35748,0.53504 -0.76373,1.03006 -1.21873,1.48508 -0.45501,0.455 -0.95003,0.86124 -1.48508,1.21874 -0.53502,0.35749 -1.09978,0.65936 -1.69428,0.90561 -0.59449,0.24624 -1.2073,0.43214 -1.8384,0.55769 -0.63111,0.12553 -1.26839,0.18831 -1.91187,0.18832 -0.64348,-1e-5 -1.28078,-0.0628 -1.9119,-0.18831 -0.63111,-0.12556 -1.24391,-0.31146 -1.83841,-0.5577 -0.59449,-0.24625 -1.15925,-0.54812 -1.6943,-0.90561 -0.53503,-0.3575 -1.03005,-0.76374 -1.48505,-1.21874 -0.45501,-0.45502 -0.86128,-0.95004 -1.21879,-1.48506 -0.35749,-0.53505 -0.65935,-1.09981 -0.9056,-1.69431 -0.24624,-0.59449 -0.43213,-1.20729 -0.55766,-1.83841 C 210.26276,146.28076 210.2,145.64348 210.2,145 c 0,-0.64348 0.0628,-1.28078 0.18828,-1.9119 0.12553,-0.63112 0.31143,-1.24394 0.55767,-1.83844 0.24623,-0.59449 0.5481,-1.15925 0.9056,-1.69427 0.3575,-0.53504 0.76376,-1.03004 1.21878,-1.48505 0.455,-0.455 0.95003,-0.86126 1.48507,-1.21876 0.53502,-0.3575 1.09978,-0.65937 1.69428,-0.90561 0.5945,-0.24623 1.20731,-0.43213 1.83842,-0.55766 0.63112,-0.12554 1.26842,-0.1883 1.9119,-0.18831 0.64348,1e-5 1.28076,0.0628 1.91187,0.18831 0.6311,0.12553 1.24391,0.31143 1.8384,0.55766 0.5945,0.24624 1.15926,0.54811 1.69429,0.90561 0.53504,0.3575 1.03006,0.76376 1.48507,1.21876 0.455,0.45501 0.86125,0.95001 1.21873,1.48505 0.3575,0.53502 0.65938,1.09978 0.90564,1.69427 0.24623,0.5945 0.43213,1.20732 0.55768,1.83844 0.12553,0.63112 0.18831,1.26842 0.18832,1.9119 z"
           style="fill:#ffffff;fill-opacity:1;fill-rule:nonzero;stroke:none"
           id="path1677" />
        <path
           d="m 210,145 c 0,-5.5 4.5,-10 10,-10 5.56,0 10,4.5 10,10 0,5.55 -4.44,10 -10,10 -5.5,0 -10,-4.45 -10,-10 z m 6.25,0.14999 c -0.39999,0.10001 -0.64999,0.45002 -0.55,0.80001 0.1,0.33999 0.44999,0.55 0.8,0.44999 1.85001,-0.34999 3.7,0.75 4.14999,2.5 0,0.16001 0.15001,0.30001 0.25,0.40001 0.16001,0.05 0.35001,0.11 0.51001,0.05 0.39,-0.05 0.59,-0.40001 0.54,-0.75 -0.54,-2.45002 -3.15,-4.01001 -5.7,-3.45002 z m 1.7,2.94001 c -0.65,-0.29 -1.5,-0.14 -1.89,0.37001 -0.45,0.48999 -0.26,1.14 0.39,1.43998 0.66,0.30001 1.55999,0.20002 1.94999,-0.29998 0.41001,-0.5 0.25,-1.14 -0.44999,-1.51001 z m -2.4,-5.79 c -0.05,0 -0.05,0 -0.05,0 -0.39999,0.1 -0.7,0.48999 -0.55,0.9 0.1,0.40001 0.5,0.65001 0.94999,0.55 0.05,0 0.05,0 0.05,0 0.1,0 0.1,0 0.1,0 3,-0.69 6,1.10001 6.75,4.03999 0,0.11 0,0.11 0,0.11 0,0.05 0,0.05 0,0.05 0.1,0.40001 0.5,0.65001 0.91001,0.6 0.44999,-0.05 0.68998,-0.44999 0.64,-0.83999 -0.05,-0.06 -0.05,-0.06 -0.05,-0.06 -0.04,-0.20999 -0.04,-0.20999 -0.04,-0.20999 -0.9,-3.69001 -4.76,-6.04002 -8.56,-5.14001 z m 10.45999,6.30001 c 0.04,0 0.10001,0 0.10001,0 0.39,-0.04 0.7,-0.45002 0.64,-0.90001 -0.35001,-2.5 -1.85001,-4.9 -3.95,-6.4 -2.44999,-1.76001 -5.64,-2.3 -8.19999,-1.35 -0.40001,0.15001 -0.60001,0.6 -0.45002,1 0.15001,0.40001 0.61,0.6 0.96001,0.46 1.74001,-0.66 4.49001,-0.51001 6.78999,1.19001 C 224,144.09 225,146.35001 225.25,147.95 c 0.06,0.40001 0.41,0.65001 0.75999,0.65001 z"
           style="fill:#999999;fill-opacity:1;fill-rule:nonzero;stroke:none"
           id="path1679" />
      </g>
      <g
         id="g1681"
         transform="scale(2.9991949)">
        <text
           transform="translate(233.32813,150)"
           style="font-variant:normal;font-weight:normal;font-size:12px;font-family:Arial;-inkscape-font-specification:ArialMT;writing-mode:lr-tb;fill:#000000;fill-opacity:1;fill-rule:nonzero;stroke:none"
           id="text1685"><tspan
             x="0 8.6660156 11.332031 15.328125 22.001953 24.667969 31.341797 37.341797"
             y="0"
             sodipodi:role="line"
             id="tspan1683">wireless</tspan></text>
        <text
           transform="translate(79.96875,163)"
           style="font-variant:normal;font-weight:normal;font-size:12px;font-family:Arial;-inkscape-font-specification:ArialMT;writing-mode:lr-tb;fill:#000000;fill-opacity:1;fill-rule:nonzero;stroke:none"
           id="text1689"><tspan
             x="0 8.6660156 11.332031 15.328125 22.001953 28.675781 32.009766 38.683594 45.357422 48.691406 57.357422 64.03125 68.027344 74.027344 76.693359 83.367188"
             y="0"
             sodipodi:role="line"
             id="tspan1687">wired networking</tspan></text>
        <text
           transform="translate(102.8125,177)"
           style="font-variant:normal;font-weight:normal;font-size:12px;font-family:Arial;-inkscape-font-specification:ArialMT;writing-mode:lr-tb;fill:#000000;fill-opacity:1;fill-rule:nonzero;stroke:none"
           id="text1693"><tspan
             x="0 3.9960938 10.669922 17.677734 21.011719 29.015625 37.019531 40.353516"
             y="0"
             sodipodi:role="line"
             id="tspan1691">(2× SPI)</tspan></text>
        <text
           transform="translate(302.75,170)"
           style="font-variant:normal;font-weight:normal;font-size:12px;font-family:Arial;-inkscape-font-specification:ArialMT;writing-mode:lr-tb;fill:#000000;fill-opacity:1;fill-rule:nonzero;stroke:none"
           id="text1697"><tspan
             x="0 6.6738281 13.347656 16.013672 19.347656 23.34375 30.017578 36.691406 43.365234 46.03125 52.705078 58.705078 62.039062 66.035156 74.701172 82.705078 91.154297 98.484375"
             y="0"
             sodipodi:role="line"
             id="tspan1695">half-duplex (UART)</tspan></text>
      </g>
      <g
         id="g1699"
         transform="matrix(2.9991949,0,0,2.9991949,1.4995974,1.4995974)">
        <path
           d="m 190,390 h 90 v 40 h -90 z"
           style="fill:#ffffff;fill-opacity:1;fill-rule:nonzero;stroke:none"
           id="path1701" />
        <path
           d="m 190,390 h 90 v 40 h -90 z"
           style="fill:none;stroke:#000000;stroke-width:1;stroke-linecap:butt;stroke-linejoin:miter;stroke-miterlimit:10;stroke-dasharray:none;stroke-opacity:1"
           id="path1703" />
      </g>
      <g
         id="g1705"
         transform="scale(2.9991949)">
        <text
           transform="translate(194.64063,415)"
           style="font-variant:normal;font-weight:normal;font-size:12px;font-family:Arial;-inkscape-font-specification:ArialMT;writing-mode:lr-tb;fill:#000000;fill-opacity:1;fill-rule:nonzero;stroke:none"
           id="text1709"><tspan
             x="0 8.6660156 16.669922 24.673828 28.007812 34.007812 40.681641 47.355469 54.029297 60.703125 66.703125 70.037109 76.710938"
             y="0"
             sodipodi:role="line"
             id="tspan1707">USB connector</tspan></text>
        <path
           d="m 150,370 h 31.75999"
           style="fill:none;stroke:#b85450;stroke-width:1;stroke-linecap:butt;stroke-linejoin:miter;stroke-miterlimit:10;stroke-dasharray:none;stroke-opacity:1"
           id="path1711" />
        <path
           d="m 187.75999,370 -8,4 2,-4 -2,-4 z"
           style="fill:#b85450;fill-opacity:1;fill-rule:nonzero;stroke:none"
           id="path1713" />
        <path
           d="m 187.75999,370 -8,4 2,-4 -2,-4 z"
           style="fill:none;stroke:#b85450;stroke-width:1;stroke-linecap:butt;stroke-linejoin:miter;stroke-miterlimit:10;stroke-dasharray:none;stroke-opacity:1"
           id="path1715" />
      </g>
      <g
         id="g1717"
         transform="matrix(2.9991949,0,0,2.9991949,1.4995974,1.4995974)">
        <path
           d="m 90,360 h 60 v 20 H 90 Z"
           style="fill:none;stroke:#000000;stroke-width:1;stroke-linecap:butt;stroke-linejoin:miter;stroke-miterlimit:10;stroke-dasharray:none;stroke-opacity:1"
           id="path1719" />
      </g>
      <g
         id="g1721"
         transform="scale(2.9991949)">
        <text
           transform="translate(98.3125,375)"
           style="font-variant:normal;font-weight:normal;font-size:12px;font-family:Arial;-inkscape-font-specification:ArialMT;writing-mode:lr-tb;fill:#000000;fill-opacity:1;fill-rule:nonzero;stroke:none"
           id="text1725"><tspan
             x="0 8.6660156 15.339844 22.013672 26.009766 32.683594 39.357422"
             y="0"
             sodipodi:role="line"
             id="tspan1723">Charger</tspan></text>
        <path
           d="M 158.24,340 H 170 190"
           style="fill:none;stroke:#b85450;stroke-width:1;stroke-linecap:butt;stroke-linejoin:miter;stroke-miterlimit:10;stroke-dasharray:none;stroke-opacity:1"
           id="path1727" />
        <path
           d="m 152.24,340 8,-4 -2,4 2,4 z"
           style="fill:#b85450;fill-opacity:1;fill-rule:nonzero;stroke:none"
           id="path1729" />
        <path
           d="m 152.24,340 8,-4 -2,4 2,4 z"
           style="fill:none;stroke:#b85450;stroke-width:1;stroke-linecap:butt;stroke-linejoin:miter;stroke-miterlimit:10;stroke-dasharray:none;stroke-opacity:1"
           id="path1731" />
      </g>
      <g
         id="g1733"
         transform="matrix(2.9991949,0,0,2.9991949,1.4995974,1.4995974)">
        <path
           d="m 90,330 h 60 v 20 H 90 Z"
           style="fill:none;stroke:#000000;stroke-width:1;stroke-linecap:butt;stroke-linejoin:miter;stroke-miterlimit:10;stroke-dasharray:none;stroke-opacity:1"
           id="path1735" />
      </g>
      <g
         id="g1737"
         transform="scale(2.9991949)">
        <text
           transform="translate(93.96875,345)"
           style="font-variant:normal;font-weight:normal;font-size:12px;font-family:Arial;-inkscape-font-specification:ArialMT;writing-mode:lr-tb;fill:#000000;fill-opacity:1;fill-rule:nonzero;stroke:none"
           id="text1741"><tspan
             x="0 8.0039062 11.337891 18.011719 24.685547 28.681641 35.355469 42.029297 45.363281"
             y="0"
             sodipodi:role="line"
             id="tspan1739">Step-up 1</tspan></text>
        <path
           d="M 158.24,400 H 170 190"
           style="fill:none;stroke:#b85450;stroke-width:1;stroke-linecap:butt;stroke-linejoin:miter;stroke-miterlimit:10;stroke-dasharray:none;stroke-opacity:1"
           id="path1743" />
        <path
           d="m 152.24,400 8,-4 -2,4 2,4 z"
           style="fill:#b85450;fill-opacity:1;fill-rule:nonzero;stroke:none"
           id="path1745" />
        <path
           d="m 152.24,400 8,-4 -2,4 2,4 z"
           style="fill:none;stroke:#b85450;stroke-width:1;stroke-linecap:butt;stroke-linejoin:miter;stroke-miterlimit:10;stroke-dasharray:none;stroke-opacity:1"
           id="path1747" />
      </g>
      <g
         id="g1749"
         transform="matrix(2.9991949,0,0,2.9991949,1.4995974,1.4995974)">
        <path
           d="m 90,390 h 60 v 20 H 90 Z"
           style="fill:none;stroke:#000000;stroke-width:1;stroke-linecap:butt;stroke-linejoin:miter;stroke-miterlimit:10;stroke-dasharray:none;stroke-opacity:1"
           id="path1751" />
      </g>
      <g
         id="g1753"
         transform="scale(2.9991949)">
        <text
           transform="translate(93.96875,405)"
           style="font-variant:normal;font-weight:normal;font-size:12px;font-family:Arial;-inkscape-font-specification:ArialMT;writing-mode:lr-tb;fill:#000000;fill-opacity:1;fill-rule:nonzero;stroke:none"
           id="text1757"><tspan
             x="0 8.0039062 11.337891 18.011719 24.685547 28.681641 35.355469 42.029297 45.363281"
             y="0"
             sodipodi:role="line"
             id="tspan1755">Step-up 2</tspan></text>
      </g>
      <g
         id="g1759"
         transform="matrix(2.9991949,0,0,2.9991949,1.4995974,1.4995974)">
        <path
           d="m 190,330 h 60 v 50 h -60 z"
           style="fill:none;stroke:#000000;stroke-width:1;stroke-linecap:butt;stroke-linejoin:miter;stroke-miterlimit:10;stroke-dasharray:none;stroke-opacity:1"
           id="path1761" />
      </g>
      <g
         id="g1763"
         transform="scale(2.9991949)">
        <text
           transform="translate(200.98438,360)"
           style="font-variant:normal;font-weight:normal;font-size:12px;font-family:Arial;-inkscape-font-specification:ArialMT;writing-mode:lr-tb;fill:#000000;fill-opacity:1;fill-rule:nonzero;stroke:none"
           id="text1767"><tspan
             x="0 8.0039062 14.677734 18.011719 21.345703 28.019531 32.015625"
             y="0"
             sodipodi:role="line"
             id="tspan1765">Battery</tspan></text>
        <path
           d="m 110,260 0.01,-11.56"
           style="fill:none;stroke:#d6b656;stroke-width:1;stroke-linecap:butt;stroke-linejoin:miter;stroke-miterlimit:10;stroke-dasharray:none;stroke-opacity:1"
           id="path1769" />
        <path
           d="m 110.02,242.44 3.99,8 -4,-2 -4,1.98999 z"
           style="fill:#d6b656;fill-opacity:1;fill-rule:nonzero;stroke:none"
           id="path1771" />
        <path
           d="m 110.02,242.44 3.99,8 -4,-2 -4,1.98999 z"
           style="fill:none;stroke:#d6b656;stroke-width:1;stroke-linecap:butt;stroke-linejoin:miter;stroke-miterlimit:10;stroke-dasharray:none;stroke-opacity:1"
           id="path1773" />
        <path
           d="m 120.16,260 -0.09,-11.64"
           style="fill:none;stroke:#d6b656;stroke-width:1;stroke-linecap:butt;stroke-linejoin:miter;stroke-miterlimit:10;stroke-dasharray:none;stroke-opacity:1"
           id="path1775" />
        <path
           d="m 120.03,242.36 4.06,7.97 -4.02,-1.97 -3.98,2.03 z"
           style="fill:#d6b656;fill-opacity:1;fill-rule:nonzero;stroke:none"
           id="path1777" />
        <path
           d="m 120.03,242.36 4.06,7.97 -4.02,-1.97 -3.98,2.03 z"
           style="fill:none;stroke:#d6b656;stroke-width:1;stroke-linecap:butt;stroke-linejoin:miter;stroke-miterlimit:10;stroke-dasharray:none;stroke-opacity:1"
           id="path1779" />
        <path
           d="M 60,290 V 400 H 90"
           style="fill:none;stroke:#b85450;stroke-width:1;stroke-linecap:butt;stroke-linejoin:miter;stroke-miterlimit:10;stroke-dasharray:none;stroke-opacity:1"
           id="path1781" />
        <path
           d="M 60,370 H 81.760002"
           style="fill:none;stroke:#b85450;stroke-width:1;stroke-linecap:butt;stroke-linejoin:miter;stroke-miterlimit:10;stroke-dasharray:none;stroke-opacity:1"
           id="path1783" />
        <path
           d="m 87.760002,370 -8,4 2,-4 -2,-4 z"
           style="fill:#b85450;fill-opacity:1;fill-rule:nonzero;stroke:none"
           id="path1785" />
        <path
           d="m 87.760002,370 -8,4 2,-4 -2,-4 z"
           style="fill:none;stroke:#b85450;stroke-width:1;stroke-linecap:butt;stroke-linejoin:miter;stroke-miterlimit:10;stroke-dasharray:none;stroke-opacity:1"
           id="path1787" />
        <path
           d="M 60,340 H 90"
           style="fill:none;stroke:#b85450;stroke-width:1;stroke-linecap:butt;stroke-linejoin:miter;stroke-miterlimit:10;stroke-dasharray:none;stroke-opacity:1"
           id="path1789" />
      </g>
      <g
         id="g1791"
         transform="matrix(0,-2.9991949,2.9991949,0,-824.77856,1124.6981)">
        <text
           transform="translate(7.640625,330)"
           style="font-variant:normal;font-weight:normal;font-size:12px;font-family:Arial;-inkscape-font-specification:ArialMT;writing-mode:lr-tb;fill:#000000;fill-opacity:1;fill-rule:nonzero;stroke:none"
           id="text1795"><tspan
             x="0 9.9960938 16.669922 19.335938 26.009766 29.34375 36.017578 42.691406 51.357422 58.03125 62.027344 65.361328 72.035156 78.708984"
             y="0"
             sodipodi:role="line"
             id="tspan1793">Main power bus</tspan></text>
      </g>
      <g
         id="g1797"
         transform="matrix(2.9991949,0,0,2.9991949,1.4995974,1.4995974)">
        <path
           d="m 290,390 h 100 v 40 H 290 Z"
           style="fill:#ffffff;fill-opacity:1;fill-rule:nonzero;stroke:none"
           id="path1799" />
        <path
           d="m 290,390 h 100 v 40 H 290 Z"
           style="fill:none;stroke:#000000;stroke-width:1;stroke-linecap:butt;stroke-linejoin:miter;stroke-miterlimit:10;stroke-dasharray:none;stroke-opacity:1"
           id="path1801" />
      </g>
      <g
         id="g1803"
         transform="scale(2.9991949)">
        <text
           transform="translate(293.29688,415)"
           style="font-variant:normal;font-weight:normal;font-size:12px;font-family:Arial;-inkscape-font-specification:ArialMT;writing-mode:lr-tb;fill:#000000;fill-opacity:1;fill-rule:nonzero;stroke:none"
           id="text1807"><tspan
             x="0 8.6660156 11.332031 17.332031 24.005859 26.671875 33.345703 39.345703 42.679688 50.683594 54.017578 60.691406 67.365234 70.699219 74.033203 80.707031 87.380859"
             y="0"
             sodipodi:role="line"
             id="tspan1805">Display &amp; buttons</tspan></text>
        <path
           d="m 270.01999,380.51999 0.05,-52.07999"
           style="fill:none;stroke:#9673a6;stroke-width:1;stroke-linecap:butt;stroke-linejoin:miter;stroke-miterlimit:10;stroke-dasharray:none;stroke-opacity:1"
           id="path1809" />
        <path
           d="m 270.01001,386.51999 -3.99002,-8 4,2 4,-1.98999 z"
           style="fill:#9673a6;fill-opacity:1;fill-rule:nonzero;stroke:none"
           id="path1811" />
        <path
           d="m 270.01001,386.51999 -3.99002,-8 4,2 4,-1.98999 z"
           style="fill:none;stroke:#9673a6;stroke-width:1;stroke-linecap:butt;stroke-linejoin:miter;stroke-miterlimit:10;stroke-dasharray:none;stroke-opacity:1"
           id="path1813" />
        <path
           d="m 270.07999,322.44 3.99002,8 -4,-2 -4,1.98999 z"
           style="fill:#9673a6;fill-opacity:1;fill-rule:nonzero;stroke:none"
           id="path1815" />
        <path
           d="m 270.07999,322.44 3.99002,8 -4,-2 -4,1.98999 z"
           style="fill:none;stroke:#9673a6;stroke-width:1;stroke-linecap:butt;stroke-linejoin:miter;stroke-miterlimit:10;stroke-dasharray:none;stroke-opacity:1"
           id="path1817" />
        <text
           transform="translate(282,336)"
           style="font-variant:normal;font-weight:normal;font-size:12px;font-family:Arial;-inkscape-font-specification:ArialMT;writing-mode:lr-tb;fill:#000000;fill-opacity:1;fill-rule:nonzero;stroke:none"
           id="text1821"><tspan
             x="0 8.0039062 12 18.673828 25.347656 29.34375 36.017578 46.013672 56.009766 58.675781 65.349609"
             y="0"
             sodipodi:role="line"
             id="tspan1819">Programming</tspan></text>
        <text
           transform="translate(282,350)"
           style="font-variant:normal;font-weight:normal;font-size:12px;font-family:Arial;-inkscape-font-specification:ArialMT;writing-mode:lr-tb;fill:#000000;fill-opacity:1;fill-rule:nonzero;stroke:none"
           id="text1825"><tspan
             x="0 8.6660156 15.339844 22.013672 28.6875 35.361328 42.035156 44.701172 51.375"
             y="0"
             sodipodi:role="line"
             id="tspan1823">Debugging</tspan></text>
        <text
           transform="translate(282,364)"
           style="font-variant:normal;font-weight:normal;font-size:12px;font-family:Arial;-inkscape-font-specification:ArialMT;writing-mode:lr-tb;fill:#000000;fill-opacity:1;fill-rule:nonzero;stroke:none"
           id="text1829"><tspan
             x="0 8.0039062 14.677734 23.34375 30.017578 34.013672 37.347656 44.021484 50.695312 57.369141 64.042969 67.376953 70.042969 76.716797 80.050781 82.716797 89.390625"
             y="0"
             sodipodi:role="line"
             id="tspan1827">Power negotiation</tspan></text>
      </g>
    </g>
  </g>
</svg>
