<?xml version="1.0" encoding="UTF-8" standalone="no"?>
<!-- Created with Inkscape (http://www.inkscape.org/) -->

<svg
   version="1.1"
   id="svg4139"
   xml:space="preserve"
   width="432.84378"
   height="346.46698"
   viewBox="0 0 432.84378 346.46699"
   sodipodi:docname="sw_arch.svg"
   inkscape:version="1.1.1 (1:1.1+202109281949+c3084ef5ed)"
   xmlns:inkscape="http://www.inkscape.org/namespaces/inkscape"
   xmlns:sodipodi="http://sodipodi.sourceforge.net/DTD/sodipodi-0.dtd"
   xmlns="http://www.w3.org/2000/svg"
   xmlns:svg="http://www.w3.org/2000/svg"><defs
     id="defs4143"><clipPath
       clipPathUnits="userSpaceOnUse"
       id="clipPath4153"><path
         d="M 0,0 H 2483.3333 V 3512.0571 H 0 Z"
         clip-rule="evenodd"
         id="path4151" /></clipPath><clipPath
       clipPathUnits="userSpaceOnUse"
       id="clipPath4167"><path
         d="M 0,0 H 2483.3333 V 3509.0581 H 0 Z"
         clip-rule="evenodd"
         id="path4165" /></clipPath><linearGradient
       x1="0"
       y1="0"
       x2="1"
       y2="0"
       gradientUnits="userSpaceOnUse"
       gradientTransform="matrix(64.799997,0,0,-7.1999996,40.419996,71.615423)"
       spreadMethod="pad"
       id="linearGradient4183"><stop
         style="stop-opacity:1;stop-color:#b9e0a5"
         offset="0"
         id="stop4179" /><stop
         style="stop-opacity:1;stop-color:#fff4c3"
         offset="1"
         id="stop4181" /></linearGradient><linearGradient
       x1="0"
       y1="0"
       x2="1"
       y2="0"
       gradientUnits="userSpaceOnUse"
       gradientTransform="matrix(64.799997,0,0,-4.7999996,40.419996,45.215434)"
       spreadMethod="pad"
       id="linearGradient4333"><stop
         style="stop-opacity:1;stop-color:#b9e0a5"
         offset="0"
         id="stop4329" /><stop
         style="stop-opacity:1;stop-color:#fff4c3"
         offset="1"
         id="stop4331" /></linearGradient><linearGradient
       x1="0"
       y1="0"
       x2="1"
       y2="0"
       gradientUnits="userSpaceOnUse"
       gradientTransform="matrix(16.799999,0,0,-4.7999996,107.61999,45.215434)"
       spreadMethod="pad"
       id="linearGradient4477"><stop
         style="stop-opacity:1;stop-color:#fff4c3"
         offset="0"
         id="stop4473" /><stop
         style="stop-opacity:1;stop-color:#fff4c3"
         offset="1"
         id="stop4475" /></linearGradient></defs><sodipodi:namedview
     id="namedview4141"
     pagecolor="#ffffff"
     bordercolor="#666666"
     borderopacity="1.0"
     inkscape:pageshadow="2"
     inkscape:pageopacity="0.0"
     inkscape:pagecheckerboard="0"
     showgrid="false"
     fit-margin-top="0"
     fit-margin-left="0"
     fit-margin-right="0"
     fit-margin-bottom="0"
     inkscape:zoom="1.4938048"
     inkscape:cx="263.08659"
     inkscape:cy="123.1754"
     inkscape:window-width="1920"
     inkscape:window-height="1080"
     inkscape:window-x="0"
     inkscape:window-y="0"
     inkscape:window-maximized="1"
     inkscape:current-layer="g4495" /><g
     id="g4145"
     inkscape:groupmode="layer"
     inkscape:label="Copy of Untitled Diagram.drawio (2)"
     transform="matrix(0.31999998,0,0,0.31999998,-153.55877,-614.23508)"><g
       id="g4161"><g
         id="g4163"
         clip-path="url(#clipPath4167)"><g
           id="g4169"
           transform="matrix(2.9991949,0,0,2.9991949,1.4995974,1.4995974)"><path
             d="m 170,640 h 220 v 90 H 170 Z"
             style="fill:#ffffff;fill-opacity:1;fill-rule:nonzero;stroke:none"
             id="path4171" /><path
             d="m 170,640 h 220 v 90 H 170 Z"
             style="fill:none;stroke:#000000;stroke-width:1;stroke-linecap:butt;stroke-linejoin:miter;stroke-miterlimit:10;stroke-dasharray:none;stroke-opacity:1"
             id="path4173" /><path
             d="M 170,750 H 600 V 850 H 170 Z"
             style="fill:#ffffff;fill-opacity:1;fill-rule:nonzero;stroke:none"
             id="path4175" /><path
             d="M 170,750 H 600 V 850 H 170 Z"
             style="fill:none;stroke:#000000;stroke-width:1;stroke-linecap:butt;stroke-linejoin:miter;stroke-miterlimit:10;stroke-dasharray:none;stroke-opacity:1"
             id="path4177" /><path
             d="m 170,870 h 270 v 30 H 170 Z"
             style="fill:url(#linearGradient4183);fill-opacity:1;fill-rule:nonzero;stroke:none"
             id="path4185" /><path
             d="m 170,870 h 270 v 30 H 170 Z"
             style="fill:none;stroke:#000000;stroke-width:1;stroke-linecap:butt;stroke-linejoin:miter;stroke-miterlimit:10;stroke-dasharray:none;stroke-opacity:1"
             id="path4187" /></g><g
           id="g4189"
           transform="scale(2.9991949)"><text
             transform="translate(235.96875,890)"
             style="font-variant:normal;font-weight:normal;font-size:12px;font-family:Arial;-inkscape-font-specification:ArialMT;writing-mode:lr-tb;fill:#000000;fill-opacity:1;fill-rule:nonzero;stroke:none"
             id="text4193"><tspan
               x="0 8.6660156 15.339844 22.669922 26.003906 29.337891 38.003906 46.007812 52.681641 56.015625 60.011719 68.677734 75.351562 82.025391 88.699219 92.033203 95.367188 101.36719 108.04102 112.03711 118.03711 120.70312 127.37695 134.05078"
               y="0"
               sodipodi:role="line"
               id="tspan4191">RoFI HAL (Robot version)</tspan></text></g><g
           id="g4195"
           transform="matrix(2.9991949,0,0,2.9991949,1.4995974,1.4995974)"><path
             d="M 450,870 H 600 V 970 H 450 Z"
             style="fill:#b9e0a5;fill-opacity:1;fill-rule:nonzero;stroke:none"
             id="path4197" /><path
             d="M 450,870 H 600 V 970 H 450 Z"
             style="fill:none;stroke:#000000;stroke-width:1;stroke-linecap:butt;stroke-linejoin:miter;stroke-miterlimit:10;stroke-dasharray:none;stroke-opacity:1"
             id="path4199" /></g><g
           id="g4201"
           transform="scale(2.9991949)"><text
             transform="translate(498.65625,918)"
             style="font-variant:normal;font-weight:normal;font-size:12px;font-family:Arial;-inkscape-font-specification:ArialMT;writing-mode:lr-tb;fill:#000000;fill-opacity:1;fill-rule:nonzero;stroke:none"
             id="text4205"><tspan
               x="0 8.6660156 15.339844 22.669922 26.003906 29.337891 38.003906 46.007812"
               y="0"
               sodipodi:role="line"
               id="tspan4203">RoFI HAL</tspan></text><text
             transform="translate(474.64063,932)"
             style="font-variant:normal;font-weight:normal;font-size:12px;font-family:Arial;-inkscape-font-specification:ArialMT;writing-mode:lr-tb;fill:#000000;fill-opacity:1;fill-rule:nonzero;stroke:none"
             id="text4209"><tspan
               x="0 3.9960938 12 14.666016 24.662109 31.335938 34.001953 40.675781 44.009766 50.683594 54.679688 58.013672 64.013672 70.6875 74.683594 80.683594 83.349609 90.023438 96.697266"
               y="0"
               sodipodi:role="line"
               id="tspan4207">(Simulator version)</tspan></text></g><g
           id="g4211"
           transform="matrix(2.9991949,0,0,2.9991949,1.4995974,1.4995974)"><path
             d="m 170,910 h 70 v 60 h -70 z"
             style="fill:#b9e0a5;fill-opacity:1;fill-rule:nonzero;stroke:none"
             id="path4213" /><path
             d="m 170,910 h 70 v 60 h -70 z"
             style="fill:none;stroke:#000000;stroke-width:1;stroke-linecap:butt;stroke-linejoin:miter;stroke-miterlimit:10;stroke-dasharray:none;stroke-opacity:1"
             id="path4215" /></g><g
           id="g4217"
           transform="scale(2.9991949)"><text
             transform="translate(176.32813,945)"
             style="font-variant:normal;font-weight:normal;font-size:12px;font-family:Arial;-inkscape-font-specification:ArialMT;writing-mode:lr-tb;fill:#000000;fill-opacity:1;fill-rule:nonzero;stroke:none"
             id="text4221"><tspan
               x="0 8.6660156 15.339844 22.669922 26.003906 34.669922 41.34375 51.339844"
               y="0"
               sodipodi:role="line"
               id="tspan4219">RoFICoMs</tspan></text></g><g
           id="g4223"
           transform="matrix(2.9991949,0,0,2.9991949,1.4995974,1.4995974)"><path
             d="m 250,910 h 40 v 60 h -40 z"
             style="fill:#b9e0a5;fill-opacity:1;fill-rule:nonzero;stroke:none"
             id="path4225" /><path
             d="m 250,910 h 40 v 60 h -40 z"
             style="fill:none;stroke:#000000;stroke-width:1;stroke-linecap:butt;stroke-linejoin:miter;stroke-miterlimit:10;stroke-dasharray:none;stroke-opacity:1"
             id="path4227" /></g><g
           id="g4229"
           transform="scale(2.9991949)"><text
             transform="translate(254.3125,945)"
             style="font-variant:normal;font-weight:normal;font-size:12px;font-family:Arial;-inkscape-font-specification:ArialMT;writing-mode:lr-tb;fill:#000000;fill-opacity:1;fill-rule:nonzero;stroke:none"
             id="text4233"><tspan
               x="0 6 12.673828 15.339844 22.013672 25.347656"
               y="0"
               sodipodi:role="line"
               id="tspan4231">Joints</tspan></text></g><g
           id="g4235"
           transform="matrix(2.9991949,0,0,2.9991949,1.4995974,1.4995974)"><path
             d="m 300,910 h 140 v 20 H 300 Z"
             style="fill:#ffffff;fill-opacity:1;fill-rule:nonzero;stroke:none"
             id="path4237" /><path
             d="m 300,910 h 140 v 20 H 300 Z"
             style="fill:none;stroke:#000000;stroke-width:1;stroke-linecap:butt;stroke-linejoin:miter;stroke-miterlimit:10;stroke-dasharray:none;stroke-opacity:1"
             id="path4239" /></g><g
           id="g4241"
           transform="scale(2.9991949)"><text
             transform="translate(338.98438,925)"
             style="font-variant:normal;font-weight:normal;font-size:12px;font-family:Arial;-inkscape-font-specification:ArialMT;writing-mode:lr-tb;fill:#000000;fill-opacity:1;fill-rule:nonzero;stroke:none"
             id="text4245"><tspan
               x="0 8.6660156 15.339844 22.013672 26.009766 32.683594 38.683594 45.357422 51.357422 58.03125"
               y="0"
               sodipodi:role="line"
               id="tspan4243">Coprocesor</tspan></text></g><g
           id="g4247"
           transform="matrix(2.9991949,0,0,2.9991949,1.4995974,1.4995974)"><path
             d="m 300,940 h 80 v 30 h -80 z"
             style="fill:#b9e0a5;fill-opacity:1;fill-rule:nonzero;stroke:none"
             id="path4249" /><path
             d="m 300,940 h 80 v 30 h -80 z"
             style="fill:none;stroke:#000000;stroke-width:1;stroke-linecap:butt;stroke-linejoin:miter;stroke-miterlimit:10;stroke-dasharray:none;stroke-opacity:1"
             id="path4251" /></g><g
           id="g4253"
           transform="scale(2.9991949)"><text
             transform="translate(323,953)"
             style="font-variant:normal;font-weight:normal;font-size:12px;font-family:Arial;-inkscape-font-specification:ArialMT;writing-mode:lr-tb;fill:#000000;fill-opacity:1;fill-rule:nonzero;stroke:none"
             id="text4257"><tspan
               x="0 8.0039062 14.677734 23.34375 30.017578"
               y="0"
               sodipodi:role="line"
               id="tspan4255">Power</tspan></text><text
             transform="translate(304.98438,967)"
             style="font-variant:normal;font-weight:normal;font-size:12px;font-family:Arial;-inkscape-font-specification:ArialMT;writing-mode:lr-tb;fill:#000000;fill-opacity:1;fill-rule:nonzero;stroke:none"
             id="text4261"><tspan
               x="0 9.9960938 16.669922 23.34375 30.017578 36.691406 43.365234 53.361328 60.035156 66.708984"
               y="0"
               sodipodi:role="line"
               id="tspan4259">management</tspan></text></g><g
           id="g4263"
           transform="matrix(2.9991949,0,0,2.9991949,1.4995974,1.4995974)"><path
             d="m 390,940 h 50 v 30 h -50 z"
             style="fill:#ffffff;fill-opacity:1;fill-rule:nonzero;stroke:none"
             id="path4265" /><path
             d="m 390,940 h 50 v 30 h -50 z"
             style="fill:none;stroke:#000000;stroke-width:1;stroke-linecap:butt;stroke-linejoin:miter;stroke-miterlimit:10;stroke-dasharray:none;stroke-opacity:1"
             id="path4267" /></g><g
           id="g4269"
           transform="scale(2.9991949)"><text
             transform="translate(392.98438,960)"
             style="font-variant:normal;font-weight:normal;font-size:12px;font-family:Arial;-inkscape-font-specification:ArialMT;writing-mode:lr-tb;fill:#000000;fill-opacity:1;fill-rule:nonzero;stroke:none"
             id="text4273"><tspan
               x="0 8.0039062 14.677734 21.351562 27.351562 34.025391 38.021484"
               y="0"
               sodipodi:role="line"
               id="tspan4271">Sensors</tspan></text></g><g
           id="g4275"
           transform="matrix(2.9991949,0,0,2.9991949,1.4995974,1.4995974)"><path
             d="m 180,810 h 80 v 30 h -80 z"
             style="fill:#b9e0a5;fill-opacity:1;fill-rule:nonzero;stroke:none"
             id="path4277" /><path
             d="m 180,810 h 80 v 30 h -80 z"
             style="fill:none;stroke:#000000;stroke-width:1;stroke-linecap:butt;stroke-linejoin:miter;stroke-miterlimit:10;stroke-dasharray:none;stroke-opacity:1"
             id="path4279" /></g><g
           id="g4281"
           transform="scale(2.9991949)"><text
             transform="translate(189.98438,830)"
             style="font-variant:normal;font-weight:normal;font-size:12px;font-family:Arial;-inkscape-font-specification:ArialMT;writing-mode:lr-tb;fill:#000000;fill-opacity:1;fill-rule:nonzero;stroke:none"
             id="text4285"><tspan
               x="0 8.6660156 15.339844 18.673828 27.339844 34.013672 38.009766 44.009766 46.675781 53.349609"
               y="0"
               sodipodi:role="line"
               id="tspan4283">Networking</tspan></text></g><g
           id="g4287"
           transform="matrix(2.9991949,0,0,2.9991949,1.4995974,1.4995974)"><path
             d="m 270,810 h 90 v 30 h -90 z"
             style="fill:#ffffff;fill-opacity:1;fill-rule:nonzero;stroke:none"
             id="path4289" /><path
             d="m 270,810 h 90 v 30 h -90 z"
             style="fill:none;stroke:#000000;stroke-width:1;stroke-linecap:butt;stroke-linejoin:miter;stroke-miterlimit:10;stroke-dasharray:none;stroke-opacity:1"
             id="path4291" /></g><g
           id="g4293"
           transform="scale(2.9991949)"><text
             transform="translate(278.98438,830)"
             style="font-variant:normal;font-weight:normal;font-size:12px;font-family:Arial;-inkscape-font-specification:ArialMT;writing-mode:lr-tb;fill:#000000;fill-opacity:1;fill-rule:nonzero;stroke:none"
             id="text4297"><tspan
               x="0 8.0039062 14.003906 20.677734 27.351562 30.685547 34.019531 40.019531 46.019531 52.019531 55.353516 62.027344"
               y="0"
               sodipodi:role="line"
               id="tspan4295">Event system</tspan></text></g><g
           id="g4299"
           transform="matrix(2.9991949,0,0,2.9991949,1.4995974,1.4995974)"><path
             d="m 370,780 h 90 v 60 h -90 z"
             style="fill:#fff4c3;fill-opacity:1;fill-rule:nonzero;stroke:none"
             id="path4301" /><path
             d="m 370,780 h 90 v 60 h -90 z"
             style="fill:none;stroke:#000000;stroke-width:1;stroke-linecap:butt;stroke-linejoin:miter;stroke-miterlimit:10;stroke-dasharray:none;stroke-opacity:1"
             id="path4303" /></g><g
           id="g4305"
           transform="scale(2.9991949)"><text
             transform="translate(386.32813,808)"
             style="font-variant:normal;font-weight:normal;font-size:12px;font-family:Arial;-inkscape-font-specification:ArialMT;writing-mode:lr-tb;fill:#000000;fill-opacity:1;fill-rule:nonzero;stroke:none"
             id="text4309"><tspan
               x="0 8.6660156 11.332031 17.332031 20.666016 24.662109 27.328125 34.001953 40.675781 44.009766 50.683594"
               y="0"
               sodipodi:role="line"
               id="tspan4307">Distributed</tspan></text><text
             transform="translate(395.65625,822)"
             style="font-variant:normal;font-weight:normal;font-size:12px;font-family:Arial;-inkscape-font-specification:ArialMT;writing-mode:lr-tb;fill:#000000;fill-opacity:1;fill-rule:nonzero;stroke:none"
             id="text4313"><tspan
               x="0 2.6660156 9.3398438 16.013672 22.6875 25.353516 32.027344"
               y="0"
               sodipodi:role="line"
               id="tspan4311">logging</tspan></text></g><g
           id="g4315"
           transform="matrix(2.9991949,0,0,2.9991949,1.4995974,1.4995974)"><path
             d="m 470,780 h 120 v 60 H 470 Z"
             style="fill:#fff4c3;fill-opacity:1;fill-rule:nonzero;stroke:none"
             id="path4317" /><path
             d="m 470,780 h 120 v 60 H 470 Z"
             style="fill:none;stroke:#000000;stroke-width:1;stroke-linecap:butt;stroke-linejoin:miter;stroke-miterlimit:10;stroke-dasharray:none;stroke-opacity:1"
             id="path4319" /></g><g
           id="g4321"
           transform="scale(2.9991949)"><text
             transform="translate(484.96875,815)"
             style="font-variant:normal;font-weight:normal;font-size:12px;font-family:Arial;-inkscape-font-specification:ArialMT;writing-mode:lr-tb;fill:#000000;fill-opacity:1;fill-rule:nonzero;stroke:none"
             id="text4325"><tspan
               x="0 7.3300781 9.9960938 13.992188 23.988281 32.654297 39.328125 43.324219 49.998047 53.332031 60.005859 66.679688 73.353516 80.027344 83.361328"
               y="0"
               sodipodi:role="line"
               id="tspan4323">Firmware update</tspan></text></g><g
           id="g4327"
           transform="matrix(2.9991949,0,0,2.9991949,1.4995974,1.4995974)"><path
             d="m 170,980 h 270 v 20 H 170 Z"
             style="fill:url(#linearGradient4333);fill-opacity:1;fill-rule:nonzero;stroke:none"
             id="path4335" /><path
             d="m 170,980 h 270 v 20 H 170 Z"
             style="fill:none;stroke:#000000;stroke-width:1;stroke-linecap:butt;stroke-linejoin:miter;stroke-miterlimit:10;stroke-dasharray:none;stroke-opacity:1"
             id="path4337" /></g><g
           id="g4339"
           transform="scale(2.9991949)"><text
             transform="translate(278.98438,995)"
             style="font-variant:normal;font-weight:normal;font-size:12px;font-family:Arial;-inkscape-font-specification:ArialMT;writing-mode:lr-tb;fill:#000000;fill-opacity:1;fill-rule:nonzero;stroke:none"
             id="text4343"><tspan
               x="0 8.6660156 15.339844 19.335938 26.009766 34.675781 41.349609 45.345703"
               y="0"
               sodipodi:role="line"
               id="tspan4341">Hardware</tspan></text></g><g
           id="g4345"
           transform="matrix(2.9991949,0,0,2.9991949,1.4995974,1.4995974)"><path
             d="m 180,780 h 180 v 20 H 180 Z"
             style="fill:#b9e0a5;fill-opacity:1;fill-rule:nonzero;stroke:none"
             id="path4347" /><path
             d="m 180,780 h 180 v 20 H 180 Z"
             style="fill:none;stroke:#000000;stroke-width:1;stroke-linecap:butt;stroke-linejoin:miter;stroke-miterlimit:10;stroke-dasharray:none;stroke-opacity:1"
             id="path4349" /></g><g
           id="g4351"
           transform="scale(2.9991949)"
           style="stroke-width:2.45899;stroke-miterlimit:4;stroke-dasharray:none"><text
             transform="translate(258.32813,795)"
             style="font-variant:normal;font-weight:normal;font-size:12px;font-family:Arial;-inkscape-font-specification:ArialMT;writing-mode:lr-tb;fill:#000000;fill-opacity:1;fill-rule:nonzero;stroke:none;stroke-width:2.45899;stroke-miterlimit:4;stroke-dasharray:none"
             id="text4355"><tspan
               x="0 8.6660156 16.669922"
               y="0"
               sodipodi:role="line"
               id="tspan4353">RBL</tspan></text><text
             transform="translate(313.64063,770)"
             style="font-variant:normal;font-weight:normal;font-size:12px;font-family:Arial;-inkscape-font-specification:ArialMT;writing-mode:lr-tb;fill:#000000;fill-opacity:1;fill-rule:nonzero;stroke:none;stroke-width:2.45899;stroke-miterlimit:4;stroke-dasharray:none"
             id="text4359"><tspan
               x="0 8.6660156 15.339844 22.669922 26.003906 29.337891 38.671875 46.675781 50.009766 54.005859 60.679688 64.013672 70.013672 76.6875 80.021484 83.355469 90.029297 93.363281 96.697266 99.363281 102.0293 108.70312 112.69922 119.37305 123.36914 126.03516 132.70898 138.70898"
               y="0"
               sodipodi:role="line"
               id="tspan4357">RoFI OS (a set of libraries)</tspan></text><path
             d="M 160,740 H 610"
             style="fill:none;stroke:#000000;stroke-width:2.45899;stroke-linecap:butt;stroke-linejoin:miter;stroke-miterlimit:4;stroke-dasharray:none;stroke-opacity:1"
             id="path4361" /></g><g
           id="g4363"
           transform="matrix(2.9991949,0,0,2.9991949,1.4995974,1.4995974)"><path
             d="m 180,670 h 95 v 20 h -95 z"
             style="fill:#fff4c3;fill-opacity:1;fill-rule:nonzero;stroke:none"
             id="path4365" /><path
             d="m 180,670 h 95 v 20 h -95 z"
             style="fill:none;stroke:#000000;stroke-width:1;stroke-linecap:butt;stroke-linejoin:miter;stroke-miterlimit:10;stroke-dasharray:none;stroke-opacity:1"
             id="path4367" /></g><g
           id="g4369"
           transform="scale(2.9991949)"><text
             transform="translate(185.46875,685)"
             style="font-variant:normal;font-weight:normal;font-size:12px;font-family:Arial;-inkscape-font-specification:ArialMT;writing-mode:lr-tb;fill:#000000;fill-opacity:1;fill-rule:nonzero;stroke:none"
             id="text4373"><tspan
               x="0 8.6660156 15.339844 21.339844 28.013672 34.6875 38.021484 40.6875 47.361328 54.035156 58.03125 64.705078 68.039062 70.705078 77.378906"
               y="0"
               sodipodi:role="line"
               id="tspan4371">Reconfiguration</tspan></text></g><g
           id="g4375"
           transform="matrix(2.9991949,0,0,2.9991949,1.4995974,1.4995974)"><path
             d="m 180,700 h 95 v 20 h -95 z"
             style="fill:#fff4c3;fill-opacity:1;fill-rule:nonzero;stroke:none"
             id="path4377" /><path
             d="m 180,700 h 95 v 20 h -95 z"
             style="fill:none;stroke:#000000;stroke-width:1;stroke-linecap:butt;stroke-linejoin:miter;stroke-miterlimit:10;stroke-dasharray:none;stroke-opacity:1"
             id="path4379" /></g><g
           id="g4381"
           transform="scale(2.9991949)"><text
             transform="translate(189.14063,715)"
             style="font-variant:normal;font-weight:normal;font-size:12px;font-family:Arial;-inkscape-font-specification:ArialMT;writing-mode:lr-tb;fill:#000000;fill-opacity:1;fill-rule:nonzero;stroke:none"
             id="text4385"><tspan
               x="0 8.0039062 11.337891 18.011719 20.677734 24.673828 28.007812 34.681641 41.355469 44.689453 51.363281 57.363281 60.697266 63.363281 70.037109"
               y="0"
               sodipodi:role="line"
               id="tspan4383">Stair detection</tspan></text></g><g
           id="g4387"
           transform="matrix(2.9991949,0,0,2.9991949,1.4995974,1.4995974)"><path
             d="m 285,670 h 95 v 20 h -95 z"
             style="fill:#b9e0a5;fill-opacity:1;fill-rule:nonzero;stroke:none"
             id="path4389" /><path
             d="m 285,670 h 95 v 20 h -95 z"
             style="fill:none;stroke:#000000;stroke-width:1;stroke-linecap:butt;stroke-linejoin:miter;stroke-miterlimit:10;stroke-dasharray:none;stroke-opacity:1"
             id="path4391" /></g><g
           id="g4393"
           transform="scale(2.9991949)"><text
             transform="translate(294.14063,685)"
             style="font-variant:normal;font-weight:normal;font-size:12px;font-family:Arial;-inkscape-font-specification:ArialMT;writing-mode:lr-tb;fill:#000000;fill-opacity:1;fill-rule:nonzero;stroke:none"
             id="text4397"><tspan
               x="0 8.0039062 14.677734 23.34375 30.017578 34.013672 37.347656 44.021484 50.695312 57.369141 60.703125 63.369141 70.042969"
               y="0"
               sodipodi:role="line"
               id="tspan4395">Power hunting</tspan></text><path
             d="M 390,720 H 550 V 708.23999"
             style="fill:none;stroke:#000000;stroke-width:1;stroke-linecap:butt;stroke-linejoin:miter;stroke-miterlimit:10;stroke-dasharray:none;stroke-opacity:1"
             id="path4399" /><path
             d="m 550,702.23999 4,8 -4,-2 -4,2 z"
             style="fill:#000000;fill-opacity:1;fill-rule:nonzero;stroke:none"
             id="path4401" /><path
             d="m 550,702.23999 4,8 -4,-2 -4,2 z"
             style="fill:none;stroke:#000000;stroke-width:1;stroke-linecap:butt;stroke-linejoin:miter;stroke-miterlimit:10;stroke-dasharray:none;stroke-opacity:1"
             id="path4403" /></g><g
           id="g4405"
           transform="matrix(2.9991949,0,0,2.9991949,1.4995974,1.4995974)"><path
             d="m 285,700 h 95 v 20 h -95 z"
             style="fill:#ffffff;fill-opacity:1;fill-rule:nonzero;stroke:none"
             id="path4407" /><path
             d="m 285,700 h 95 v 20 h -95 z"
             style="fill:none;stroke:#000000;stroke-width:1;stroke-linecap:butt;stroke-linejoin:miter;stroke-miterlimit:10;stroke-dasharray:none;stroke-opacity:1"
             id="path4409" /></g><g
           id="g4411"
           transform="scale(2.9991949)"><text
             transform="translate(322.82813,715)"
             style="font-variant:normal;font-weight:normal;font-size:12px;font-family:Arial;-inkscape-font-specification:ArialMT;writing-mode:lr-tb;fill:#000000;fill-opacity:1;fill-rule:nonzero;stroke:none"
             id="text4415"><tspan
               x="0 6.6738281 10.007812 16.007812"
               y="0"
               sodipodi:role="line"
               id="tspan4413">etc.</tspan></text><text
             transform="translate(244.3125,660)"
             style="font-variant:normal;font-weight:normal;font-size:12px;font-family:Arial;-inkscape-font-specification:ArialMT;writing-mode:lr-tb;fill:#000000;fill-opacity:1;fill-rule:nonzero;stroke:none"
             id="text4419"><tspan
               x="0 8.6660156 15.339844 22.669922 26.003906 29.337891 32.003906 34.669922 41.34375 45.339844 52.013672 56.009766 58.675781 65.349609"
               y="0"
               sodipodi:role="line"
               id="tspan4417">RoFI libraries</tspan></text><path
             d="M 440,708.23999 V 720"
             style="fill:none;stroke:#000000;stroke-width:1;stroke-linecap:butt;stroke-linejoin:miter;stroke-miterlimit:10;stroke-dasharray:none;stroke-opacity:1"
             id="path4421" /><path
             d="m 440,702.23999 4,8 -4,-2 -4,2 z"
             style="fill:#000000;fill-opacity:1;fill-rule:nonzero;stroke:none"
             id="path4423" /><path
             d="m 440,702.23999 4,8 -4,-2 -4,2 z"
             style="fill:none;stroke:#000000;stroke-width:1;stroke-linecap:butt;stroke-linejoin:miter;stroke-miterlimit:10;stroke-dasharray:none;stroke-opacity:1"
             id="path4425" /></g><g
           id="g4427"
           transform="matrix(2.9991949,0,0,2.9991949,1.4995974,1.4995974)"><path
             d="m 400,640 h 80 v 60 h -80 z"
             style="fill:#ffffff;fill-opacity:1;fill-rule:nonzero;stroke:none"
             id="path4429" /><path
             d="m 400,640 h 80 v 60 h -80 z"
             style="fill:none;stroke:#000000;stroke-width:1;stroke-linecap:butt;stroke-linejoin:miter;stroke-miterlimit:10;stroke-dasharray:none;stroke-opacity:1"
             id="path4431" /></g><g
           id="g4433"
           transform="scale(2.9991949)"><text
             transform="translate(408.3125,668)"
             style="font-variant:normal;font-weight:normal;font-size:12px;font-family:Arial;-inkscape-font-specification:ArialMT;writing-mode:lr-tb;fill:#000000;fill-opacity:1;fill-rule:nonzero;stroke:none"
             id="text4437"><tspan
               x="0 8.6660156 14.666016 21.339844 25.335938 28.669922 37.335938 40.669922 49.335938 56.34375"
               y="0"
               sodipodi:role="line"
               id="tspan4435">User C/C++</tspan></text><text
             transform="translate(417.65625,682)"
             style="font-variant:normal;font-weight:normal;font-size:12px;font-family:Arial;-inkscape-font-specification:ArialMT;writing-mode:lr-tb;fill:#000000;fill-opacity:1;fill-rule:nonzero;stroke:none"
             id="text4441"><tspan
               x="0 6.6738281 10.669922 17.34375 24.017578 28.013672 34.6875"
               y="0"
               sodipodi:role="line"
               id="tspan4439">program</tspan></text></g><g
           id="g4443"
           transform="matrix(2.9991949,0,0,2.9991949,1.4995974,1.4995974)"><path
             d="m 490,680 h 120 v 20 H 490 Z"
             style="fill:#fff4c3;fill-opacity:1;fill-rule:nonzero;stroke:none"
             id="path4445" /><path
             d="m 490,680 h 120 v 20 H 490 Z"
             style="fill:none;stroke:#000000;stroke-width:1;stroke-linecap:butt;stroke-linejoin:miter;stroke-miterlimit:10;stroke-dasharray:none;stroke-opacity:1"
             id="path4447" /></g><g
           id="g4449"
           transform="scale(2.9991949)"><text
             transform="translate(532.32813,695)"
             style="font-variant:normal;font-weight:normal;font-size:12px;font-family:Arial;-inkscape-font-specification:ArialMT;writing-mode:lr-tb;fill:#000000;fill-opacity:1;fill-rule:nonzero;stroke:none"
             id="text4453"><tspan
               x="0 6 14.003906 17.337891 25.341797"
               y="0"
               sodipodi:role="line"
               id="tspan4451">JS VM</tspan></text></g><g
           id="g4455"
           transform="matrix(2.9991949,0,0,2.9991949,1.4995974,1.4995974)"><path
             d="m 490,640 h 120 v 30 H 490 Z"
             style="fill:#ffffff;fill-opacity:1;fill-rule:nonzero;stroke:none"
             id="path4457" /><path
             d="m 490,640 h 120 v 30 H 490 Z"
             style="fill:none;stroke:#000000;stroke-width:1;stroke-linecap:butt;stroke-linejoin:miter;stroke-miterlimit:10;stroke-dasharray:none;stroke-opacity:1"
             id="path4459" /></g><g
           id="g4461"
           transform="scale(2.9991949)"><text
             transform="translate(521.32813,653)"
             style="font-variant:normal;font-weight:normal;font-size:12px;font-family:Arial;-inkscape-font-specification:ArialMT;writing-mode:lr-tb;fill:#000000;fill-opacity:1;fill-rule:nonzero;stroke:none"
             id="text4465"><tspan
               x="0 8.6660156 14.666016 21.339844 25.335938 28.669922 34.669922 40.669922 44.666016 47.332031 54.005859"
               y="0"
               sodipodi:role="line"
               id="tspan4463">User script</tspan></text><text
             transform="translate(518.65625,667)"
             style="font-variant:normal;font-weight:normal;font-size:12px;font-family:Arial;-inkscape-font-specification:ArialMT;writing-mode:lr-tb;fill:#000000;fill-opacity:1;fill-rule:nonzero;stroke:none"
             id="text4469"><tspan
               x="0 3.9960938 10.664062 16.664062 23.337891 30.011719 36.011719 42.011719 46.007812 48.673828 55.347656 58.681641"
               y="0"
               sodipodi:role="line"
               id="tspan4467">(Typescript)</tspan></text></g><g
           id="g4471"
           transform="matrix(2.9991949,0,0,2.9991949,1.4995974,1.4995974)"><path
             d="m 450,980 h 70 v 20 h -70 z"
             style="fill:url(#linearGradient4477);fill-opacity:1;fill-rule:nonzero;stroke:none"
             id="path4479" /><path
             d="m 450,980 h 70 v 20 h -70 z"
             style="fill:none;stroke:#000000;stroke-width:1;stroke-linecap:butt;stroke-linejoin:miter;stroke-miterlimit:10;stroke-dasharray:none;stroke-opacity:1"
             id="path4481" /></g><g
           id="g4483"
           transform="scale(2.9991949)"><text
             transform="translate(457.32813,995)"
             style="font-variant:normal;font-weight:normal;font-size:12px;font-family:Arial;-inkscape-font-specification:ArialMT;writing-mode:lr-tb;fill:#000000;fill-opacity:1;fill-rule:nonzero;stroke:none"
             id="text4487"><tspan
               x="0 8.0039062 10.669922 20.666016 27.339844 30.005859 36.679688 42.679688 45.345703"
               y="0"
               sodipodi:role="line"
               id="tspan4485">Simplesim</tspan></text></g><g
           id="g4489"
           transform="matrix(2.9991949,0,0,2.9991949,1.4995974,1.4995974)"><path
             d="m 530,980 h 70 v 20 h -70 z"
             style="fill:#b9e0a5;fill-opacity:1;fill-rule:nonzero;stroke:none"
             id="path4491" /><path
             d="m 530,980 h 70 v 20 h -70 z"
             style="fill:none;stroke:#000000;stroke-width:1;stroke-linecap:butt;stroke-linejoin:miter;stroke-miterlimit:10;stroke-dasharray:none;stroke-opacity:1"
             id="path4493" /></g><g
           id="g4495"
           transform="scale(2.9991949)"><text
             transform="translate(534.64063,995)"
             style="font-variant:normal;font-weight:normal;font-size:12px;font-family:Arial;-inkscape-font-specification:ArialMT;writing-mode:lr-tb;fill:#000000;fill-opacity:1;fill-rule:nonzero;stroke:none"
             id="text4499"><tspan
               x="0 9.3339844 16.007812 22.007812 28.681641 35.355469 42.029297 48.029297 50.695312"
               y="0"
               sodipodi:role="line"
               id="tspan4497">Gazebosim</tspan></text><path
             d="M 160,860 H 610"
             style="fill:none;stroke:#000000;stroke-width:2.45899;stroke-linecap:butt;stroke-linejoin:miter;stroke-miterlimit:10;stroke-dasharray:none;stroke-opacity:1"
             id="path4501" /></g></g></g></g></svg>
