<svg width="1920" height="218.4" xmlns="http://www.w3.org/2000/svg"><g><path
d="M-9.132703553413364,-67.72945510704162L-72.7398875498356,75.24330353151612L78.11662971494759,15.790967191146922Z"
fill="#fff03b" stroke="#fff03b"/><path
d="M-9.132703553413364,-67.72945510704162L78.11662971494759,15.790967191146922L52.7682634775356,-70.0662039337067Z"
fill="#fff03b" stroke="#fff03b"/><path
d="M52.7682634775356,-70.0662039337067L78.11662971494759,15.790967191146922L108.44634200702865,-65.86009141906072Z"
fill="#ffef3b" stroke="#ffef3b"/><path
d="M52.7682634775356,-70.0662039337067L108.44634200702865,-65.86009141906072L571.7714883354554,-61.3643954741552Z"
fill="#ffeb3b" stroke="#ffeb3b"/><path
d="M52.7682634775356,-70.0662039337067L571.7714883354554,-61.3643954741552L1004.3806487907101,-70.29521561905027Z"
fill="#ffe43b" stroke="#ffe43b"/><path
d="M52.7682634775356,-70.0662039337067L1004.3806487907101,-70.29521561905027L1284.0030010026005,-78.94100076576856Z"
fill="#ffde3b" stroke="#ffde3b"/><path
d="M108.44634200702865,-65.86009141906072L78.11662971494759,15.790967191146922L167.01627254039562,50.53370599911182Z"
fill="#ffee3b" stroke="#ffee3b"/><path
d="M108.44634200702865,-65.86009141906072L167.01627254039562,50.53370599911182L234.89237923506442,-43.559846210842Z"
fill="#ffed3b" stroke="#ffed3b"/><path
d="M108.44634200702865,-65.86009141906072L234.89237923506442,-43.559846210842L426.80550820557085,-50.94346242342483Z"
fill="#ffeb3b" stroke="#ffeb3b"/><path
d="M108.44634200702865,-65.86009141906072L426.80550820557085,-50.94346242342483L571.7714883354554,-61.3643954741552Z"
fill="#ffe83b" stroke="#ffe83b"/><path
d="M234.89237923506442,-43.559846210842L167.01627254039562,50.53370599911182L194.49430084766644,61.54517180719415Z"
fill="#ffe83b" stroke="#ffe83b"/><path
d="M234.89237923506442,-43.559846210842L194.49430084766644,61.54517180719415L295.6456481446941,14.454939988987718Z"
fill="#ffe93b" stroke="#ffe93b"/><path
d="M234.89237923506442,-43.559846210842L295.6456481446941,14.454939988987718L336.79888275752256,-20.42046296649083Z"
fill="#ffea3b" stroke="#ffea3b"/><path
d="M234.89237923506442,-43.559846210842L336.79888275752256,-20.42046296649083L426.80550820557085,-50.94346242342483Z"
fill="#ffe93b" stroke="#ffe93b"/><path
d="M336.79888275752256,-20.42046296649083L295.6456481446941,14.454939988987718L418.8176216064494,37.343205431854074Z"
fill="#ffe73b" stroke="#ffe73b"/><path
d="M336.79888275752256,-20.42046296649083L418.8176216064494,37.343205431854074L426.80550820557085,-50.94346242342483Z"
fill="#ffe83b" stroke="#ffe83b"/><path
d="M426.80550820557085,-50.94346242342483L418.8176216064494,37.343205431854074L483.7174610741505,-33.72517276367605Z"
fill="#ffe63b" stroke="#ffe63b"/><path
d="M426.80550820557085,-50.94346242342483L483.7174610741505,-33.72517276367605L571.7714883354554,-61.3643954741552Z"
fill="#ffe53b" stroke="#ffe53b"/><path
d="M483.7174610741505,-33.72517276367605L418.8176216064494,37.343205431854074L478.7076150910397,45.92342144858928Z"
fill="#ffe33b" stroke="#ffe33b"/><path
d="M483.7174610741505,-33.72517276367605L478.7076150910397,45.92342144858928L562.7427840811167,72.02474778739102Z"
fill="#ffe03b" stroke="#ffe03b"/><path
d="M483.7174610741505,-33.72517276367605L562.7427840811167,72.02474778739102L571.7714883354554,-61.3643954741552Z"
fill="#ffe43b" stroke="#ffe43b"/><path
d="M571.7714883354554,-61.3643954741552L562.7427840811167,72.02474778739102L655.1205325728965,-25.44309377185204Z"
fill="#ffe33b" stroke="#ffe33b"/><path
d="M571.7714883354554,-61.3643954741552L655.1205325728965,-25.44309377185204L788.1470018745819,-45.678633939709734Z"
fill="#ffe13b" stroke="#ffe13b"/><path
d="M571.7714883354554,-61.3643954741552L788.1470018745819,-45.678633939709734L1004.3806487907101,-70.29521561905027Z"
fill="#ffde3b" stroke="#ffde3b"/><path
d="M655.1205325728965,-25.44309377185204L562.7427840811167,72.02474778739102L645.476218075373,118.99830735419766Z"
fill="#ffd83b" stroke="#ffd83b"/><path
d="M655.1205325728965,-25.44309377185204L645.476218075373,118.99830735419766L707.7446234593874,11.232825934358916Z"
fill="#ffda3b" stroke="#ffda3b"/><path
d="M655.1205325728965,-25.44309377185204L707.7446234593874,11.232825934358916L788.1470018745819,-45.678633939709734Z"
fill="#ffe03b" stroke="#ffe03b"/><path
d="M788.1470018745819,-45.678633939709734L707.7446234593874,11.232825934358916L774.4871348269041,26.214439837211245Z"
fill="#ffdf3b" stroke="#ffdf3b"/><path
d="M788.1470018745819,-45.678633939709734L774.4871348269041,26.214439837211245L841.1930512591181,-19.146063636479617Z"
fill="#ffde3b" stroke="#ffde3b"/><path
d="M788.1470018745819,-45.678633939709734L841.1930512591181,-19.146063636479617L1004.3806487907101,-70.29521561905027Z"
fill="#ffdc3b" stroke="#ffdc3b"/><path
d="M841.1930512591181,-19.146063636479617L774.4871348269041,26.214439837211245L863.515537355322,36.91509032920717Z"
fill="#ffdb3b" stroke="#ffdb3b"/><path
d="M841.1930512591181,-19.146063636479617L863.515537355322,36.91509032920717L922.0449842758345,23.801901122567557Z"
fill="#ffd93b" stroke="#ffd93b"/><path
d="M841.1930512591181,-19.146063636479617L922.0449842758345,23.801901122567557L973.6839589802388,-12.49771382842276Z"
fill="#ffdb3b" stroke="#ffdb3b"/><path
d="M841.1930512591181,-19.146063636479617L973.6839589802388,-12.49771382842276L1004.3806487907101,-70.29521561905027Z"
fill="#ffda3b" stroke="#ffda3b"/><path
d="M973.6839589802388,-12.49771382842276L922.0449842758345,23.801901122567557L1009.0268373660845,56.5527998757002Z"
fill="#ffd63b" stroke="#ffd63b"/><path
d="M973.6839589802388,-12.49771382842276L1009.0268373660845,56.5527998757002L1103.503051984021,-51.40019285062468Z"
fill="#ffd83b" stroke="#ffd83b"/><path
d="M973.6839589802388,-12.49771382842276L1103.503051984021,-51.40019285062468L1004.3806487907101,-70.29521561905027Z"
fill="#ffd83b" stroke="#ffd83b"/><path
d="M1004.3806487907101,-70.29521561905027L1103.503051984021,-51.40019285062468L1284.0030010026005,-78.94100076576856Z"
fill="#ffd63b" stroke="#ffd63b"/><path
d="M1103.503051984021,-51.40019285062468L1009.0268373660845,56.5527998757002L1142.9638670710476,19.976888418822682Z"
fill="#ffd53b" stroke="#ffd53b"/><path
d="M1103.503051984021,-51.40019285062468L1142.9638670710476,19.976888418822682L1216.158550099467,-9.482436483081514Z"
fill="#ffd53b" stroke="#ffd53b"/><path
d="M1103.503051984021,-51.40019285062468L1216.158550099467,-9.482436483081514L1284.0030010026005,-78.94100076576856Z"
fill="#ffd43b" stroke="#ffd43b"/><path
d="M1216.158550099467,-9.482436483081514L1142.9638670710476,19.976888418822682L1228.3533944663418,28.765097856799883Z"
fill="#ffd13b" stroke="#ffd13b"/><path
d="M1216.158550099467,-9.482436483081514L1228.3533944663418,28.765097856799883L1284.0030010026005,-78.94100076576856Z"
fill="#ffd33b" stroke="#ffd33b"/><path
d="M1284.0030010026005,-78.94100076576856L1228.3533944663418,28.765097856799883L1276.9929910900712,69.77980478080346Z"
fill="#ffd13b" stroke="#ffd13b"/><path
d="M1284.0030010026005,-78.94100076576856L1276.9929910900712,69.77980478080346L1393.8429876312214,-31.228021448455408Z"
fill="#ffd13b" stroke="#ffd13b"/><path
d="M1284.0030010026005,-78.94100076576856L1393.8429876312214,-31.228021448455408L1519.0975301394424,-45.044123742766516Z"
fill="#ffcf3b" stroke="#ffcf3b"/><path
d="M1284.0030010026005,-78.94100076576856L1519.0975301394424,-45.044123742766516L1601.8793250519261,-45.99415231576933Z"
fill="#ffcd3b" stroke="#ffcd3b"/><path
d="M1284.0030010026005,-78.94100076576856L1601.8793250519261,-45.99415231576933L1856.822537876446,-79.68585157052318Z"
fill="#ffcb3b" stroke="#ffcb3b"/><path
d="M1393.8429876312214,-31.228021448455408L1276.9929910900712,69.77980478080346L1414.171194088347,54.94679615955344Z"
fill="#ffca3b" stroke="#ffca3b"/><path
d="M1393.8429876312214,-31.228021448455408L1414.171194088347,54.94679615955344L1473.7046315285154,47.02028662276796Z"
fill="#ffca3b" stroke="#ffca3b"/><path
d="M1393.8429876312214,-31.228021448455408L1473.7046315285154,47.02028662276796L1519.0975301394424,-45.044123742766516Z"
fill="#ffcd3b" stroke="#ffcd3b"/><path
d="M1519.0975301394424,-45.044123742766516L1473.7046315285154,47.02028662276796L1600.3517164055918,60.634067771774085Z"
fill="#ffc83b" stroke="#ffc83b"/><path
d="M1519.0975301394424,-45.044123742766516L1600.3517164055918,60.634067771774085L1601.8793250519261,-45.99415231576933Z"
fill="#ffcb3b" stroke="#ffcb3b"/><path
d="M1601.8793250519261,-45.99415231576933L1600.3517164055918,60.634067771774085L1643.8032046624878,62.93429865109208Z"
fill="#ffc53b" stroke="#ffc53b"/><path
d="M1601.8793250519261,-45.99415231576933L1643.8032046624878,62.93429865109208L1700.1816762332514,-25.805474816459707Z"
fill="#ffc93b" stroke="#ffc93b"/><path
d="M1601.8793250519261,-45.99415231576933L1700.1816762332514,-25.805474816459707L1856.822537876446,-79.68585157052318Z"
fill="#ffc73b" stroke="#ffc73b"/><path
d="M1700.1816762332514,-25.805474816459707L1643.8032046624878,62.93429865109208L1746.755480975277,63.51644421621182Z"
fill="#ffc23b" stroke="#ffc23b"/><path
d="M1700.1816762332514,-25.805474816459707L1746.755480975277,63.51644421621182L1725.8461829926803,-23.32900370442089Z"
fill="#ffc63b" stroke="#ffc63b"/><path
d="M1700.1816762332514,-25.805474816459707L1725.8461829926803,-23.32900370442089L1856.822537876446,-79.68585157052318Z"
fill="#ffc63b" stroke="#ffc63b"/><path
d="M1725.8461829926803,-23.32900370442089L1746.755480975277,63.51644421621182L1863.8848918797605,21.91811242710066Z"
fill="#ffc23b" stroke="#ffc23b"/><path
d="M1725.8461829926803,-23.32900370442089L1863.8848918797605,21.91811242710066L1856.822537876446,-79.68585157052318Z"
fill="#ffc53b" stroke="#ffc53b"/><path
d="M1856.822537876446,-79.68585157052318L1863.8848918797605,21.91811242710066L1908.0123558198304,-25.224644682596463Z"
fill="#ffc33b" stroke="#ffc33b"/><path
d="M1856.822537876446,-79.68585157052318L1908.0123558198304,-25.224644682596463L1993.0502807244627,-24.46265598173386Z"
fill="#ffc23b" stroke="#ffc23b"/><path
d="M1908.0123558198304,-25.224644682596463L1863.8848918797605,21.91811242710066L1907.3825936734236,56.685381319554914Z"
fill="#ffbf3b" stroke="#ffbf3b"/><path
d="M1908.0123558198304,-25.224644682596463L1907.3825936734236,56.685381319554914L1993.0502807244627,-24.46265598173386Z"
fill="#ffc13b" stroke="#ffc13b"/><path
d="M1993.0502807244627,-24.46265598173386L1907.3825936734236,56.685381319554914L2054.8509381465874,48.76854063963059Z"
fill="#ffbc3b" stroke="#ffbc3b"/><path
d="M-72.7398875498356,75.24330353151612L-58.469911401952075,329.792545216963L-41.08692225595938,193.61357967334868Z"
fill="#ffce3b" stroke="#ffce3b"/><path
d="M-72.7398875498356,75.24330353151612L-41.08692225595938,193.61357967334868L-31.86241331123081,162.76992492687216Z"
fill="#ffd83b" stroke="#ffd83b"/><path
d="M-72.7398875498356,75.24330353151612L-31.86241331123081,162.76992492687216L54.34053262775805,140.64476545294775Z"
fill="#ffdb3b" stroke="#ffdb3b"/><path
d="M-72.7398875498356,75.24330353151612L54.34053262775805,140.64476545294775L78.11662971494759,15.790967191146922Z"
fill="#ffe33b" stroke="#ffe33b"/><path
d="M78.11662971494759,15.790967191146922L54.34053262775805,140.64476545294775L112.58428591743001,126.45723529868657Z"
fill="#ffde3b" stroke="#ffde3b"/><path
d="M78.11662971494759,15.790967191146922L112.58428591743001,126.45723529868657L167.01627254039562,50.53370599911182Z"
fill="#ffe23b" stroke="#ffe23b"/><path
d="M167.01627254039562,50.53370599911182L112.58428591743001,126.45723529868657L194.49430084766644,61.54517180719415Z"
fill="#ffdf3b" stroke="#ffdf3b"/><path
d="M194.49430084766644,61.54517180719415L112.58428591743001,126.45723529868657L233.7964251189617,123.92283425610016Z"
fill="#ffda3b" stroke="#ffda3b"/><path
d="M194.49430084766644,61.54517180719415L233.7964251189617,123.92283425610016L295.6456481446941,14.454939988987718Z"
fill="#ffdf3b" stroke="#ffdf3b"/><path
d="M295.6456481446941,14.454939988987718L233.7964251189617,123.92283425610016L310.7745184310088,127.55682538953585Z"
fill="#ffda3b" stroke="#ffda3b"/><path
d="M295.6456481446941,14.454939988987718L310.7745184310088,127.55682538953585L418.8176216064494,37.343205431854074Z"
fill="#ffde3b" stroke="#ffde3b"/><path
d="M418.8176216064494,37.343205431854074L310.7745184310088,127.55682538953585L417.6641011097226,166.4298261469511Z"
fill="#ffd43b" stroke="#ffd43b"/><path
d="M418.8176216064494,37.343205431854074L417.6641011097226,166.4298261469511L477.5247689334055,141.66635134487456Z"
fill="#ffd23b" stroke="#ffd23b"/><path
d="M418.8176216064494,37.343205431854074L477.5247689334055,141.66635134487456L478.7076150910397,45.92342144858928Z"
fill="#ffd93b" stroke="#ffd93b"/><path
d="M478.7076150910397,45.92342144858928L477.5247689334055,141.66635134487456L562.7427840811167,72.02474778739102Z"
fill="#ffd53b" stroke="#ffd53b"/><path
d="M562.7427840811167,72.02474778739102L477.5247689334055,141.66635134487456L555.852791525027,210.8379784001328Z"
fill="#ffca3b" stroke="#ffca3b"/><path
d="M562.7427840811167,72.02474778739102L555.852791525027,210.8379784001328L616.9056113961936,170.56252610048358Z"
fill="#ffc83b" stroke="#ffc83b"/><path
d="M562.7427840811167,72.02474778739102L616.9056113961936,170.56252610048358L645.476218075373,118.99830735419766Z"
fill="#ffcc3b" stroke="#ffcc3b"/><path
d="M707.7446234593874,11.232825934358916L645.476218075373,118.99830735419766L798.7314833683827,108.24760061774492Z"
fill="#ffd13b" stroke="#ffd13b"/><path
d="M707.7446234593874,11.232825934358916L798.7314833683827,108.24760061774492L774.4871348269041,26.214439837211245Z"
fill="#ffd63b" stroke="#ffd63b"/><path
d="M774.4871348269041,26.214439837211245L798.7314833683827,108.24760061774492L863.515537355322,36.91509032920717Z"
fill="#ffd33b" stroke="#ffd33b"/><path
d="M863.515537355322,36.91509032920717L798.7314833683827,108.24760061774492L850.2068086036701,117.66120570423004Z"
fill="#ffcd3b" stroke="#ffcd3b"/><path
d="M863.515537355322,36.91509032920717L850.2068086036701,117.66120570423004L940.1104596396552,130.0753291567157Z"
fill="#ffca3b" stroke="#ffca3b"/><path
d="M863.515537355322,36.91509032920717L940.1104596396552,130.0753291567157L922.0449842758345,23.801901122567557Z"
fill="#ffd03b" stroke="#ffd03b"/><path
d="M922.0449842758345,23.801901122567557L940.1104596396552,130.0753291567157L1009.0268373660845,56.5527998757002Z"
fill="#ffcd3b" stroke="#ffcd3b"/><path
d="M1009.0268373660845,56.5527998757002L940.1104596396552,130.0753291567157L1055.6452141619038,147.1085304500183Z"
fill="#ffc43b" stroke="#ffc43b"/><path
d="M1009.0268373660845,56.5527998757002L1055.6452141619038,147.1085304500183L1115.5281220599516,134.52718056560036Z"
fill="#ffc33b" stroke="#ffc33b"/><path
d="M1009.0268373660845,56.5527998757002L1115.5281220599516,134.52718056560036L1142.9638670710476,19.976888418822682Z"
fill="#ffca3b" stroke="#ffca3b"/><path
d="M1142.9638670710476,19.976888418822682L1115.5281220599516,134.52718056560036L1186.8430901576503,136.04038989244216Z"
fill="#ffc43b" stroke="#ffc43b"/><path
d="M1142.9638670710476,19.976888418822682L1186.8430901576503,136.04038989244216L1228.3533944663418,28.765097856799883Z"
fill="#ffc93b" stroke="#ffc93b"/><path
d="M1228.3533944663418,28.765097856799883L1186.8430901576503,136.04038989244216L1276.9929910900712,69.77980478080346Z"
fill="#ffc53b" stroke="#ffc53b"/><path
d="M1276.9929910900712,69.77980478080346L1186.8430901576503,136.04038989244216L1283.274497160309,146.99266813088684Z"
fill="#ffbd3b" stroke="#ffbd3b"/><path
d="M1276.9929910900712,69.77980478080346L1283.274497160309,146.99266813088684L1397.634152990626,100.02392686595623Z"
fill="#ffbd3b" stroke="#ffbd3b"/><path
d="M1276.9929910900712,69.77980478080346L1397.634152990626,100.02392686595623L1414.171194088347,54.94679615955344Z"
fill="#ffc23b" stroke="#ffc23b"/><path
d="M1414.171194088347,54.94679615955344L1397.634152990626,100.02392686595623L1473.7046315285154,47.02028662276796Z"
fill="#ffc23b" stroke="#ffc23b"/><path
d="M1473.7046315285154,47.02028662276796L1397.634152990626,100.02392686595623L1479.8298503259332,151.31771703883555Z"
fill="#ffbc3b" stroke="#ffbc3b"/><path
d="M1473.7046315285154,47.02028662276796L1479.8298503259332,151.31771703883555L1592.020598188288,132.01304442775327Z"
fill="#ffb83b" stroke="#ffb83b"/><path
d="M1473.7046315285154,47.02028662276796L1592.020598188288,132.01304442775327L1600.3517164055918,60.634067771774085Z"
fill="#ffbd3b" stroke="#ffbd3b"/><path
d="M1600.3517164055918,60.634067771774085L1592.020598188288,132.01304442775327L1643.8032046624878,62.93429865109208Z"
fill="#ffba3b" stroke="#ffba3b"/><path
d="M1643.8032046624878,62.93429865109208L1592.020598188288,132.01304442775327L1697.5910473248698,114.95348519092823Z"
fill="#ffb63b" stroke="#ffb63b"/><path
d="M1643.8032046624878,62.93429865109208L1697.5910473248698,114.95348519092823L1746.755480975277,63.51644421621182Z"
fill="#ffb93b" stroke="#ffb93b"/><path
d="M1746.755480975277,63.51644421621182L1697.5910473248698,114.95348519092823L1771.6558951862341,137.78878533013537Z"
fill="#ffb33b" stroke="#ffb33b"/><path
d="M1746.755480975277,63.51644421621182L1771.6558951862341,137.78878533013537L1861.2686537630302,102.64451898263277Z"
fill="#ffb33b" stroke="#ffb33b"/><path
d="M1746.755480975277,63.51644421621182L1861.2686537630302,102.64451898263277L1863.8848918797605,21.91811242710066Z"
fill="#ffb93b" stroke="#ffb93b"/><path
d="M1863.8848918797605,21.91811242710066L1861.2686537630302,102.64451898263277L1907.3825936734236,56.685381319554914Z"
fill="#ffb83b" stroke="#ffb83b"/><path
d="M1907.3825936734236,56.685381319554914L1861.2686537630302,102.64451898263277L1959.7549818398884,151.15125356057047Z"
fill="#ffb03b" stroke="#ffb03b"/><path
d="M1907.3825936734236,56.685381319554914L1959.7549818398884,151.15125356057047L2021.632270577946,126.06214722964677Z"
fill="#ffad3b" stroke="#ffad3b"/><path
d="M1907.3825936734236,56.685381319554914L2021.632270577946,126.06214722964677L2054.8509381465874,48.76854063963059Z"
fill="#ffb23b" stroke="#ffb23b"/><path
d="M2054.8509381465874,48.76854063963059L2021.632270577946,126.06214722964677L2055.3413908869643,304.00021372275955Z"
fill="#ffa23b" stroke="#ffa23b"/><path
d="M-31.86241331123081,162.76992492687216L-41.08692225595938,193.61357967334868L44.08377353370247,201.59189629924566Z"
fill="#ffcf3b" stroke="#ffcf3b"/><path
d="M-31.86241331123081,162.76992492687216L44.08377353370247,201.59189629924566L54.34053262775805,140.64476545294775Z"
fill="#ffd23b" stroke="#ffd23b"/><path
d="M54.34053262775805,140.64476545294775L44.08377353370247,201.59189629924566L112.58428591743001,126.45723529868657Z"
fill="#ffd33b" stroke="#ffd33b"/><path
d="M112.58428591743001,126.45723529868657L44.08377353370247,201.59189629924566L115.46453548400578,238.46846344715948Z"
fill="#ffcd3b" stroke="#ffcd3b"/><path
d="M112.58428591743001,126.45723529868657L115.46453548400578,238.46846344715948L213.6312597796613,193.65525836092942Z"
fill="#ffcc3b" stroke="#ffcc3b"/><path
d="M112.58428591743001,126.45723529868657L213.6312597796613,193.65525836092942L233.7964251189617,123.92283425610016Z"
fill="#ffd23b" stroke="#ffd23b"/><path
d="M233.7964251189617,123.92283425610016L213.6312597796613,193.65525836092942L310.7745184310088,127.55682538953585Z"
fill="#ffd03b" stroke="#ffd03b"/><path
d="M310.7745184310088,127.55682538953585L213.6312597796613,193.65525836092942L315.8201360314394,237.90734980854637Z"
fill="#ffc83b" stroke="#ffc83b"/><path
d="M310.7745184310088,127.55682538953585L315.8201360314394,237.90734980854637L388.86829730494065,193.4196701521706Z"
fill="#ffc73b" stroke="#ffc73b"/><path
d="M310.7745184310088,127.55682538953585L388.86829730494065,193.4196701521706L417.6641011097226,166.4298261469511Z"
fill="#ffca3b" stroke="#ffca3b"/><path
d="M417.6641011097226,166.4298261469511L388.86829730494065,193.4196701521706L512.3451458011922,238.87117492292538Z"
fill="#ffc23b" stroke="#ffc23b"/><path
d="M417.6641011097226,166.4298261469511L512.3451458011922,238.87117492292538L477.5247689334055,141.66635134487456Z"
fill="#ffc43b" stroke="#ffc43b"/><path
d="M477.5247689334055,141.66635134487456L512.3451458011922,238.87117492292538L555.852791525027,210.8379784001328Z"
fill="#ffc13b" stroke="#ffc13b"/><path
d="M616.9056113961936,170.56252610048358L555.852791525027,210.8379784001328L612.6283269270494,313.57175937793465Z"
fill="#ffb83b" stroke="#ffb83b"/><path
d="M616.9056113961936,170.56252610048358L612.6283269270494,313.57175937793465L699.1786122342024,224.1101494158346Z"
fill="#ffb73b" stroke="#ffb73b"/><path
d="M616.9056113961936,170.56252610048358L699.1786122342024,224.1101494158346L645.476218075373,118.99830735419766Z"
fill="#ffc23b" stroke="#ffc23b"/><path
d="M645.476218075373,118.99830735419766L699.1786122342024,224.1101494158346L747.1143772139792,224.738184337237Z"
fill="#ffbe3b" stroke="#ffbe3b"/><path
d="M645.476218075373,118.99830735419766L747.1143772139792,224.738184337237L798.7314833683827,108.24760061774492Z"
fill="#ffc43b" stroke="#ffc43b"/><path
d="M798.7314833683827,108.24760061774492L747.1143772139792,224.738184337237L834.1810973831507,205.17889123731146Z"
fill="#ffbd3b" stroke="#ffbd3b"/><path
d="M798.7314833683827,108.24760061774492L834.1810973831507,205.17889123731146L850.2068086036701,117.66120570423004Z"
fill="#ffc23b" stroke="#ffc23b"/><path
d="M850.2068086036701,117.66120570423004L834.1810973831507,205.17889123731146L940.1104596396552,130.0753291567157Z"
fill="#ffc03b" stroke="#ffc03b"/><path
d="M940.1104596396552,130.0753291567157L834.1810973831507,205.17889123731146L964.9786016013637,222.94837638756616Z"
fill="#ffb93b" stroke="#ffb93b"/><path
d="M940.1104596396552,130.0753291567157L964.9786016013637,222.94837638756616L1032.8708219765654,198.12091937083812Z"
fill="#ffb83b" stroke="#ffb83b"/><path
d="M940.1104596396552,130.0753291567157L1032.8708219765654,198.12091937083812L1055.6452141619038,147.1085304500183Z"
fill="#ffbc3b" stroke="#ffbc3b"/><path
d="M1055.6452141619038,147.1085304500183L1032.8708219765654,198.12091937083812L1119.235810099503,235.93120702647005Z"
fill="#ffb43b" stroke="#ffb43b"/><path
d="M1055.6452141619038,147.1085304500183L1119.235810099503,235.93120702647005L1115.5281220599516,134.52718056560036Z"
fill="#ffb73b" stroke="#ffb73b"/><path
d="M1115.5281220599516,134.52718056560036L1119.235810099503,235.93120702647005L1186.8430901576503,136.04038989244216Z"
fill="#ffb63b" stroke="#ffb63b"/><path
d="M1186.8430901576503,136.04038989244216L1119.235810099503,235.93120702647005L1242.0825878003172,199.28070874125976Z"
fill="#ffb13b" stroke="#ffb13b"/><path
d="M1186.8430901576503,136.04038989244216L1242.0825878003172,199.28070874125976L1283.274497160309,146.99266813088684Z"
fill="#ffb53b" stroke="#ffb53b"/><path
d="M1283.274497160309,146.99266813088684L1242.0825878003172,199.28070874125976L1282.897224080448,239.20109643197597Z"
fill="#ffaf3b" stroke="#ffaf3b"/><path
d="M1283.274497160309,146.99266813088684L1282.897224080448,239.20109643197597L1419.431459442147,258.2990333175196Z"
fill="#ffa93b" stroke="#ffa93b"/><path
d="M1283.274497160309,146.99266813088684L1419.431459442147,258.2990333175196L1397.634152990626,100.02392686595623Z"
fill="#ffb13b" stroke="#ffb13b"/><path
d="M1397.634152990626,100.02392686595623L1419.431459442147,258.2990333175196L1479.8298503259332,151.31771703883555Z"
fill="#ffaf3b" stroke="#ffaf3b"/><path
d="M1479.8298503259332,151.31771703883555L1419.431459442147,258.2990333175196L1505.8959009738758,205.87976360872992Z"
fill="#ffa83b" stroke="#ffa83b"/><path
d="M1479.8298503259332,151.31771703883555L1505.8959009738758,205.87976360872992L1553.9127367645742,209.40880613813385Z"
fill="#ffaa3b" stroke="#ffaa3b"/><path
d="M1479.8298503259332,151.31771703883555L1553.9127367645742,209.40880613813385L1592.020598188288,132.01304442775327Z"
fill="#ffae3b" stroke="#ffae3b"/><path
d="M1592.020598188288,132.01304442775327L1553.9127367645742,209.40880613813385L1666.6799895607453,242.78505804020648Z"
fill="#ffa63b" stroke="#ffa63b"/><path
d="M1592.020598188288,132.01304442775327L1666.6799895607453,242.78505804020648L1697.5910473248698,114.95348519092823Z"
fill="#ffab3b" stroke="#ffab3b"/><path
d="M1697.5910473248698,114.95348519092823L1666.6799895607453,242.78505804020648L1723.1869858106688,217.21625376465056Z"
fill="#ffa53b" stroke="#ffa53b"/><path
d="M1697.5910473248698,114.95348519092823L1723.1869858106688,217.21625376465056L1771.6558951862341,137.78878533013537Z"
fill="#ffaa3b" stroke="#ffaa3b"/><path
d="M1771.6558951862341,137.78878533013537L1723.1869858106688,217.21625376465056L1837.8710321665308,202.52710703879814Z"
fill="#ffa43b" stroke="#ffa43b"/><path
d="M1771.6558951862341,137.78878533013537L1837.8710321665308,202.52710703879814L1861.2686537630302,102.64451898263277Z"
fill="#ffaa3b" stroke="#ffaa3b"/><path
d="M1861.2686537630302,102.64451898263277L1837.8710321665308,202.52710703879814L1959.7549818398884,151.15125356057047Z"
fill="#ffa73b" stroke="#ffa73b"/><path
d="M1959.7549818398884,151.15125356057047L1837.8710321665308,202.52710703879814L1959.419968142357,243.67941614683454Z"
fill="#ff9e3b" stroke="#ff9e3b"/><path
d="M1959.7549818398884,151.15125356057047L1959.419968142357,243.67941614683454L2009.6049708843427,227.8789930707322Z"
fill="#ff9b3b" stroke="#ff9b3b"/><path
d="M1959.7549818398884,151.15125356057047L2009.6049708843427,227.8789930707322L2021.632270577946,126.06214722964677Z"
fill="#ffa13b" stroke="#ffa13b"/><path
d="M2021.632270577946,126.06214722964677L2009.6049708843427,227.8789930707322L2055.3413908869643,304.00021372275955Z"
fill="#ff983b" stroke="#ff983b"/><path
d="M-41.08692225595938,193.61357967334868L-58.469911401952075,329.792545216963L44.08377353370247,201.59189629924566Z"
fill="#ffc53b" stroke="#ffc53b"/><path
d="M44.08377353370247,201.59189629924566L-58.469911401952075,329.792545216963L76.81991745027707,295.3139805703113Z"
fill="#ffbe3b" stroke="#ffbe3b"/><path
d="M44.08377353370247,201.59189629924566L76.81991745027707,295.3139805703113L115.46453548400578,238.46846344715948Z"
fill="#ffc23b" stroke="#ffc23b"/><path
d="M115.46453548400578,238.46846344715948L76.81991745027707,295.3139805703113L116.15747704816246,295.4227429945762Z"
fill="#ffbc3b" stroke="#ffbc3b"/><path
d="M115.46453548400578,238.46846344715948L116.15747704816246,295.4227429945762L253.02644829026377,279.49603137387066Z"
fill="#ffbc3b" stroke="#ffbc3b"/><path
d="M115.46453548400578,238.46846344715948L253.02644829026377,279.49603137387066L213.6312597796613,193.65525836092942Z"
fill="#ffc13b" stroke="#ffc13b"/><path
d="M213.6312597796613,193.65525836092942L253.02644829026377,279.49603137387066L315.8201360314394,237.90734980854637Z"
fill="#ffbf3b" stroke="#ffbf3b"/><path
d="M315.8201360314394,237.90734980854637L253.02644829026377,279.49603137387066L300.04811089597484,344.8798567444811Z"
fill="#ffb63b" stroke="#ffb63b"/><path
d="M315.8201360314394,237.90734980854637L300.04811089597484,344.8798567444811L435.305531161039,332.54719804438207Z"
fill="#ffb13b" stroke="#ffb13b"/><path
d="M315.8201360314394,237.90734980854637L435.305531161039,332.54719804438207L388.86829730494065,193.4196701521706Z"
fill="#ffb93b" stroke="#ffb93b"/><path
d="M388.86829730494065,193.4196701521706L435.305531161039,332.54719804438207L512.3451458011922,238.87117492292538Z"
fill="#ffb83b" stroke="#ffb83b"/><path
d="M512.3451458011922,238.87117492292538L435.305531161039,332.54719804438207L528.2915494587735,310.7705745664864Z"
fill="#ffaf3b" stroke="#ffaf3b"/><path
d="M512.3451458011922,238.87117492292538L528.2915494587735,310.7705745664864L555.852791525027,210.8379784001328Z"
fill="#ffb63b" stroke="#ffb63b"/><path
d="M555.852791525027,210.8379784001328L528.2915494587735,310.7705745664864L612.6283269270494,313.57175937793465Z"
fill="#ffb03b" stroke="#ffb03b"/><path
d="M699.1786122342024,224.1101494158346L612.6283269270494,313.57175937793465L651.6966136902902,339.987438231052Z"
fill="#ffac3b" stroke="#ffac3b"/><path
d="M699.1786122342024,224.1101494158346L651.6966136902902,339.987438231052L787.4460573634744,279.4211461905914Z"
fill="#ffac3b" stroke="#ffac3b"/><path
d="M699.1786122342024,224.1101494158346L787.4460573634744,279.4211461905914L747.1143772139792,224.738184337237Z"
fill="#ffb33b" stroke="#ffb33b"/><path
d="M747.1143772139792,224.738184337237L787.4460573634744,279.4211461905914L834.1810973831507,205.17889123731146Z"
fill="#ffb23b" stroke="#ffb23b"/><path
d="M834.1810973831507,205.17889123731146L787.4460573634744,279.4211461905914L834.7196843773595,333.6787744631726Z"
fill="#ffab3b" stroke="#ffab3b"/><path
d="M834.1810973831507,205.17889123731146L834.7196843773595,333.6787744631726L964.9786016013637,222.94837638756616Z"
fill="#ffad3b" stroke="#ffad3b"/><path
d="M964.9786016013637,222.94837638756616L834.7196843773595,333.6787744631726L961.0889565442304,343.83081679360544Z"
fill="#ffa43b" stroke="#ffa43b"/><path
d="M964.9786016013637,222.94837638756616L961.0889565442304,343.83081679360544L1040.5968114690183,324.727885810765Z"
fill="#ffa33b" stroke="#ffa33b"/><path
d="M964.9786016013637,222.94837638756616L1040.5968114690183,324.727885810765L1032.8708219765654,198.12091937083812Z"
fill="#ffab3b" stroke="#ffab3b"/><path
d="M1032.8708219765654,198.12091937083812L1040.5968114690183,324.727885810765L1119.235810099503,235.93120702647005Z"
fill="#ffa93b" stroke="#ffa93b"/><path
d="M1119.235810099503,235.93120702647005L1040.5968114690183,324.727885810765L1100.6028164392478,330.0182010690113Z"
fill="#ffa03b" stroke="#ffa03b"/><path
d="M1119.235810099503,235.93120702647005L1100.6028164392478,330.0182010690113L1236.3027678297542,311.62300916881884Z"
fill="#ffa03b" stroke="#ffa03b"/><path
d="M1119.235810099503,235.93120702647005L1236.3027678297542,311.62300916881884L1242.0825878003172,199.28070874125976Z"
fill="#ffa63b" stroke="#ffa63b"/><path
d="M1242.0825878003172,199.28070874125976L1236.3027678297542,311.62300916881884L1282.897224080448,239.20109643197597Z"
fill="#ffa53b" stroke="#ffa53b"/><path
d="M1282.897224080448,239.20109643197597L1236.3027678297542,311.62300916881884L1299.0291265497951,282.82029888826014Z"
fill="#ff9f3b" stroke="#ff9f3b"/><path
d="M1282.897224080448,239.20109643197597L1299.0291265497951,282.82029888826014L1419.431459442147,258.2990333175196Z"
fill="#ffa13b" stroke="#ffa13b"/><path
d="M1419.431459442147,258.2990333175196L1299.0291265497951,282.82029888826014L1406.8604862442435,334.6091312848472Z"
fill="#ff9a3b" stroke="#ff9a3b"/><path
d="M1419.431459442147,258.2990333175196L1406.8604862442435,334.6091312848472L1507.1299463924513,337.64524146986446Z"
fill="#ff953b" stroke="#ff953b"/><path
d="M1419.431459442147,258.2990333175196L1507.1299463924513,337.64524146986446L1505.8959009738758,205.87976360872992Z"
fill="#ff9c3b" stroke="#ff9c3b"/><path
d="M1505.8959009738758,205.87976360872992L1507.1299463924513,337.64524146986446L1553.9127367645742,209.40880613813385Z"
fill="#ff9e3b" stroke="#ff9e3b"/><path
d="M1553.9127367645742,209.40880613813385L1507.1299463924513,337.64524146986446L1568.0256426404208,336.83512524796174Z"
fill="#ff953b" stroke="#ff953b"/><path
d="M1553.9127367645742,209.40880613813385L1568.0256426404208,336.83512524796174L1632.2010352070245,309.6884508535909Z"
fill="#ff963b" stroke="#ff963b"/><path
d="M1553.9127367645742,209.40880613813385L1632.2010352070245,309.6884508535909L1666.6799895607453,242.78505804020648Z"
fill="#ff9b3b" stroke="#ff9b3b"/><path
d="M1666.6799895607453,242.78505804020648L1632.2010352070245,309.6884508535909L1789.8061261611613,332.36294033523455Z"
fill="#ff923b" stroke="#ff923b"/><path
d="M1666.6799895607453,242.78505804020648L1789.8061261611613,332.36294033523455L1723.1869858106688,217.21625376465056Z"
fill="#ff963b" stroke="#ff963b"/><path
d="M1723.1869858106688,217.21625376465056L1789.8061261611613,332.36294033523455L1837.8710321665308,202.52710703879814Z"
fill="#ff983b" stroke="#ff983b"/><path
d="M1837.8710321665308,202.52710703879814L1789.8061261611613,332.36294033523455L1836.9120381451007,342.4248897695173Z"
fill="#ff8f3b" stroke="#ff8f3b"/><path
d="M1837.8710321665308,202.52710703879814L1836.9120381451007,342.4248897695173L1906.6494077667949,329.0579620810654Z"
fill="#ff8e3b" stroke="#ff8e3b"/><path
d="M1837.8710321665308,202.52710703879814L1906.6494077667949,329.0579620810654L1959.419968142357,243.67941614683454Z"
fill="#ff933b" stroke="#ff933b"/><path
d="M1959.419968142357,243.67941614683454L1906.6494077667949,329.0579620810654L2055.3413908869643,304.00021372275955Z"
fill="#ff8b3b" stroke="#ff8b3b"/><path
d="M1959.419968142357,243.67941614683454L2055.3413908869643,304.00021372275955L2009.6049708843427,227.8789930707322Z"
fill="#ff913b" stroke="#ff913b"/><path
d="M-58.469911401952075,329.792545216963L300.04811089597484,344.8798567444811L116.15747704816246,295.4227429945762Z"
fill="#ffb33b" stroke="#ffb33b"/><path
d="M-58.469911401952075,329.792545216963L116.15747704816246,295.4227429945762L76.81991745027707,295.3139805703113Z"
fill="#ffb83b" stroke="#ffb83b"/><path
d="M116.15747704816246,295.4227429945762L300.04811089597484,344.8798567444811L253.02644829026377,279.49603137387066Z"
fill="#ffb43b" stroke="#ffb43b"/><path
d="M300.04811089597484,344.8798567444811L961.0889565442304,343.83081679360544L651.6966136902902,339.987438231052Z"
fill="#ffa33b" stroke="#ffa33b"/><path
d="M300.04811089597484,344.8798567444811L651.6966136902902,339.987438231052L435.305531161039,332.54719804438207Z"
fill="#ffa83b" stroke="#ffa83b"/><path
d="M435.305531161039,332.54719804438207L651.6966136902902,339.987438231052L528.2915494587735,310.7705745664864Z"
fill="#ffa83b" stroke="#ffa83b"/><path
d="M528.2915494587735,310.7705745664864L651.6966136902902,339.987438231052L612.6283269270494,313.57175937793465Z"
fill="#ffa83b" stroke="#ffa83b"/><path
d="M651.6966136902902,339.987438231052L961.0889565442304,343.83081679360544L834.7196843773595,333.6787744631726Z"
fill="#ff9f3b" stroke="#ff9f3b"/><path
d="M651.6966136902902,339.987438231052L834.7196843773595,333.6787744631726L787.4460573634744,279.4211461905914Z"
fill="#ffa53b" stroke="#ffa53b"/><path
d="M961.0889565442304,343.83081679360544L1836.9120381451007,342.4248897695173L1507.1299463924513,337.64524146986446Z"
fill="#ff903b" stroke="#ff903b"/><path
d="M961.0889565442304,343.83081679360544L1507.1299463924513,337.64524146986446L1406.8604862442435,334.6091312848472Z"
fill="#ff943b" stroke="#ff943b"/><path
d="M961.0889565442304,343.83081679360544L1406.8604862442435,334.6091312848472L1100.6028164392478,330.0182010690113Z"
fill="#ff973b" stroke="#ff973b"/><path
d="M961.0889565442304,343.83081679360544L1100.6028164392478,330.0182010690113L1040.5968114690183,324.727885810765Z"
fill="#ff9b3b" stroke="#ff9b3b"/><path
d="M1100.6028164392478,330.0182010690113L1406.8604862442435,334.6091312848472L1236.3027678297542,311.62300916881884Z"
fill="#ff973b" stroke="#ff973b"/><path
d="M1236.3027678297542,311.62300916881884L1406.8604862442435,334.6091312848472L1299.0291265497951,282.82029888826014Z"
fill="#ff993b" stroke="#ff993b"/><path
d="M1507.1299463924513,337.64524146986446L1836.9120381451007,342.4248897695173L1568.0256426404208,336.83512524796174Z"
fill="#ff8b3b" stroke="#ff8b3b"/><path
d="M1568.0256426404208,336.83512524796174L1836.9120381451007,342.4248897695173L1789.8061261611613,332.36294033523455Z"
fill="#ff893b" stroke="#ff893b"/><path
d="M1568.0256426404208,336.83512524796174L1789.8061261611613,332.36294033523455L1632.2010352070245,309.6884508535909Z"
fill="#ff8d3b" stroke="#ff8d3b"/><path
d="M1836.9120381451007,342.4248897695173L2055.3413908869643,304.00021372275955L1906.6494077667949,329.0579620810654Z"
fill="#ff863b" stroke="#ff863b"/></g></svg>