<?xml version="1.0" encoding="UTF-8" standalone="no"?>
<!-- Created with Inkscape (http://www.inkscape.org/) -->

<svg
   xmlns:ns1="http://www.iki.fi/pav/software/textext/"
   xmlns:dc="http://purl.org/dc/elements/1.1/"
   xmlns:cc="http://creativecommons.org/ns#"
   xmlns:rdf="http://www.w3.org/1999/02/22-rdf-syntax-ns#"
   xmlns:svg="http://www.w3.org/2000/svg"
   xmlns="http://www.w3.org/2000/svg"
   xmlns:sodipodi="http://sodipodi.sourceforge.net/DTD/sodipodi-0.dtd"
   xmlns:inkscape="http://www.inkscape.org/namespaces/inkscape"
   version="1.1"
   id="svg834"
   xml:space="preserve"
   width="308.43021mm"
   height="176.90848mm"
   viewBox="0 0 1165.7204 668.63044"
   sodipodi:docname="grid_aware.svg"
   inkscape:version="0.92.4 (5da689c313, 2019-01-14)"><sodipodi:namedview
     pagecolor="#ffffff"
     bordercolor="#666666"
     borderopacity="1"
     objecttolerance="10"
     gridtolerance="10"
     guidetolerance="10"
     inkscape:pageopacity="0"
     inkscape:pageshadow="2"
     inkscape:window-width="1920"
     inkscape:window-height="1162"
     id="namedview836"
     showgrid="false"
     inkscape:zoom="0.62606659"
     inkscape:cx="475.81621"
     inkscape:cy="288.86797"
     inkscape:window-x="0"
     inkscape:window-y="18"
     inkscape:window-maximized="0"
     inkscape:current-layer="g842"
     units="mm"
     fit-margin-top="0"
     fit-margin-right="0"
     fit-margin-bottom="0"
     fit-margin-left="0"><inkscape:grid
       type="xygrid"
       id="grid8162"
       units="cm"
       spacingx="113.38582"
       spacingy="113.38582"
       originx="97.862246"
       originy="-402.0579" /></sodipodi:namedview><metadata
     id="metadata840"><rdf:RDF><cc:Work
         rdf:about=""><dc:format>image/svg+xml</dc:format><dc:type
           rdf:resource="http://purl.org/dc/dcmitype/StillImage" /><dc:title></dc:title></cc:Work></rdf:RDF></metadata><defs
     id="defs838"><marker
       inkscape:stockid="TriangleInL"
       orient="auto"
       refY="0"
       refX="0"
       id="TriangleInL"
       style="overflow:visible"
       inkscape:isstock="true"><path
         id="path8637"
         d="M 5.77,0 -2.88,5 V -5 Z"
         style="fill:#000000;fill-opacity:1;fill-rule:evenodd;stroke:#000000;stroke-width:1.00000003pt;stroke-opacity:1"
         transform="scale(-0.8)"
         inkscape:connector-curvature="0" /></marker><marker
       inkscape:stockid="DiamondLstart"
       orient="auto"
       refY="0"
       refX="0"
       id="DiamondLstart"
       style="overflow:visible"
       inkscape:isstock="true"><path
         id="path8592"
         d="M 0,-7.0710768 -7.0710894,0 0,7.0710589 7.0710462,0 Z"
         style="fill:#cccccc;fill-opacity:1;fill-rule:evenodd;stroke:#000000;stroke-width:1.00000003pt;stroke-opacity:1"
         transform="matrix(0.8,0,0,0.8,5.6,0)"
         inkscape:connector-curvature="0" /></marker><clipPath
       clipPathUnits="userSpaceOnUse"
       id="clipPath850"><path
         d="M 36496,320743 H 661416 V 429360 H 36496 V 320743"
         id="path848"
         inkscape:connector-curvature="0" /></clipPath><clipPath
       clipPathUnits="userSpaceOnUse"
       id="clipPath938"><path
         d="M 0,150490 H 614137 V 259107 H 0 V 150490"
         id="path936"
         inkscape:connector-curvature="0" /></clipPath><clipPath
       clipPathUnits="userSpaceOnUse"
       id="clipPath1022"><path
         d="M 0,0 H 661417 V 467716 H 0 V 0"
         id="path1020"
         inkscape:connector-curvature="0" /></clipPath><clipPath
       clipPathUnits="userSpaceOnUse"
       id="clipPath1100"><path
         d="M 0,0 H 661417 V 467716 H 0 V 0"
         id="path1098"
         inkscape:connector-curvature="0" /></clipPath><clipPath
       clipPathUnits="userSpaceOnUse"
       id="clipPath1112"><path
         d="M 0,0 H 661417 V 467716 H 0 V 0"
         id="path1110"
         inkscape:connector-curvature="0" /></clipPath><marker
       inkscape:stockid="TriangleInL"
       orient="auto"
       refY="0"
       refX="0"
       id="TriangleInL-5"
       style="overflow:visible"
       inkscape:isstock="true"><path
         inkscape:connector-curvature="0"
         id="path8637-6"
         d="M 5.77,0 -2.88,5 V -5 Z"
         style="fill:#000000;fill-opacity:1;fill-rule:evenodd;stroke:#000000;stroke-width:1.00000003pt;stroke-opacity:1"
         transform="scale(-0.8)" /></marker><marker
       inkscape:stockid="TriangleInL"
       orient="auto"
       refY="0"
       refX="0"
       id="TriangleInL-5-9"
       style="overflow:visible"
       inkscape:isstock="true"><path
         inkscape:connector-curvature="0"
         id="path8637-6-1"
         d="M 5.77,0 -2.88,5 V -5 Z"
         style="fill:#000000;fill-opacity:1;fill-rule:evenodd;stroke:#000000;stroke-width:1.00000003pt;stroke-opacity:1"
         transform="scale(-0.8)" /></marker><marker
       inkscape:stockid="TriangleInL"
       orient="auto"
       refY="0"
       refX="0"
       id="TriangleInL-5-9-7"
       style="overflow:visible"
       inkscape:isstock="true"><path
         inkscape:connector-curvature="0"
         id="path8637-6-1-0"
         d="M 5.77,0 -2.88,5 V -5 Z"
         style="fill:#000000;fill-opacity:1;fill-rule:evenodd;stroke:#000000;stroke-width:1.00000003pt;stroke-opacity:1"
         transform="scale(-0.8)" /></marker><marker
       inkscape:stockid="TriangleInL"
       orient="auto"
       refY="0"
       refX="0"
       id="TriangleInL-5-3"
       style="overflow:visible"
       inkscape:isstock="true"><path
         inkscape:connector-curvature="0"
         id="path8637-6-6"
         d="M 5.77,0 -2.88,5 V -5 Z"
         style="fill:#000000;fill-opacity:1;fill-rule:evenodd;stroke:#000000;stroke-width:1.00000003pt;stroke-opacity:1"
         transform="scale(-0.8)" /></marker><marker
       inkscape:stockid="TriangleInL"
       orient="auto"
       refY="0"
       refX="0"
       id="TriangleInL-6"
       style="overflow:visible"
       inkscape:isstock="true"><path
         inkscape:connector-curvature="0"
         id="path8637-2"
         d="M 5.77,0 -2.88,5 V -5 Z"
         style="fill:#000000;fill-opacity:1;fill-rule:evenodd;stroke:#000000;stroke-width:1.00000003pt;stroke-opacity:1"
         transform="scale(-0.8)" /></marker></defs><g
     id="g842"
     inkscape:groupmode="layer"
     inkscape:label="grid_aware Drawing v1"
     transform="matrix(0.0024,0,0,-0.0024,97.862311,1070.6884)"><path
   style="opacity:1;fill:#ff8080;fill-opacity:1;fill-rule:evenodd;stroke:none;stroke-width:3.77952766;stroke-linecap:round;stroke-linejoin:round;stroke-miterlimit:4;stroke-dasharray:none;stroke-dashoffset:0;stroke-opacity:1"
   d="m 567.96448,497.83318 v -55.34272 h 55.34273 55.34273 v 55.34272 55.34273 h -5.45637 c -4.72775,0 -5.66737,-0.39427 -7.03655,-2.95261 -3.93224,-7.34745 -19.0249,-17.9028 -30.34857,-21.22487 -9.16018,-2.68735 -25.33657,-2.39062 -34.54949,0.63377 -9.67627,3.1765 -20.27819,10.36696 -25.94016,17.59321 -2.49189,3.18035 -5.16602,5.82027 -5.94251,5.86648 -1.11138,0.0661 -1.41181,-11.69267 -1.41181,-55.25871 z"
   id="path8445"
   inkscape:connector-curvature="0"
   transform="matrix(416.66667,0,0,-416.66667,0,467777.79)" /><path
   style="opacity:1;fill:#ff8080;fill-opacity:1;fill-rule:evenodd;stroke:none;stroke-width:3.77952766;stroke-linecap:round;stroke-linejoin:round;stroke-miterlimit:4;stroke-dasharray:none;stroke-dashoffset:0;stroke-opacity:1"
   d="m 929.96078,206.72283 c 3.87095,-3.89068 8.42823,-9.66337 10.12727,-12.82821 3.87846,-7.2245 23.69631,-61.43061 23.05,-63.04675 -0.26276,-0.65704 -12.47665,-5.51474 -27.14198,-10.79489 l -26.66425,-9.60027 -0.002,-3.67069 -0.002,-3.67069 h 54.778 54.77798 v 55.34273 55.34273 h -47.9804 -47.98043 z"
   id="path8365"
   inkscape:connector-curvature="0"
   transform="matrix(416.66667,0,0,-416.66667,0,467777.79)" /><path
   style="opacity:1;fill:#ff8080;fill-opacity:1;fill-rule:evenodd;stroke:none;stroke-width:3.77952766;stroke-linecap:round;stroke-linejoin:round;stroke-miterlimit:4;stroke-dasharray:none;stroke-dashoffset:0;stroke-opacity:1"
   d="m 909.22285,549.25475 v -4.62218 l 2.699,-2.76562 c 13.23775,-13.5645 18.92787,-32.35788 15.48615,-51.14787 -2.06301,-11.26296 -8.08492,-22.49651 -16.46697,-30.71829 l -1.71818,-1.68532 v -7.98554 -7.98553 h 55.20154 55.20151 v 55.76627 55.76627 h -55.20151 -55.20154 z"
   id="path8407"
   inkscape:connector-curvature="0"
   transform="matrix(416.66667,0,0,-416.66667,0,467777.79)" /><path
   style="opacity:1;fill:#cccccc;fill-opacity:1;fill-rule:evenodd;stroke:none;stroke-width:3.77952766;stroke-linecap:round;stroke-linejoin:round;stroke-miterlimit:4;stroke-dasharray:none;stroke-dashoffset:0;stroke-opacity:1"
   d="m 825.77054,662.10198 c -9.87625,-4.92155 -21.82316,-17.32251 -26.53331,-27.54173 -2.74732,-5.96064 -3.47451,-10.53788 -3.4809,-21.91018 -0.007,-12.48445 0.57404,-15.56082 4.41713,-23.3865 8.10173,-16.49755 25.79511,-28.85901 44.44414,-31.05084 18.03572,-2.11974 39.83068,8.19121 50.09547,23.69962 18.53905,28.00943 9.70367,63.54726 -19.6947,79.21643 -8.75978,4.66891 -10.57388,5.02998 -25.27207,5.02998 -13.75499,0 -16.90415,-0.53285 -23.97576,-4.05678 z"
   id="path8443"
   inkscape:connector-curvature="0"
   transform="matrix(416.66667,0,0,-416.66667,0,467777.79)" /><path
   style="opacity:1;fill:#ff8080;fill-opacity:1;fill-rule:evenodd;stroke:none;stroke-width:3.77952766;stroke-linecap:round;stroke-linejoin:round;stroke-miterlimit:4;stroke-dasharray:none;stroke-dashoffset:0;stroke-opacity:1"
   d="m 795.05994,498.02861 v -55.9046 h 56.30392 56.30391 v 7.15186 7.15186 l -6.18944,-3.91522 c -3.40419,-2.15336 -9.06453,-4.91706 -12.57853,-6.14155 -5.84456,-2.03659 -7.37607,-2.22736 -17.96933,-2.23835 -10.02789,-0.0104 -12.32965,0.23809 -17.1707,1.85364 -17.45068,5.82362 -30.83207,18.30679 -37.13269,34.6402 -9.16394,23.75611 -1.43039,51.48392 18.55097,66.51247 9.041,6.8 9.05559,6.79429 -17.35695,6.79429 h -22.76116 z"
   id="path8401"
   inkscape:connector-curvature="0"
   transform="matrix(416.66667,0,0,-416.66667,0,467777.79)" /><path
   style="opacity:1;fill:#ff8080;fill-opacity:1;fill-rule:evenodd;stroke:none;stroke-width:3.77952766;stroke-linecap:round;stroke-linejoin:round;stroke-miterlimit:4;stroke-dasharray:none;stroke-dashoffset:0;stroke-opacity:1"
   d="m 795.25373,158.45406 v -55.34273 h 27.54065 27.54065 l -6.11652,16.65929 c -11.83476,32.23382 -12.23368,33.71807 -12.21813,45.4601 0.0207,15.61992 3.82018,25.96658 14.04906,38.25781 8.73579,10.49713 9.1617,10.30826 -23.24518,10.30826 h -27.55053 z"
   id="path8359"
   inkscape:connector-curvature="0"
   transform="matrix(416.66667,0,0,-416.66667,0,467777.79)" /><path
   style="opacity:1;fill:#ff8080;fill-opacity:1;fill-rule:evenodd;stroke:none;stroke-width:3.77952766;stroke-linecap:round;stroke-linejoin:round;stroke-miterlimit:4;stroke-dasharray:none;stroke-dashoffset:0;stroke-opacity:1"
   d="m 795.25373,235.50671 v -18.32159 l 17.22401,0.0543 17.22402,0.0543 -6.71371,3.46305 c -9.51984,4.91052 -18.96213,14.767 -23.78281,24.82607 l -3.95151,8.24541 z"
   id="path8363"
   inkscape:connector-curvature="0"
   transform="matrix(416.66667,0,0,-416.66667,0,467777.79)" /><path
   style="opacity:1;fill:#ff8080;fill-opacity:1;fill-rule:evenodd;stroke:none;stroke-width:3.77952766;stroke-linecap:round;stroke-linejoin:round;stroke-miterlimit:4;stroke-dasharray:none;stroke-dashoffset:0;stroke-opacity:1"
   d="m 836.33398,184.10547 h -38.39453 v 11.05469 c 0,10.21414 0.38609,12.14949 5.08203,25.46484 2.79538,7.92628 5.08399,14.83095 5.08399,15.3418 0,0.51084 -2.28861,1.5689 -5.08399,2.35156 l -5.08203,1.42187 v 27.52539 27.52344 h 38.39453 z"
   id="path2672"
   transform="matrix(416.66667,0,0,-416.66667,-48649.979,453994.21)"
   inkscape:connector-curvature="0" /><path
   style="opacity:1;fill:#ff8080;fill-opacity:1;fill-rule:evenodd;stroke:none;stroke-width:3.77952766;stroke-linecap:round;stroke-linejoin:round;stroke-miterlimit:4;stroke-dasharray:none;stroke-dashoffset:0;stroke-opacity:1"
   d="m 569.42958,300.48157 0.0645,-27.389 3.12919,8.47082 c 1.72105,4.65895 4.53895,12.40976 6.26199,17.22401 1.72305,4.81426 3.57524,8.75319 4.11599,8.75319 0.54075,0 21.88473,-7.36962 47.43109,-16.37693 25.54635,-9.00731 46.90708,-16.37693 47.4683,-16.37693 0.57861,0 1.02039,11.49132 1.02039,26.54192 v 26.54192 h -54.778 -54.77801 z"
   id="path8349"
   inkscape:connector-curvature="0"
   transform="matrix(416.66667,0,0,-416.66667,0,467777.79)" /><path
   style="opacity:1;fill:#ff8080;fill-opacity:1;fill-rule:evenodd;stroke:none;stroke-width:3.77952766;stroke-linecap:round;stroke-linejoin:round;stroke-miterlimit:4;stroke-dasharray:none;stroke-dashoffset:0;stroke-opacity:1"
   d="m 669.32156,207.48531 c -6.76518,-13.82754 -22.39525,-26.19091 -37.83712,-29.92913 -21.68306,-5.24911 -46.28025,3.15465 -59.44136,20.30845 l -3.80747,4.96256 v -49.85793 -49.85793 h 55.34272 55.34273 v 55.34273 55.34273 h -3.25579 c -2.83128,0 -3.65841,-0.82293 -6.34371,-6.31148 z"
   id="path8353"
   inkscape:connector-curvature="0"
   transform="matrix(416.66667,0,0,-416.66667,0,467777.79)" /><path
   id="path8224-3-6"
   style="fill:none;fill-rule:evenodd;stroke:#1c1c1c;stroke-width:1574.80310059;stroke-linecap:butt;stroke-linejoin:miter;stroke-miterlimit:4;stroke-dasharray:none;stroke-opacity:1"
   d="M 378530.35,302090.26 V 169780.56 M 26666.667,189387.17 H 444940.92 M 26666.667,236631.26 H 444940.92 M 26666.667,283875.35 H 444940.92 m -19744.07,17244.1 v -132309.7 m -94488.2,132309.7 v -132309.7 m -47244.1,132309.7 v -132309.7 m -47244.09,132309.7 v -132309.7 m -47244.09,132309.7 v -132309.7 m -47244.09,132309.7 v -132309.7 m -47244.103,132309.7 v -132309.7 m -47244.09,132309.7 v -132309.7"
   inkscape:connector-curvature="0"
   sodipodi:nodetypes="cccccccccccccccccccccccc" /><path
   id="path8224-3"
   style="fill:none;fill-opacity:1;fill-rule:evenodd;stroke:#000000;stroke-width:1575;stroke-linecap:butt;stroke-linejoin:miter;stroke-miterlimit:4;stroke-dasharray:none;stroke-opacity:1"
   d="M 378530.35,443411.71 V 311102.01 M 26666.667,330708.62 H 444940.92 M 26666.667,377952.71 H 444940.92 M 26666.667,425196.8 H 444940.92 m -19744.08,17244.1 V 310131.2 m -94488.2,132309.7 V 310131.2 M 283464.55,442440.9 V 310131.2 M 236220.46,442440.9 V 310131.2 M 188976.37,442440.9 V 310131.2 M 141732.28,442440.9 V 310131.2 M 94488.184,442440.9 V 310131.2 M 47244.092,442440.9 V 310131.2"
   inkscape:connector-curvature="0"
   sodipodi:nodetypes="cccccccccccccccccccccccc" /><rect
   style="opacity:1;fill:#ff8080;fill-opacity:1;fill-rule:evenodd;stroke:none;stroke-width:1574.80322266;stroke-linecap:round;stroke-linejoin:round;stroke-miterlimit:4;stroke-dasharray:none;stroke-dashoffset:0;stroke-opacity:1"
   id="rect8373"
   width="46578.574"
   height="16118.099"
   x="331374.19"
   y="-441884.91"
   transform="scale(1,-1)" /><g
   id="g8192"
   transform="translate(5833.3332,4999.9999)"><path
     inkscape:connector-curvature="0"
     id="path852"
     style="fill:none;stroke:#000000;stroke-width:787;stroke-linecap:round;stroke-linejoin:round;stroke-miterlimit:10;stroke-dasharray:none;stroke-opacity:1"
     d="m 183345,349571 v -23622 h 47244" /><g
     transform="rotate(90,-71302,278269.5)"
     id="g854"><path
       inkscape:connector-curvature="0"
       id="path856"
       style="fill:none;stroke:#000000;stroke-width:787;stroke-linecap:round;stroke-linejoin:round;stroke-miterlimit:10;stroke-dasharray:none;stroke-opacity:1"
       d="M 0,-23622.5 C 13046.347,-23622.5 23622.5,-13046.347 23622.5,0 23622.5,13046.347 13046.347,23622.5 0,23622.5" /></g><path
     inkscape:connector-curvature="0"
     id="path858"
     style="fill:none;stroke:#000000;stroke-width:787;stroke-linecap:round;stroke-linejoin:round;stroke-miterlimit:10;stroke-dasharray:none;stroke-opacity:1"
     d="m 230589,325949 v 23622" /><path
     inkscape:connector-curvature="0"
     id="path860"
     style="fill:none;stroke:#000000;stroke-width:787;stroke-linecap:round;stroke-linejoin:round;stroke-miterlimit:10;stroke-dasharray:none;stroke-opacity:1"
     d="m 229243,357431 7860,-22276 44552,15721" /><g
     transform="matrix(0.94302,0.33273,-0.33273,0.94302,251519.5,365292.5)"
     id="g862"><path
       inkscape:connector-curvature="0"
       id="path864"
       style="fill:none;stroke:#000000;stroke-width:787;stroke-linecap:round;stroke-linejoin:round;stroke-miterlimit:10;stroke-dasharray:none;stroke-opacity:1"
       d="M 23622.5,0 C 23622.5,13046.347 13046.347,23622.5 0,23622.5 -13046.347,23622.5 -23622.5,13046.347 -23622.5,0" /></g><path
     inkscape:connector-curvature="0"
     id="path866"
     style="fill:none;stroke:#000000;stroke-width:787;stroke-linecap:round;stroke-linejoin:round;stroke-miterlimit:10;stroke-dasharray:none;stroke-opacity:1"
     d="m 281655,350876 -7860,22276" /><path
     inkscape:connector-curvature="0"
     id="path868"
     style="fill:none;stroke:#000000;stroke-width:787;stroke-linecap:round;stroke-linejoin:round;stroke-miterlimit:10;stroke-dasharray:none;stroke-opacity:1"
     d="m 325077,349571 v -23622 h 47244" /><g
     transform="rotate(90,-436,349135.5)"
     id="g870"><path
       inkscape:connector-curvature="0"
       id="path872"
       style="fill:none;stroke:#000000;stroke-width:787;stroke-linecap:round;stroke-linejoin:round;stroke-miterlimit:10;stroke-dasharray:none;stroke-opacity:1"
       d="M 0,-23622.5 C 13046.347,-23622.5 23622.5,-13046.347 23622.5,0 23622.5,13046.347 13046.347,23622.5 0,23622.5" /></g><path
     inkscape:connector-curvature="0"
     id="path874"
     style="fill:none;stroke:#000000;stroke-width:787;stroke-linecap:round;stroke-linejoin:round;stroke-miterlimit:10;stroke-dasharray:none;stroke-opacity:1"
     d="m 372321,325949 v 23622" /><path
     inkscape:connector-curvature="0"
     id="path876"
     style="fill:none;stroke:#000000;stroke-width:787;stroke-linecap:round;stroke-linejoin:round;stroke-miterlimit:10;stroke-dasharray:none;stroke-opacity:1"
     d="m 387055,385887 8079,22198 -44395,16158" /><g
     transform="matrix(-0.34203,-0.93969,0.93969,-0.34203,364858.5,393966.5)"
     id="g878"><path
       inkscape:connector-curvature="0"
       id="path880"
       style="fill:none;stroke:#000000;stroke-width:787;stroke-linecap:round;stroke-linejoin:round;stroke-miterlimit:10;stroke-dasharray:none;stroke-opacity:1"
       d="M 0,-23622.5 C 13046.347,-23622.5 23622.5,-13046.347 23622.5,0 23622.5,13046.347 13046.347,23622.5 0,23622.5" /></g><path
     inkscape:connector-curvature="0"
     id="path882"
     style="fill:none;stroke:#000000;stroke-width:787;stroke-linecap:round;stroke-linejoin:round;stroke-miterlimit:10;stroke-dasharray:none;stroke-opacity:1"
     d="m 350739,424243 -8079,-22197" /><path
     inkscape:connector-curvature="0"
     id="path884"
     style="fill:none;stroke:#000000;stroke-width:787;stroke-linecap:round;stroke-linejoin:round;stroke-miterlimit:10;stroke-dasharray:none;stroke-opacity:1"
     d="M 41613,349571 V 325949 H 88857" /><g
     transform="rotate(90,-142168,207403.5)"
     id="g886"><path
       inkscape:connector-curvature="0"
       id="path888"
       style="fill:none;stroke:#000000;stroke-width:787;stroke-linecap:round;stroke-linejoin:round;stroke-miterlimit:10;stroke-dasharray:none;stroke-opacity:1"
       d="M 0,-23622.5 C 13046.347,-23622.5 23622.5,-13046.347 23622.5,0 23622.5,13046.347 13046.347,23622.5 0,23622.5" /></g><path
     inkscape:connector-curvature="0"
     id="path890"
     style="fill:none;stroke:#000000;stroke-width:787;stroke-linecap:round;stroke-linejoin:round;stroke-miterlimit:10;stroke-dasharray:none;stroke-opacity:1"
     d="M 136101,325949 H 88857 v 23622 -23622" /><g
     transform="rotate(90,-118546,231025.5)"
     id="g892"><path
       inkscape:connector-curvature="0"
       id="path894"
       style="fill:none;stroke:#000000;stroke-width:787;stroke-linecap:round;stroke-linejoin:round;stroke-miterlimit:10;stroke-dasharray:none;stroke-opacity:1"
       d="M 0,-23622.5 C 13046.347,-23622.5 23622.5,-13046.347 23622.5,0 23622.5,13046.347 13046.347,23622.5 0,23622.5" /></g><path
     inkscape:connector-curvature="0"
     id="path896"
     style="fill:none;stroke:#000000;stroke-width:787;stroke-linecap:round;stroke-linejoin:round;stroke-miterlimit:10;stroke-dasharray:none;stroke-opacity:1"
     d="m 136101,325949 v 23622" /><path
     inkscape:connector-curvature="0"
     id="path898"
     style="fill:none;stroke:#000000;stroke-width:787;stroke-linecap:round;stroke-linejoin:round;stroke-miterlimit:10;stroke-dasharray:none;stroke-opacity:1"
     d="m 230589,349557 1274,449" /><path
     inkscape:connector-curvature="0"
     id="path900"
     style="fill:none;stroke:#000000;stroke-width:787;stroke-linecap:round;stroke-linejoin:round;stroke-miterlimit:10;stroke-dasharray:none;stroke-opacity:1"
     d="m 227897,365306 -2548,-899" /><path
     inkscape:connector-curvature="0"
     id="path902"
     style="fill:none;stroke:#000000;stroke-width:787;stroke-linecap:round;stroke-linejoin:round;stroke-miterlimit:10;stroke-dasharray:none;stroke-opacity:1"
     d="m 363715,367806 925,2539" /><path
     inkscape:connector-curvature="0"
     id="path904"
     style="fill:none;stroke:#000000;stroke-width:787;stroke-linecap:round;stroke-linejoin:round;stroke-miterlimit:10;stroke-dasharray:none;stroke-opacity:1"
     d="m 349841,375731 -924,-2539" /><path
     inkscape:connector-curvature="0"
     id="path914"
     style="fill:none;stroke:#000000;stroke-width:787;stroke-linecap:round;stroke-linejoin:round;stroke-miterlimit:10;stroke-dasharray:none;stroke-opacity:1"
     d="M 90208,357445 H 87506" /></g><g
   id="g8206"
   transform="translate(-222620.2,33083.442)"><path
     inkscape:connector-curvature="0"
     id="path980"
     style="fill:none;stroke:#000000;stroke-width:787;stroke-linecap:round;stroke-linejoin:round;stroke-miterlimit:10;stroke-dasharray:none;stroke-opacity:1"
     d="m 315456,171402 2702,-5" /><path
     inkscape:connector-curvature="0"
     id="path982"
     style="fill:none;stroke:#000000;stroke-width:787;stroke-linecap:round;stroke-linejoin:round;stroke-miterlimit:10;stroke-dasharray:none;stroke-opacity:1"
     d="m 318188,187145 -2702,5" /><path
     inkscape:connector-curvature="0"
     id="path984"
     style="fill:none;stroke:#000000;stroke-width:787;stroke-linecap:round;stroke-linejoin:round;stroke-miterlimit:10;stroke-dasharray:none;stroke-opacity:1"
     d="m 458460,177211 2618,670" /><path
     inkscape:connector-curvature="0"
     id="path986"
     style="fill:none;stroke:#000000;stroke-width:787;stroke-linecap:round;stroke-linejoin:round;stroke-miterlimit:10;stroke-dasharray:none;stroke-opacity:1"
     d="m 457174,193137 -2618,-670" /><path
     inkscape:connector-curvature="0"
     id="path988"
     style="fill:none;stroke:#000000;stroke-width:787;stroke-linecap:round;stroke-linejoin:round;stroke-miterlimit:10;stroke-dasharray:none;stroke-opacity:1"
     d="m 588520,199750 500,2655" /><path
     inkscape:connector-curvature="0"
     id="path990"
     style="fill:none;stroke:#000000;stroke-width:787;stroke-linecap:round;stroke-linejoin:round;stroke-miterlimit:10;stroke-dasharray:none;stroke-opacity:1"
     d="m 573543,205317 -499,-2656" /><path
     d="m 316823,179318.5 c 0,13046.35 -10576.15,23622.5 -23622.5,23622.5 -13046.35,0 -23622.5,-10576.15 -23622.5,-23622.5 0,-13046.35 10576.15,-23622.5 23622.5,-23622.5 13046.35,0 23622.5,10576.15 23622.5,23622.5"
     style="fill:none;stroke:#000000;stroke-width:787;stroke-linecap:round;stroke-linejoin:round;stroke-miterlimit:10;stroke-dasharray:none;stroke-opacity:1"
     id="path994"
     inkscape:connector-curvature="0" /><path
     d="m 364067,179229.5 c 0,13046.35 -10576.15,23622.5 -23622.5,23622.5 -13046.35,0 -23622.5,-10576.15 -23622.5,-23622.5 0,-13046.35 10576.15,-23622.5 23622.5,-23622.5 13046.35,0 23622.5,10576.15 23622.5,23622.5"
     style="fill:none;stroke:#000000;stroke-width:787;stroke-linecap:round;stroke-linejoin:round;stroke-miterlimit:10;stroke-dasharray:none;stroke-opacity:1"
     id="path998"
     inkscape:connector-curvature="0" /><path
     d="m 458556,179318.5 c 0,13046.35 -10576.15,23622.5 -23622.5,23622.5 -13046.35,0 -23622.5,-10576.15 -23622.5,-23622.5 0,-13046.35 10576.15,-23622.5 23622.5,-23622.5 13046.35,0 23622.5,10576.15 23622.5,23622.5"
     style="fill:none;stroke:#000000;stroke-width:787;stroke-linecap:round;stroke-linejoin:round;stroke-miterlimit:10;stroke-dasharray:none;stroke-opacity:1"
     id="path1002"
     inkscape:connector-curvature="0" /><path
     d="m 504325,191030.5 c 0,13046.35 -10576.15,23622.5 -23622.5,23622.5 -13046.35,0 -23622.5,-10576.15 -23622.5,-23622.5 0,-13046.35 10576.15,-23622.5 23622.5,-23622.5 13046.35,0 23622.5,10576.15 23622.5,23622.5"
     style="fill:none;stroke:#000000;stroke-width:787;stroke-linecap:round;stroke-linejoin:round;stroke-miterlimit:10;stroke-dasharray:none;stroke-opacity:1"
     id="path1006"
     inkscape:connector-curvature="0" /><path
     d="m 600288,179318.5 c 0,13046.35 -10576.15,23622.5 -23622.5,23622.5 -13046.35,0 -23622.5,-10576.15 -23622.5,-23622.5 0,-13046.35 10576.15,-23622.5 23622.5,-23622.5 13046.35,0 23622.5,10576.15 23622.5,23622.5"
     style="fill:none;stroke:#000000;stroke-width:787;stroke-linecap:round;stroke-linejoin:round;stroke-miterlimit:10;stroke-dasharray:none;stroke-opacity:1"
     id="path1010"
     inkscape:connector-curvature="0" /><path
     d="m 609021,225748.5 c 0,13046.35 -10576.15,23622.5 -23622.5,23622.5 -13046.35,0 -23622.5,-10576.15 -23622.5,-23622.5 0,-13046.35 10576.15,-23622.5 23622.5,-23622.5 13046.35,0 23622.5,10576.15 23622.5,23622.5"
     style="fill:none;stroke:#000000;stroke-width:787;stroke-linecap:round;stroke-linejoin:round;stroke-miterlimit:10;stroke-dasharray:none;stroke-opacity:1"
     id="path1014"
     inkscape:connector-curvature="0" /></g><path
   style="opacity:1;fill:#ff0000;fill-opacity:1;fill-rule:evenodd;stroke:none;stroke-width:3.77952766;stroke-linecap:round;stroke-linejoin:round;stroke-miterlimit:4;stroke-dasharray:none;stroke-dashoffset:0;stroke-opacity:1"
   d="m 681.68555,259.84999 0.0471,-10.26807 3.10024,8.38569 c 1.70514,4.61213 3.12147,8.79596 3.1474,9.29741 0.0259,0.50144 -0.81793,1.12884 -1.87525,1.39421 -1.05731,0.26537 -2.49486,0.70216 -3.19454,0.97066 -1.12456,0.43153 -1.26668,-0.70308 -1.225,-9.7799 z"
   id="path8289"
   inkscape:connector-curvature="0"
   transform="matrix(416.66667,0,0,-416.66667,0,467777.79)" /><path
   style="opacity:1;fill:#ff0000;fill-opacity:1;fill-rule:evenodd;stroke:none;stroke-width:3.77952766;stroke-linecap:round;stroke-linejoin:round;stroke-miterlimit:4;stroke-dasharray:none;stroke-dashoffset:0;stroke-opacity:1"
   d="m 854.59615,99.637806 c 0.9047,-2.904136 1.88756,-5.391968 2.12366,-5.37543 0.12069,0.0085 4.53207,1.608332 9.80307,3.555286 l 9.58365,3.539918 -11.03508,0.0386 -11.03508,0.0386 z"
   id="path8291"
   inkscape:connector-curvature="0"
   transform="matrix(416.66667,0,0,-416.66667,0,467777.79)" /><path
   style="opacity:1;fill:#ff8080;fill-opacity:1;fill-rule:evenodd;stroke:none;stroke-width:3.77952766;stroke-linecap:round;stroke-linejoin:round;stroke-miterlimit:4;stroke-dasharray:none;stroke-dashoffset:0;stroke-opacity:1"
   d="m 221.99379,244.61758 c -4.0096,-8.19532 -16.02444,-20.24431 -24.21562,-24.28443 l -6.21194,-3.0639 17.22401,-0.0421 17.22402,-0.0421 v 16.94165 c 0,9.31791 -0.19449,16.94165 -0.43219,16.94165 -0.2377,0 -1.85242,-2.90288 -3.58828,-6.45084 z"
   id="path8321"
   inkscape:connector-curvature="0"
   transform="matrix(416.66667,0,0,-416.66667,0,467777.79)" /><path
   style="opacity:1;fill:#ff8080;fill-opacity:1;fill-rule:evenodd;stroke:none;stroke-width:3.77952766;stroke-linecap:round;stroke-linejoin:round;stroke-miterlimit:4;stroke-dasharray:none;stroke-dashoffset:0;stroke-opacity:1"
   d="m 114.22617,236.66802 -0.0268,-19.4829 h 17.72813 17.72813 l -5.84702,2.91369 c -11.39204,5.67689 -21.7789,17.15072 -26.98858,29.81287 l -2.56705,6.23923 z"
   id="path8323"
   inkscape:connector-curvature="0"
   transform="matrix(416.66667,0,0,-416.66667,0,467777.79)" /><path
   style="opacity:1;fill:#ff8080;fill-opacity:1;fill-rule:evenodd;stroke:none;stroke-width:3.77952766;stroke-linecap:round;stroke-linejoin:round;stroke-miterlimit:4;stroke-dasharray:none;stroke-dashoffset:0;stroke-opacity:1"
   d=""
   id="path8325"
   inkscape:connector-curvature="0"
   transform="matrix(416.66667,0,0,-416.66667,0,467777.79)" /><path
   style="opacity:1;fill:#ff8080;fill-opacity:1;fill-rule:evenodd;stroke:none;stroke-width:3.77952766;stroke-linecap:round;stroke-linejoin:round;stroke-miterlimit:4;stroke-dasharray:none;stroke-dashoffset:0;stroke-opacity:1"
   d="m 334.72963,243.97301 c -4.33736,-8.38895 -12.94195,-17.1955 -22.24651,-22.76867 l -6.71022,-4.01922 h 16.59285 16.59285 v 16.94165 c 0,9.31791 -0.12707,16.93977 -0.28236,16.93747 -0.1553,-0.002 -1.93127,-3.19335 -3.94661,-7.09123 z"
   id="path8327"
   inkscape:connector-curvature="0"
   transform="matrix(416.66667,0,0,-416.66667,0,467777.79)" /><path
   style="opacity:1;fill:#ff8080;fill-opacity:1;fill-rule:evenodd;stroke:none;stroke-width:3.77952766;stroke-linecap:round;stroke-linejoin:round;stroke-miterlimit:4;stroke-dasharray:none;stroke-dashoffset:0;stroke-opacity:1"
   d=""
   id="path8329"
   inkscape:connector-curvature="0"
   transform="matrix(416.66667,0,0,-416.66667,0,467777.79)" /><path
   style="opacity:1;fill:#ff8080;fill-opacity:1;fill-rule:evenodd;stroke:none;stroke-width:3.77952766;stroke-linecap:round;stroke-linejoin:round;stroke-miterlimit:4;stroke-dasharray:none;stroke-dashoffset:0;stroke-opacity:1"
   d=""
   id="path8331"
   inkscape:connector-curvature="0"
   transform="matrix(416.66667,0,0,-416.66667,0,467777.79)" /><path
   style="opacity:1;fill:#ff8080;fill-opacity:1;fill-rule:evenodd;stroke:none;stroke-width:3.77952766;stroke-linecap:round;stroke-linejoin:round;stroke-miterlimit:4;stroke-dasharray:none;stroke-dashoffset:0;stroke-opacity:1"
   d="m 228.27314,234.12677 v -16.94165 l 17.22401,0.0301 17.22402,0.0301 -6.77666,3.62615 c -8.80198,4.70989 -18.2878,14.27036 -22.95727,23.13794 -2.04441,3.88246 -3.94144,7.05902 -4.21561,7.05902 -0.27417,0 -0.49849,-7.62374 -0.49849,-16.94165 z"
   id="path8333"
   inkscape:connector-curvature="0"
   transform="matrix(416.66667,0,0,-416.66667,0,467777.79)" /><path
   style="opacity:1;fill:#ff8080;fill-opacity:1;fill-rule:evenodd;stroke:none;stroke-width:3.77952766;stroke-linecap:round;stroke-linejoin:round;stroke-miterlimit:4;stroke-dasharray:none;stroke-dashoffset:0;stroke-opacity:1"
   d="m 549.38531,228.58853 c -3.22394,-3.01757 -8.53329,-6.8178 -11.79856,-8.44496 l -5.93685,-2.95845 h 14.97373 14.97373 l -0.80118,5.34264 c -1.98006,13.20396 -3.12785,13.8136 -11.41087,6.06077 z"
   id="path8355"
   inkscape:connector-curvature="0"
   transform="matrix(416.66667,0,0,-416.66667,0,467777.79)" /><path
   style="opacity:1;fill:#ff8080;fill-opacity:1;fill-rule:evenodd;stroke:none;stroke-width:3.77952766;stroke-linecap:round;stroke-linejoin:round;stroke-miterlimit:4;stroke-dasharray:none;stroke-dashoffset:0;stroke-opacity:1"
   d="m 455.29127,234.87189 v -17.68677 l 17.22401,0.0421 17.22401,0.0421 -6.21194,3.0639 c -8.47744,4.18132 -20.14081,16.02544 -24.63265,25.0144 l -3.60343,7.21111 z"
   id="path8357"
   inkscape:connector-curvature="0"
   transform="matrix(416.66667,0,0,-416.66667,0,467777.79)" /><path
   style="opacity:1;fill:#ff8080;fill-opacity:1;fill-rule:evenodd;stroke:none;stroke-width:3.77952766;stroke-linecap:round;stroke-linejoin:round;stroke-miterlimit:4;stroke-dasharray:none;stroke-dashoffset:0;stroke-opacity:1"
   d="m 903.16115,246.91693 c -1.83852,-4.1135 -5.81603,-10.18523 -8.8389,-13.49273 -7.1804,-7.85651 -6.71463,-10.03855 2.32613,-10.89744 3.55696,-0.33792 7.35664,-0.97003 8.44372,-1.4047 1.83006,-0.73172 1.97653,0.47411 1.97653,16.2722 0,9.38437 -0.12706,17.04883 -0.28236,17.03213 -0.1553,-0.0167 -1.7866,-3.39596 -3.62512,-7.50946 z"
   id="path8361"
   inkscape:connector-curvature="0"
   transform="matrix(416.66667,0,0,-416.66667,0,467777.79)" /><path
   style="opacity:1;fill:#ff8080;fill-opacity:1;fill-rule:evenodd;stroke:none;stroke-width:3.77952766;stroke-linecap:round;stroke-linejoin:round;stroke-miterlimit:4;stroke-dasharray:none;stroke-dashoffset:0;stroke-opacity:1"
   d=""
   id="path8367"
   inkscape:connector-curvature="0"
   transform="matrix(416.66667,0,0,-416.66667,0,467777.79)" /><path
   style="opacity:1;fill:#ff8080;fill-opacity:1;fill-rule:evenodd;stroke:none;stroke-width:3.77952766;stroke-linecap:round;stroke-linejoin:round;stroke-miterlimit:4;stroke-dasharray:none;stroke-dashoffset:0;stroke-opacity:1"
   d="m 898.5978,106.5048 -7.9061,-2.82875 7.75734,-0.33701 c 4.26653,-0.18535 7.98958,-0.10475 8.27344,0.17911 0.28387,0.28386 0.35081,1.70845 0.14877,3.16576 l -0.36734,2.64964 z"
   id="path8369"
   inkscape:connector-curvature="0"
   transform="matrix(416.66667,0,0,-416.66667,0,467777.79)" /><path
   style="opacity:1;fill:#ff8080;fill-opacity:1;fill-rule:evenodd;stroke:none;stroke-width:3.77952766;stroke-linecap:round;stroke-linejoin:round;stroke-miterlimit:4;stroke-dasharray:none;stroke-dashoffset:0;stroke-opacity:1"
   d="m 114.18119,575.67615 -0.0141,-19.97703 23.22418,0.0185 23.22418,0.0185 -3.10597,0.65545 c -19.50055,4.11513 -35.56093,18.02871 -42.38626,36.72046 l -0.92794,2.54125 z"
   id="path8375"
   inkscape:connector-curvature="0"
   transform="matrix(416.66667,0,0,-416.66667,0,467777.79)" /><path
   style="opacity:1;fill:#ff8080;fill-opacity:1;fill-rule:evenodd;stroke:none;stroke-width:3.77952766;stroke-linecap:round;stroke-linejoin:round;stroke-miterlimit:4;stroke-dasharray:none;stroke-dashoffset:0;stroke-opacity:1"
   d="m 223.08549,591.48835 c -5.47459,-13.38483 -15.54124,-24.21174 -28.30437,-30.442 -4.02408,-1.96434 -8.98945,-3.69451 -13.27096,-4.62425 l -3.10597,-0.67447 23.7889,-0.0243 23.7889,-0.0243 v 18.63581 18.63582 h -1.14509 c -1.11615,0 -1.16042,-0.0375 -1.75141,-1.4824 z"
   id="path8377"
   inkscape:connector-curvature="0"
   transform="matrix(416.66667,0,0,-416.66667,0,467777.79)" /><path
   style="opacity:1;fill:#ff8080;fill-opacity:1;fill-rule:evenodd;stroke:none;stroke-width:3.77952766;stroke-linecap:round;stroke-linejoin:round;stroke-miterlimit:4;stroke-dasharray:none;stroke-dashoffset:0;stroke-opacity:1"
   d="m 190.12216,666.88934 c 3.01589,-1.29922 7.88963,-3.76631 9.87159,-4.997 6.81438,-4.2314 12.98702,-10.26123 17.62765,-17.21981 1.65428,-2.48058 4.54004,-7.97057 5.39586,-10.26533 0.49183,-1.31875 0.52085,-1.34121 1.73247,-1.34121 h 1.23226 v 17.08283 17.08283 l -18.28286,-0.0191 c -13.32344,-0.0139 -18.09138,-0.1016 -17.57697,-0.3232 z"
   id="path8379"
   inkscape:connector-curvature="0"
   transform="matrix(416.66667,0,0,-416.66667,0,467777.79)" /><path
   style="opacity:1;fill:#ff8080;fill-opacity:1;fill-rule:evenodd;stroke:none;stroke-width:3.77952766;stroke-linecap:round;stroke-linejoin:round;stroke-miterlimit:4;stroke-dasharray:none;stroke-dashoffset:0;stroke-opacity:1"
   d="m 114.18119,648.66643 0.0141,-18.56523 0.97096,2.67491 c 5.42408,14.94278 17.38659,27.42182 32.09442,33.48021 l 2.34271,0.965 -17.71814,0.005 -17.71814,0.005 z"
   id="path8381"
   inkscape:connector-curvature="0"
   transform="matrix(416.66667,0,0,-416.66667,0,467777.79)" /><path
   style="opacity:1;fill:#ff8080;fill-opacity:1;fill-rule:evenodd;stroke:none;stroke-width:3.77952766;stroke-linecap:round;stroke-linejoin:round;stroke-miterlimit:4;stroke-dasharray:none;stroke-dashoffset:0;stroke-opacity:1"
   d="m 227.67616,650.12812 c 0,-19.46878 -0.0582,-19.07931 2.09994,-14.06372 4.29732,9.98732 11.86978,19.04819 21.00991,25.13951 2.37897,1.58544 8.07581,4.62727 10.34991,5.52633 1.04967,0.41499 -0.0921,0.44847 -16.16516,0.47397 l -17.2946,0.0274 z"
   id="path8383"
   inkscape:connector-curvature="0"
   transform="matrix(416.66667,0,0,-416.66667,0,467777.79)" /><path
   style="opacity:1;fill:#ff8080;fill-opacity:1;fill-rule:evenodd;stroke:none;stroke-width:3.77952766;stroke-linecap:round;stroke-linejoin:round;stroke-miterlimit:4;stroke-dasharray:none;stroke-dashoffset:0;stroke-opacity:1"
   d="m 227.67616,574.33493 v -18.63581 l 23.93008,0.0231 c 23.90662,0.0231 23.92731,0.0236 21.10647,0.52946 -9.71264,1.74177 -18.6715,5.83889 -26.40504,12.07571 -2.70252,2.17948 -7.57037,7.21987 -9.65161,9.99372 -2.90954,3.87779 -5.84588,9.05116 -7.31328,12.88488 -0.4738,1.23785 -0.82345,1.76476 -1.17105,1.76476 -0.46752,0 -0.49557,-1.05507 -0.49557,-18.63582 z"
   id="path8385"
   inkscape:connector-curvature="0"
   transform="matrix(416.66667,0,0,-416.66667,0,467777.79)" /><path
   style="opacity:1;fill:#ff8080;fill-opacity:1;fill-rule:evenodd;stroke:none;stroke-width:3.77952766;stroke-linecap:round;stroke-linejoin:round;stroke-miterlimit:4;stroke-dasharray:none;stroke-dashoffset:0;stroke-opacity:1"
   d="m 338.35553,597.24697 c -0.29058,-1.15303 -1.05609,-3.44412 -1.70114,-5.09131 -6.95719,-17.766 -22.31384,-31.06596 -40.81681,-35.35031 l -4.02463,-0.9319 23.65963,-0.0279 23.65962,-0.0279 v 21.76286 c 0,11.96957 -0.0559,21.76286 -0.12417,21.76286 -0.0683,0 -0.36191,-0.94339 -0.6525,-2.09642 z"
   id="path8387"
   inkscape:connector-curvature="0"
   transform="matrix(416.66667,0,0,-416.66667,0,467777.79)" /><path
   style="opacity:1;fill:#ff8080;fill-opacity:1;fill-rule:evenodd;stroke:none;stroke-width:3.77952766;stroke-linecap:round;stroke-linejoin:round;stroke-miterlimit:4;stroke-dasharray:none;stroke-dashoffset:0;stroke-opacity:1"
   d="m 306.14986,666.00599 c 15.10732,-6.53752 27.14885,-20.19289 32.02265,-36.31439 l 0.90541,-2.99489 0.0271,20.26542 0.0271,20.26541 -17.8695,-0.0143 -17.86951,-0.0143 z"
   id="path8389"
   inkscape:connector-curvature="0"
   transform="matrix(416.66667,0,0,-416.66667,0,467777.79)" /><path
   style="opacity:1;fill:#ff8080;fill-opacity:1;fill-rule:evenodd;stroke:none;stroke-width:3.77952766;stroke-linecap:round;stroke-linejoin:round;stroke-miterlimit:4;stroke-dasharray:none;stroke-dashoffset:0;stroke-opacity:1"
   d="m 454.54901,575.28445 -0.0138,-19.46678 22.46167,0.0401 c 20.07651,0.0358 22.19529,0.0985 19.95311,0.58956 -18.38909,4.02787 -34.23535,17.64856 -41.27049,35.47417 l -1.1168,2.82974 z"
   id="path8391"
   inkscape:connector-curvature="0"
   transform="matrix(416.66667,0,0,-416.66667,0,467777.79)" /><path
   style="opacity:1;fill:#ff8080;fill-opacity:1;fill-rule:evenodd;stroke:none;stroke-width:3.77952766;stroke-linecap:round;stroke-linejoin:round;stroke-miterlimit:4;stroke-dasharray:none;stroke-dashoffset:0;stroke-opacity:1"
   d="m 554.93465,577.126 c -7.63239,-9.96475 -19.61946,-17.53808 -32.71489,-20.66897 -2.17366,-0.51969 -0.25671,-0.57591 20.66473,-0.60609 l 23.06065,-0.0333 v 3.25641 c 0,2.63772 -0.26804,4.08555 -1.41079,7.62042 -0.77593,2.4002 -1.70998,6.1173 -2.07565,8.26023 l -0.66486,3.89623 -2.29749,0.61558 -2.2975,0.61558 z"
   id="path8393"
   inkscape:connector-curvature="0"
   transform="matrix(416.66667,0,0,-416.66667,0,467777.79)" /><path
   style="opacity:1;fill:#ff8080;fill-opacity:1;fill-rule:evenodd;stroke:none;stroke-width:3.77952766;stroke-linecap:round;stroke-linejoin:round;stroke-miterlimit:4;stroke-dasharray:none;stroke-dashoffset:0;stroke-opacity:1"
   d="m 530.8051,666.73691 c 8.90433,-3.8941 15.48592,-8.43381 21.17444,-14.60525 5.59728,-6.07246 10.74369,-15.00654 12.92643,-22.44006 l 0.99666,-3.39421 0.0213,20.46508 0.0213,20.46507 -18.06917,-0.027 c -13.43675,-0.0201 -17.81323,-0.13896 -17.07087,-0.46361 z"
   id="path8395"
   inkscape:connector-curvature="0"
   transform="matrix(416.66667,0,0,-416.66667,0,467777.79)" /><path
   style="opacity:1;fill:#ff8080;fill-opacity:1;fill-rule:evenodd;stroke:none;stroke-width:3.77952766;stroke-linecap:round;stroke-linejoin:round;stroke-miterlimit:4;stroke-dasharray:none;stroke-dashoffset:0;stroke-opacity:1"
   d="m 454.55478,649.15838 0.0195,-18.06916 0.98079,2.54971 c 5.40274,14.0452 17.00739,26.19552 30.74815,32.19397 l 3.17239,1.38489 -17.47018,0.005 -17.47019,0.005 z"
   id="path8397"
   inkscape:connector-curvature="0"
   transform="matrix(416.66667,0,0,-416.66667,0,467777.79)" /><path
   style="opacity:1;fill:#ff8080;fill-opacity:1;fill-rule:evenodd;stroke:none;stroke-width:3.77952766;stroke-linecap:round;stroke-linejoin:round;stroke-miterlimit:4;stroke-dasharray:none;stroke-dashoffset:0;stroke-opacity:1"
   d="m 795.06774,574.09879 -0.008,-18.56831 22.16218,0.0526 c 20.81855,0.0494 21.89587,0.12206 17.76968,1.19886 -7.32873,1.91256 -18.3251,7.80794 -23.78053,12.74923 -5.68027,5.14495 -11.15609,12.43852 -14.12192,18.80983 l -2.0138,4.32615 z"
   id="path8399"
   inkscape:connector-curvature="0"
   transform="matrix(416.66667,0,0,-416.66667,0,467777.79)" /><path
   style="opacity:1;fill:#ff8080;fill-opacity:1;fill-rule:evenodd;stroke:none;stroke-width:3.77952766;stroke-linecap:round;stroke-linejoin:round;stroke-miterlimit:4;stroke-dasharray:none;stroke-dashoffset:0;stroke-opacity:1"
   d="m 906.86913,604.16296 c 0,-3.2748 -2.56514,-11.51312 -5.31883,-17.0822 -3.6949,-7.47256 -9.92501,-15.08128 -16.27335,-19.87434 -7.66169,-5.78464 -7.39234,-7.63316 1.47004,-10.08906 3.86442,-1.07088 8.19679,-1.58688 13.32362,-1.58688 h 7.59716 v 25.15707 c 0,13.83639 -0.17969,25.15707 -0.39932,25.15707 -0.21962,0 -0.39932,-0.75675 -0.39932,-1.68166 z"
   id="path8403"
   inkscape:connector-curvature="0"
   transform="matrix(416.66667,0,0,-416.66667,0,467777.79)" /><path
   style="opacity:1;fill:#ff8080;fill-opacity:1;fill-rule:evenodd;stroke:none;stroke-width:3.77952766;stroke-linecap:round;stroke-linejoin:round;stroke-miterlimit:4;stroke-dasharray:none;stroke-dashoffset:0;stroke-opacity:1"
   d="m 898.31642,552.17668 c 3.42069,-1.90225 4.87406,-2.84784 7.44751,-4.84548 l 1.76475,-1.36989 v 3.95781 3.95782 h -6.13485 -6.13485 z"
   id="path8405"
   inkscape:connector-curvature="0"
   transform="matrix(416.66667,0,0,-416.66667,0,467777.79)" /><path
   style="opacity:1;fill:#ff8080;fill-opacity:1;fill-rule:evenodd;stroke:none;stroke-width:3.77952766;stroke-linecap:round;stroke-linejoin:round;stroke-miterlimit:4;stroke-dasharray:none;stroke-dashoffset:0;stroke-opacity:1"
   d="m 869.4335,667.27731 c 0.0647,-0.0598 1.13414,-0.51183 2.37653,-1.00458 10.8499,-4.30318 21.19122,-13.24424 27.48901,-23.76688 4.21744,-7.04669 7.15678,-15.99942 7.91556,-24.10946 0.148,-1.58185 0.25217,7.18594 0.27592,23.22418 l 0.0382,25.76543 H 888.4223 c -10.50853,0 -19.05347,-0.0489 -18.98876,-0.10869 z"
   id="path8409"
   inkscape:connector-curvature="0"
   transform="matrix(416.66667,0,0,-416.66667,0,467777.79)" /><path
   style="opacity:1;fill:#ff8080;fill-opacity:1;fill-rule:evenodd;stroke:none;stroke-width:3.77952766;stroke-linecap:round;stroke-linejoin:round;stroke-miterlimit:4;stroke-dasharray:none;stroke-dashoffset:0;stroke-opacity:1"
   d="m 794.5931,648.96195 0.009,-18.42404 1.08494,2.84877 c 5.7111,14.99577 17.80512,27.29054 32.63965,33.18141 l 1.97653,0.78489 -17.85933,0.0165 -17.85932,0.0165 z"
   id="path8411"
   inkscape:connector-curvature="0"
   transform="matrix(416.66667,0,0,-416.66667,0,467777.79)" /><path
   style="opacity:1;fill:#cccccc;fill-opacity:1;fill-rule:evenodd;stroke:none;stroke-width:3.77952766;stroke-linecap:round;stroke-linejoin:round;stroke-miterlimit:4;stroke-dasharray:none;stroke-dashoffset:0;stroke-opacity:1"
   d="m 116.39573,291.19864 c 0.48732,-33.13048 0.69292,-35.11088 4.43588,-42.72708 5.0212,-10.21718 16.22859,-21.41766 26.42333,-26.40705 11.63032,-5.69196 30.11449,-6.30221 43.11463,-1.4234 12.96878,4.86704 26.12464,17.93712 30.89886,30.69737 3.12756,8.35916 3.45431,12.32411 3.45431,41.91668 v 32.6842 h -54.419 -54.41901 z"
   id="path8413"
   inkscape:connector-curvature="0"
   transform="matrix(416.66667,0,0,-416.66667,0,467777.79)" /><path
   style="opacity:1;fill:#cccccc;fill-opacity:1;fill-rule:evenodd;stroke:none;stroke-width:3.77952766;stroke-linecap:round;stroke-linejoin:round;stroke-miterlimit:4;stroke-dasharray:none;stroke-dashoffset:0;stroke-opacity:1"
   d="m 229.8022,291.19864 c 0.48732,-33.13048 0.69292,-35.11088 4.43588,-42.72708 5.0212,-10.21718 16.22859,-21.41766 26.42333,-26.40705 11.63032,-5.69196 30.11449,-6.30221 43.11463,-1.4234 12.96877,4.86704 26.12464,17.93712 30.89886,30.69737 3.12756,8.35916 3.45431,12.32411 3.45431,41.91668 v 32.6842 h -54.419 -54.41901 z"
   id="path8415"
   inkscape:connector-curvature="0"
   transform="matrix(416.66667,0,0,-416.66667,0,467777.79)" /><path
   style="opacity:1;fill:#cccccc;fill-opacity:1;fill-rule:evenodd;stroke:none;stroke-width:3.77952766;stroke-linecap:round;stroke-linejoin:round;stroke-miterlimit:4;stroke-dasharray:none;stroke-dashoffset:0;stroke-opacity:1"
   d="m 456.3275,293.25516 c 0,-39.98508 1.45252,-45.43748 15.97274,-59.9577 11.46453,-11.46453 22.28425,-15.97275 38.33458,-15.97275 15.9836,0 27.26481,4.64741 38.46236,15.84496 14.28431,14.28431 15.84496,20.20244 15.84496,60.08549 v 32.6842 H 510.63482 456.3275 Z"
   id="path8417"
   inkscape:connector-curvature="0"
   transform="matrix(416.66667,0,0,-416.66667,0,467777.79)" /><path
   style="opacity:1;fill:#cccccc;fill-opacity:1;fill-rule:evenodd;stroke:none;stroke-width:3.77952766;stroke-linecap:round;stroke-linejoin:round;stroke-miterlimit:4;stroke-dasharray:none;stroke-dashoffset:0;stroke-opacity:1"
   d="m 582.7494,300.14602 c -13.57885,-36.31757 -14.61271,-40.71553 -14.61271,-62.16158 v -20.65973 h 50.89882 50.89883 l 4.21483,11.58024 c 3.45283,9.48665 4.21344,14.33047 4.20713,26.79253 l -0.008,15.21228 -45.123,15.81757 c -24.81764,8.69966 -46.01147,16.12298 -47.09738,16.49625 -1.08592,0.37328 -2.60639,-1.01162 -3.37883,-3.07756 z"
   id="path8419"
   inkscape:connector-curvature="0"
   transform="matrix(416.66667,0,0,-416.66667,0,467777.79)" /><path
   style="opacity:1;fill:#cccccc;fill-opacity:1;fill-rule:evenodd;stroke:none;stroke-width:3.77952766;stroke-linecap:round;stroke-linejoin:round;stroke-miterlimit:4;stroke-dasharray:none;stroke-dashoffset:0;stroke-opacity:1"
   d="m 568.13669,211.90866 c 0,-4.28337 10.64306,-17.60904 18.25228,-22.85281 26.70173,-18.40108 64.83828,-9.42971 79.14764,18.61895 l 3.29328,6.45536 h -50.3466 c -41.93094,0 -50.3466,-0.37133 -50.3466,-2.2215 z"
   id="path8421"
   inkscape:connector-curvature="0"
   transform="matrix(416.66667,0,0,-416.66667,0,467777.79)" /><path
   style="opacity:1;fill:#cccccc;fill-opacity:1;fill-rule:evenodd;stroke:none;stroke-width:3.77952766;stroke-linecap:round;stroke-linejoin:round;stroke-miterlimit:4;stroke-dasharray:none;stroke-dashoffset:0;stroke-opacity:1"
   d="m 796.5469,293.25516 c 0,-39.88305 1.56065,-45.80118 15.84496,-60.08549 11.19755,-11.19755 22.47876,-15.84496 38.46236,-15.84496 15.98361,0 27.26481,4.64741 38.46237,15.84496 14.2843,14.28431 15.84495,20.20244 15.84495,60.08549 v 32.6842 H 850.85422 796.5469 Z"
   id="path8423"
   inkscape:connector-curvature="0"
   transform="matrix(416.66667,0,0,-416.66667,0,467777.79)" /><path
   style="opacity:1;fill:#cccccc;fill-opacity:1;fill-rule:evenodd;stroke:none;stroke-width:3.77952766;stroke-linecap:round;stroke-linejoin:round;stroke-miterlimit:4;stroke-dasharray:none;stroke-dashoffset:0;stroke-opacity:1"
   d="m 857.88229,209.55483 c -8.74977,-6.42646 -12.50821,-10.88758 -17.67629,-20.98105 -3.88552,-7.58858 -4.50001,-10.63404 -4.512,-22.36184 -0.0127,-12.45874 0.70959,-15.58167 8.77113,-37.92134 l 8.785,-24.34451 14.37547,-0.0296 c 11.64996,-0.0239 16.72243,0.80101 26.75434,4.35118 l 12.37888,4.38073 v 50.74086 50.74085 h -21.32355 c -20.95396,0 -21.43152,-0.0793 -27.55298,-4.57533 z"
   id="path8425"
   inkscape:connector-curvature="0"
   transform="matrix(416.66667,0,0,-416.66667,0,467777.79)" /><path
   style="opacity:1;fill:#cccccc;fill-opacity:1;fill-rule:evenodd;stroke:none;stroke-width:3.77952766;stroke-linecap:round;stroke-linejoin:round;stroke-miterlimit:4;stroke-dasharray:none;stroke-dashoffset:0;stroke-opacity:1"
   d="m 909.95337,164.00916 v -50.121 l 24.35843,8.84201 c 13.39714,4.8631 24.66003,9.09095 25.02866,9.39521 1.54075,1.27171 -19.72371,56.32545 -24.68705,63.91485 -5.40234,8.26067 -17.46082,18.08993 -22.1926,18.08993 -2.22513,0 -2.50744,-5.64302 -2.50744,-50.121 z"
   id="path8427"
   inkscape:connector-curvature="0"
   transform="matrix(416.66667,0,0,-416.66667,0,467777.79)" /><path
   style="opacity:1;fill:#cccccc;fill-opacity:1;fill-rule:evenodd;stroke:none;stroke-width:3.77952766;stroke-linecap:round;stroke-linejoin:round;stroke-miterlimit:4;stroke-dasharray:none;stroke-dashoffset:0;stroke-opacity:1"
   d="m 145.33174,662.10198 c -9.87042,-4.91864 -21.81709,-17.31558 -26.54138,-27.54173 -2.77197,-6.00016 -3.47426,-10.46247 -3.4483,-21.91018 0.0301,-13.25909 0.4517,-15.153 5.4293,-24.38772 6.46425,-11.99285 14.95324,-20.03531 27.09053,-25.66553 12.83186,-5.95241 30.72671,-5.92947 43.63196,0.0559 11.60777,5.38364 22.73661,16.51247 28.12025,28.12025 3.43451,7.40521 4.2284,11.48365 4.26501,21.91065 0.0397,11.30616 -0.57196,14.06499 -5.20484,23.47571 -5.80537,11.79239 -15.34013,21.29939 -26.73199,26.6542 -5.7116,2.68477 -10.21148,3.34519 -22.79311,3.34519 -13.58545,0 -16.76245,-0.54113 -23.81743,-4.05678 z"
   id="path8429"
   inkscape:connector-curvature="0"
   transform="matrix(416.66667,0,0,-416.66667,0,467777.79)" /><path
   style="opacity:1;fill:#cccccc;fill-opacity:1;fill-rule:evenodd;stroke:none;stroke-width:3.77952766;stroke-linecap:round;stroke-linejoin:round;stroke-miterlimit:4;stroke-dasharray:none;stroke-dashoffset:0;stroke-opacity:1"
   d="m 259.06414,662.39067 c -10.36436,-4.84956 -20.33916,-14.98339 -25.9057,-26.31871 -3.88378,-7.90866 -4.43404,-10.85441 -4.37512,-23.42189 0.0585,-12.47945 0.64523,-15.48904 4.44847,-22.8185 14.07113,-27.11732 42.47626,-38.22943 70.42942,-27.55205 8.17739,3.12355 19.63618,12.64241 24.67896,20.5009 6.53417,10.18262 10.39324,25.58392 9.06809,36.1901 -2.18839,17.51528 -14.70363,35.45914 -30.07355,43.1183 -7.13388,3.55496 -10.19923,4.06797 -24.22576,4.05434 -13.47375,-0.0131 -17.34389,-0.61708 -24.04481,-3.75249 z"
   id="path8431"
   inkscape:connector-curvature="0"
   transform="matrix(416.66667,0,0,-416.66667,0,467777.79)" /><path
   style="opacity:1;fill:#cccccc;fill-opacity:1;fill-rule:evenodd;stroke:none;stroke-width:3.77952766;stroke-linecap:round;stroke-linejoin:round;stroke-miterlimit:4;stroke-dasharray:none;stroke-dashoffset:0;stroke-opacity:1"
   d="m 485.55114,662.10198 c -9.87625,-4.92155 -21.82316,-17.32251 -26.53331,-27.54173 -2.75044,-5.96742 -3.47269,-10.52494 -3.47217,-21.91018 5.8e-4,-12.7202 0.53891,-15.44044 4.67527,-23.62445 14.09012,-27.87806 47.11322,-38.75027 75.0413,-24.70587 9.67205,4.86385 20.95026,17.45762 25.02729,27.94664 10.36851,26.67513 -0.27233,55.42122 -25.49055,68.86239 -8.75978,4.66891 -10.57388,5.02998 -25.27207,5.02998 -13.75499,0 -16.90415,-0.53285 -23.97576,-4.05678 z"
   id="path8433"
   inkscape:connector-curvature="0"
   transform="matrix(416.66667,0,0,-416.66667,0,467777.79)" /><path
   style="opacity:1;fill:#cccccc;fill-opacity:1;fill-rule:evenodd;stroke:none;stroke-width:3.77952766;stroke-linecap:round;stroke-linejoin:round;stroke-miterlimit:4;stroke-dasharray:none;stroke-dashoffset:0;stroke-opacity:1"
   d="m 599.16266,635.71956 c -9.94361,-3.82558 -20.44086,-12.5944 -26.48375,-22.12305 -4.41692,-6.96474 -4.54222,-7.76077 -4.54222,-28.85605 0,-31.62637 -5.10473,-28.79362 51.88722,-28.79362 h 46.91426 l 3.44372,9.18433 c 3.74188,9.97947 4.52325,25.9558 1.72522,35.27463 -4.52307,15.06409 -18.35349,29.82812 -33.116,35.35149 -11.40492,4.26712 -28.68163,4.25076 -39.82845,-0.0377 z"
   id="path8435"
   inkscape:connector-curvature="0"
   transform="matrix(416.66667,0,0,-416.66667,0,467777.79)" /><path
   style="opacity:1;fill:#cccccc;fill-opacity:1;fill-rule:evenodd;stroke:none;stroke-width:3.77952766;stroke-linecap:round;stroke-linejoin:round;stroke-miterlimit:4;stroke-dasharray:none;stroke-dashoffset:0;stroke-opacity:1"
   d="m 576.12306,551.27948 c 0,-2.41417 12.79003,-12.61989 20.64386,-16.47263 5.23071,-2.56595 10.94117,-3.74255 20.08663,-4.1387 16.70112,-0.72344 27.89828,3.28496 39.55513,14.16009 l 8.3631,7.80227 -44.32436,0.0609 c -26.03156,0.0358 -44.32436,-0.54694 -44.32436,-1.41192 z"
   id="path8437"
   inkscape:connector-curvature="0"
   transform="matrix(416.66667,0,0,-416.66667,0,467777.79)" /><path
   style="opacity:1;fill:#cccccc;fill-opacity:1;fill-rule:evenodd;stroke:none;stroke-width:3.77952766;stroke-linecap:round;stroke-linejoin:round;stroke-miterlimit:4;stroke-dasharray:none;stroke-dashoffset:0;stroke-opacity:1"
   d="m 844.37333,549.60676 c -8.46505,-4.47568 -18.43287,-15.18852 -23.20192,-24.93609 -13.99709,-28.60903 1.3558,-64.78702 31.86763,-75.09379 15.60346,-5.27078 36.00547,-2.38571 48.52864,6.86249 l 5.19114,3.83359 v 41.48302 41.48302 l -7.50045,4.75665 c -7.35428,4.66395 -7.90679,4.75527 -28.35162,4.68605 -17.23963,-0.0584 -21.83536,-0.59096 -26.53342,-3.07494 z"
   id="path8439"
   inkscape:connector-curvature="0"
   transform="matrix(416.66667,0,0,-416.66667,0,467777.79)" /><path
   style="opacity:1;fill:#cccccc;fill-opacity:1;fill-rule:evenodd;stroke:none;stroke-width:3.77952766;stroke-linecap:round;stroke-linejoin:round;stroke-miterlimit:4;stroke-dasharray:none;stroke-dashoffset:0;stroke-opacity:1"
   d="m 910.01828,500.84599 -0.0649,-38.32947 5.37307,7.55734 c 7.02382,9.87915 11.2585,24.91046 10.01017,35.5318 -1.36296,11.59668 -5.21696,21.83143 -10.58504,28.10979 l -4.66837,5.46001 z"
   id="path8441"
   inkscape:connector-curvature="0"
   transform="matrix(416.66667,0,0,-416.66667,0,467777.79)" /><path
   style="opacity:1;fill:#ff8080;fill-opacity:1;fill-rule:evenodd;stroke:none;stroke-width:3.77952766;stroke-linecap:round;stroke-linejoin:round;stroke-miterlimit:4;stroke-dasharray:none;stroke-dashoffset:0;stroke-opacity:1"
   d="m 567.96448,642.96666 c 0,-20.69705 0.2471,-24.28303 1.67325,-24.28303 0.92029,0 4.85922,3.17692 8.75319,7.05982 7.44324,7.4221 17.7232,13.33183 26.8452,15.43272 2.79537,0.6438 9.65674,1.17225 15.24748,1.17434 36.85702,0.0137 63.88064,-34.59272 55.33085,-70.8567 -0.91996,-3.90202 -2.70165,-9.11158 -3.95931,-11.57679 l -2.28666,-4.48222 h 4.54073 4.54073 v 55.90745 55.90745 h -55.34273 -55.34273 z"
   id="path8447"
   inkscape:connector-curvature="0"
   transform="matrix(416.66667,0,0,-416.66667,0,467777.79)" /><path
   style="opacity:1;fill:#ff8080;fill-opacity:1;fill-rule:evenodd;stroke:none;stroke-width:2.26771641;stroke-linecap:round;stroke-linejoin:round;stroke-miterlimit:4;stroke-dasharray:none;stroke-dashoffset:0;stroke-opacity:1"
   d="m 676.19008,225.82107 c -1.36997,-3.95881 -2.60425,-7.5155 -2.74285,-7.90374 -0.18043,-0.50547 0.56692,-0.7059 2.63205,-0.7059 h 2.88403 v 7.9061 c 0,4.34836 -0.0635,7.90504 -0.14118,7.90374 -0.0777,-10e-4 -1.26207,-3.24139 -2.63205,-7.2002 z"
   id="path8449"
   inkscape:connector-curvature="0"
   transform="matrix(416.66667,0,0,-416.66667,0,467777.79)" /><path
   style="opacity:1;fill:#cccccc;fill-opacity:1;fill-rule:evenodd;stroke:none;stroke-width:2.26771665;stroke-linecap:round;stroke-linejoin:round;stroke-miterlimit:4;stroke-dasharray:none;stroke-dashoffset:0;stroke-opacity:1"
   d="m 564.30725,249.29884 c -1.78566,-6.39574 -2.14906,-9.62576 -1.9318,-17.1707 0.16244,-5.64131 0.39157,-7.74123 1.1889,-10.89604 0.96788,-3.82961 1.28505,-4.61701 1.69475,-4.20731 0.11212,0.11212 0.15704,8.18334 0.0998,17.93605 l -0.10403,17.7322 z"
   id="path8451"
   inkscape:connector-curvature="0"
   transform="matrix(416.66667,0,0,-416.66667,0,467777.79)" /><path
   style="opacity:1;fill:#cccccc;fill-opacity:1;fill-rule:evenodd;stroke:none;stroke-width:2.26771641;stroke-linecap:round;stroke-linejoin:round;stroke-miterlimit:4;stroke-dasharray:none;stroke-dashoffset:0;stroke-opacity:1"
   d="m 885.21891,220.67944 c -3.93795,-0.35994 -7.88765,-1.11255 -11.36502,-2.16557 -1.97745,-0.59881 -4.78444,-1.57575 -4.92158,-1.71289 -0.0367,-0.0367 8.58404,-0.0668 19.15727,-0.0668 h 19.22407 v 0.6129 0.61291 l -1.4471,0.44191 c -3.15345,0.96299 -6.40852,1.65033 -9.84733,2.07936 -2.10633,0.26279 -8.75805,0.38484 -10.80031,0.19817 z"
   id="path8453"
   inkscape:connector-curvature="0"
   transform="matrix(416.66667,0,0,-416.66667,0,467777.79)" />







<path
   style="opacity:1;fill:none;fill-opacity:1;fill-rule:evenodd;stroke:#000000;stroke-width:1574.80310059;stroke-linecap:round;stroke-linejoin:round;stroke-miterlimit:4;stroke-dasharray:none;stroke-dashoffset:0;stroke-opacity:1;marker-start:url(#TriangleInL)"
   id="path8502"
   transform="scale(1,-1)"
   sodipodi:type="arc"
   sodipodi:cx="86862.516"
   sodipodi:cy="-368870.47"
   sodipodi:rx="33333.332"
   sodipodi:ry="33333.332"
   sodipodi:start="4.6896997"
   sodipodi:end="0.23561945"
   d="m 86106.271,-402195.22 a 33333.332,33333.332 0 0 1 26697.679,12392.65 33333.332,33333.332 0 0 1 6470.9,28713.61"
   sodipodi:open="true" /><path
   style="opacity:1;fill:none;fill-opacity:1;fill-rule:evenodd;stroke:#000000;stroke-width:1574.80310059;stroke-linecap:round;stroke-linejoin:round;stroke-miterlimit:4;stroke-dasharray:none;stroke-dashoffset:0;stroke-opacity:1;marker-start:url(#TriangleInL-5)"
   id="path8502-2"
   sodipodi:type="arc"
   sodipodi:cx="226716"
   sodipodi:cy="-373701.5"
   sodipodi:rx="33333.332"
   sodipodi:ry="33333.332"
   sodipodi:start="4.6896997"
   sodipodi:end="6.0109139"
   d="m 225959.76,-407026.25 a 33333.332,33333.332 0 0 1 32861.66,24360.75"
   sodipodi:open="true"
   transform="scale(1,-1)" /><path
   style="opacity:1;fill:none;fill-opacity:1;fill-rule:evenodd;stroke:#000000;stroke-width:1574.80310059;stroke-linecap:round;stroke-linejoin:round;stroke-miterlimit:4;stroke-dasharray:none;stroke-dashoffset:0;stroke-opacity:1;marker-start:url(#TriangleInL-5-9)"
   id="path8502-2-2"
   sodipodi:type="arc"
   sodipodi:cx="351001.22"
   sodipodi:cy="-369466.09"
   sodipodi:rx="33333.332"
   sodipodi:ry="33333.332"
   sodipodi:start="4.6896997"
   sodipodi:end="5.1033427"
   d="m 350244.97,-402790.85 a 33333.332,33333.332 0 0 1 13458.59,2506.56"
   sodipodi:open="true"
   transform="scale(1,-1)" /><path
   style="opacity:1;fill:none;fill-opacity:1;fill-rule:evenodd;stroke:#000000;stroke-width:1574.80310059;stroke-linecap:round;stroke-linejoin:round;stroke-miterlimit:4;stroke-dasharray:none;stroke-dashoffset:0;stroke-opacity:1;marker-start:url(#TriangleInL-5-9-7)"
   id="path8502-2-2-9"
   sodipodi:type="arc"
   sodipodi:cx="350581.19"
   sodipodi:cy="-228698.84"
   sodipodi:rx="33333.332"
   sodipodi:ry="33333.332"
   sodipodi:start="4.6896997"
   sodipodi:end="5.1033427"
   d="m 349824.94,-262023.6 a 33333.332,33333.332 0 0 1 13458.59,2506.56"
   sodipodi:open="true"
   transform="scale(1,-1)" /><path
   style="opacity:1;fill:none;fill-opacity:1;fill-rule:evenodd;stroke:#000000;stroke-width:1574.80310059;stroke-linecap:round;stroke-linejoin:round;stroke-miterlimit:4;stroke-dasharray:none;stroke-dashoffset:0;stroke-opacity:1;marker-start:url(#TriangleInL-5-3)"
   id="path8502-2-0"
   sodipodi:type="arc"
   sodipodi:cx="225115.34"
   sodipodi:cy="-227256.44"
   sodipodi:rx="33333.332"
   sodipodi:ry="33333.332"
   sodipodi:start="4.6896997"
   sodipodi:end="6.0109139"
   d="m 224359.1,-260581.19 a 33333.332,33333.332 0 0 1 32861.66,24360.76"
   sodipodi:open="true"
   transform="scale(1,-1)" /><path
   style="opacity:1;fill:none;fill-opacity:1;fill-rule:evenodd;stroke:#000000;stroke-width:1574.80310059;stroke-linecap:round;stroke-linejoin:round;stroke-miterlimit:4;stroke-dasharray:none;stroke-dashoffset:0;stroke-opacity:1;marker-start:url(#TriangleInL-6)"
   id="path8502-6"
   sodipodi:type="arc"
   sodipodi:cx="83793.086"
   sodipodi:cy="-224648.34"
   sodipodi:rx="33333.332"
   sodipodi:ry="33333.332"
   sodipodi:start="4.6896997"
   sodipodi:end="0.23561945"
   d="m 83036.842,-257973.1 a 33333.332,33333.332 0 0 1 26697.678,12392.66 33333.332,33333.332 0 0 1 6470.9,28713.61"
   sodipodi:open="true"
   transform="scale(1,-1)" /><circle
   style="opacity:1;fill:none;fill-opacity:1;fill-rule:evenodd;stroke:#ff0000;stroke-width:1574.80310059;stroke-linecap:round;stroke-linejoin:round;stroke-miterlimit:4;stroke-dasharray:none;stroke-dashoffset:0;stroke-opacity:1"
   id="path8875"
   transform="scale(1,-1)"
   cx="284035.62"
   cy="-359506.97"
   r="10416.667" /><circle
   style="opacity:1;fill:none;fill-opacity:1;fill-rule:evenodd;stroke:#ff0000;stroke-width:1574.80310059;stroke-linecap:round;stroke-linejoin:round;stroke-miterlimit:4;stroke-dasharray:none;stroke-dashoffset:0;stroke-opacity:1"
   id="path8875-1"
   cx="360480.06"
   cy="-427148.09"
   r="10416.667"
   transform="scale(1,-1)" /><rect
   style="opacity:0.98999999;fill:#ffffff;fill-opacity:1;fill-rule:evenodd;stroke:none;stroke-width:787.40161133;stroke-linecap:round;stroke-linejoin:round;stroke-miterlimit:4;stroke-dasharray:none;stroke-dashoffset:0;stroke-opacity:1"
   id="rect8015"
   width="14588.644"
   height="277654.81"
   x="157936.47"
   y="-445178.97"
   transform="scale(1,-1)" /><rect
   style="display:inline;opacity:1;fill:#ffffff;fill-opacity:1;fill-rule:evenodd;stroke:none;stroke-width:787.40161133;stroke-linecap:round;stroke-linejoin:round;stroke-miterlimit:4;stroke-dasharray:none;stroke-dashoffset:0;stroke-opacity:1"
   id="rect8015-3"
   width="14588.644"
   height="277654.81"
   x="299822.78"
   y="-446120.19"
   transform="scale(1,-1)" /><g
   style="stroke-width:0.03384186"
   transform="matrix(1876.5206,0,0,-1876.5206,-588514.02,494268.62)"
   ns1:version="0.8.1"
   ns1:texconverter="pdflatex"
   ns1:pdfconverter="pdf2svg"
   ns1:text="\\centering\nGrid \\\\aware"
   ns1:preamble="/home/xmrazek7/.config/inkscape/extensions/default_packages.tex"
   ns1:scale="180.0"
   ns1:alignment="middle center"
   inkscapeversion="0.92.3"
   ns1:jacobian_sqrt="63.504962"
   id="g8235"><g
   style="stroke-width:0.03638"
   id="g8233"
   transform="matrix(0.93023255,0,0,0.93023255,23.993533,9.1799244)">
<g
   style="fill:#000000;fill-opacity:1;stroke-width:0.03638"
   id="g8215">
  <path
   inkscape:connector-curvature="0"
   style="stroke:none;stroke-width:0"
   d="m 5.90625,-0.625 c 0.140625,0.21875 0.53125,0.609375 0.640625,0.609375 0.09375,0 0.09375,-0.078125 0.09375,-0.21875 V -1.96875 c 0,-0.390625 0.03125,-0.4375 0.6875,-0.4375 v -0.3125 c -0.375,0 -0.921875,0.03125 -1.21875,0.03125 -0.390625,0 -1.25,0 -1.609375,-0.03125 v 0.3125 H 4.828125 C 5.71875,-2.40625 5.75,-2.296875 5.75,-1.9375 v 0.640625 c 0,1.125 -1.265625,1.203125 -1.546875,1.203125 -0.640625,0 -2.625,-0.34375 -2.625,-3.3125 0,-2.984375 1.96875,-3.3125 2.5625,-3.3125 1.078125,0 1.984375,0.890625 2.171875,2.359375 0.03125,0.140625 0.03125,0.171875 0.171875,0.171875 0.15625,0 0.15625,-0.03125 0.15625,-0.234375 V -6.78125 c 0,-0.171875 0,-0.25 -0.109375,-0.25 -0.046875,0 -0.078125,0 -0.15625,0.125 l -0.5,0.734375 C 5.546875,-6.484375 5.015625,-7.03125 4.03125,-7.03125 c -1.859375,0 -3.46875,1.578125 -3.46875,3.625 0,2.046875 1.59375,3.625 3.484375,3.625 0.734375,0 1.53125,-0.265625 1.859375,-0.84375 z m 0,0"
   transform="translate(295.613,134.765)"
   id="path8207" />
<path
   inkscape:connector-curvature="0"
   style="stroke:none;stroke-width:0"
   d="M 1.671875,-3.3125 V -4.40625 L 0.28125,-4.296875 v 0.3125 c 0.703125,0 0.78125,0.0625 0.78125,0.5625 V -0.75 c 0,0.4375 -0.109375,0.4375 -0.78125,0.4375 V 0 c 0.390625,-0.015625 0.859375,-0.03125 1.140625,-0.03125 0.390625,0 0.859375,0 1.265625,0.03125 V -0.3125 H 2.46875 c -0.734375,0 -0.75,-0.109375 -0.75,-0.46875 V -2.3125 c 0,-0.984375 0.421875,-1.875 1.171875,-1.875 0.0625,0 0.09375,0 0.109375,0.015625 -0.03125,0 -0.234375,0.125 -0.234375,0.390625 0,0.265625 0.21875,0.421875 0.4375,0.421875 0.171875,0 0.421875,-0.125 0.421875,-0.4375 0,-0.3125 -0.3125,-0.609375 -0.734375,-0.609375 -0.734375,0 -1.09375,0.671875 -1.21875,1.09375 z m 0,0"
   transform="translate(303.43065,134.765)"
   id="path8209" />
<path
   inkscape:connector-curvature="0"
   style="stroke:none;stroke-width:0"
   d="M 1.765625,-4.40625 0.375,-4.296875 v 0.3125 c 0.640625,0 0.734375,0.0625 0.734375,0.546875 V -0.75 c 0,0.4375 -0.109375,0.4375 -0.78125,0.4375 V 0 C 0.640625,-0.015625 1.1875,-0.03125 1.421875,-0.03125 1.78125,-0.03125 2.125,-0.015625 2.46875,0 v -0.3125 c -0.671875,0 -0.703125,-0.046875 -0.703125,-0.4375 z m 0.03125,-1.734375 c 0,-0.3125 -0.234375,-0.53125 -0.515625,-0.53125 -0.3125,0 -0.53125,0.265625 -0.53125,0.53125 0,0.265625 0.21875,0.53125 0.53125,0.53125 0.28125,0 0.515625,-0.21875 0.515625,-0.53125 z m 0,0"
   transform="translate(307.333,134.765)"
   id="path8211" />
<path
   inkscape:connector-curvature="0"
   style="stroke:none;stroke-width:0"
   d="m 3.78125,-0.546875 v 0.65625 L 5.25,0 v -0.3125 c -0.6875,0 -0.78125,-0.0625 -0.78125,-0.5625 V -6.921875 L 3.046875,-6.8125 V -6.5 c 0.6875,0 0.765625,0.0625 0.765625,0.5625 v 2.15625 c -0.28125,-0.359375 -0.71875,-0.625 -1.25,-0.625 -1.171875,0 -2.21875,0.984375 -2.21875,2.265625 0,1.265625 0.96875,2.25 2.109375,2.25 0.640625,0 1.078125,-0.34375 1.328125,-0.65625 z m 0,-2.671875 v 2.046875 c 0,0.171875 0,0.1875 -0.109375,0.359375 C 3.375,-0.328125 2.9375,-0.109375 2.5,-0.109375 2.046875,-0.109375 1.6875,-0.375 1.453125,-0.75 1.203125,-1.15625 1.171875,-1.71875 1.171875,-2.140625 1.171875,-2.5 1.1875,-3.09375 1.46875,-3.546875 1.6875,-3.859375 2.0625,-4.1875 2.609375,-4.1875 c 0.34375,0 0.765625,0.15625 1.0625,0.59375 0.109375,0.171875 0.109375,0.1875 0.109375,0.375 z m 0,0"
   transform="translate(310.10061,134.765)"
   id="path8213" />
</g>
<g
   style="fill:#000000;fill-opacity:1;stroke-width:0.03638"
   id="g8219">
  <path
   inkscape:connector-curvature="0"
   style="stroke:none;stroke-width:0"
   d="m 3.3125,-0.75 c 0.046875,0.390625 0.3125,0.8125 0.78125,0.8125 0.21875,0 0.828125,-0.140625 0.828125,-0.953125 v -0.5625 h -0.25 v 0.5625 c 0,0.578125 -0.25,0.640625 -0.359375,0.640625 -0.328125,0 -0.375,-0.453125 -0.375,-0.5 v -1.984375 c 0,-0.421875 0,-0.8125 -0.359375,-1.1875 C 3.1875,-4.3125 2.6875,-4.46875 2.21875,-4.46875 c -0.828125,0 -1.515625,0.46875 -1.515625,1.125 0,0.296875 0.203125,0.46875 0.46875,0.46875 0.28125,0 0.453125,-0.203125 0.453125,-0.453125 0,-0.125 -0.046875,-0.453125 -0.515625,-0.453125 C 1.390625,-4.140625 1.875,-4.25 2.1875,-4.25 c 0.5,0 1.0625,0.390625 1.0625,1.28125 v 0.359375 c -0.515625,0.03125 -1.203125,0.0625 -1.828125,0.359375 -0.75,0.34375 -1,0.859375 -1,1.296875 0,0.8125 0.96875,1.0625 1.59375,1.0625 0.65625,0 1.109375,-0.40625 1.296875,-0.859375 z M 3.25,-2.390625 v 1 c 0,0.9375 -0.71875,1.28125 -1.171875,1.28125 -0.484375,0 -0.890625,-0.34375 -0.890625,-0.84375 0,-0.546875 0.421875,-1.375 2.0625,-1.4375 z m 0,0"
   transform="translate(293.157,146.72)"
   id="path8217" />
</g>
<g
   style="fill:#000000;fill-opacity:1;stroke-width:0.03638"
   id="g8223">
  <path
   inkscape:connector-curvature="0"
   style="stroke:none;stroke-width:0"
   d="m 6.171875,-3.34375 c 0.171875,-0.5 0.484375,-0.640625 0.84375,-0.640625 v -0.3125 C 6.78125,-4.28125 6.5,-4.265625 6.28125,-4.265625 c -0.296875,0 -0.734375,-0.015625 -0.921875,-0.03125 v 0.3125 c 0.359375,0 0.578125,0.1875 0.578125,0.46875 0,0.0625 0,0.09375 -0.0625,0.21875 L 4.96875,-0.75 3.984375,-3.53125 C 3.953125,-3.65625 3.9375,-3.671875 3.9375,-3.71875 c 0,-0.265625 0.390625,-0.265625 0.59375,-0.265625 v -0.3125 c -0.296875,0.015625 -0.796875,0.03125 -1.046875,0.03125 -0.296875,0 -0.578125,-0.015625 -0.875,-0.03125 v 0.3125 c 0.359375,0 0.515625,0.015625 0.625,0.140625 0.046875,0.0625 0.15625,0.359375 0.21875,0.546875 L 2.609375,-0.875 1.65625,-3.53125 C 1.609375,-3.65625 1.609375,-3.671875 1.609375,-3.71875 1.609375,-3.984375 2,-3.984375 2.1875,-3.984375 v -0.3125 c -0.296875,0.015625 -0.859375,0.03125 -1.078125,0.03125 -0.046875,0 -0.578125,-0.015625 -0.9375,-0.03125 v 0.3125 c 0.5,0 0.625,0.03125 0.75,0.34375 l 1.25,3.53125 C 2.21875,0.03125 2.25,0.109375 2.375,0.109375 c 0.140625,0 0.15625,-0.0625 0.203125,-0.203125 l 1.015625,-2.8125 1.015625,2.828125 c 0.03125,0.109375 0.0625,0.1875 0.203125,0.1875 0.125,0 0.15625,-0.09375 0.1875,-0.1875 z m 0,0"
   transform="translate(297.85935,146.72)"
   id="path8221" />
</g>
<g
   style="fill:#000000;fill-opacity:1;stroke-width:0.03638"
   id="g8231">
  <path
   inkscape:connector-curvature="0"
   style="stroke:none;stroke-width:0"
   d="m 3.3125,-0.75 c 0.046875,0.390625 0.3125,0.8125 0.78125,0.8125 0.21875,0 0.828125,-0.140625 0.828125,-0.953125 v -0.5625 h -0.25 v 0.5625 c 0,0.578125 -0.25,0.640625 -0.359375,0.640625 -0.328125,0 -0.375,-0.453125 -0.375,-0.5 v -1.984375 c 0,-0.421875 0,-0.8125 -0.359375,-1.1875 C 3.1875,-4.3125 2.6875,-4.46875 2.21875,-4.46875 c -0.828125,0 -1.515625,0.46875 -1.515625,1.125 0,0.296875 0.203125,0.46875 0.46875,0.46875 0.28125,0 0.453125,-0.203125 0.453125,-0.453125 0,-0.125 -0.046875,-0.453125 -0.515625,-0.453125 C 1.390625,-4.140625 1.875,-4.25 2.1875,-4.25 c 0.5,0 1.0625,0.390625 1.0625,1.28125 v 0.359375 c -0.515625,0.03125 -1.203125,0.0625 -1.828125,0.359375 -0.75,0.34375 -1,0.859375 -1,1.296875 0,0.8125 0.96875,1.0625 1.59375,1.0625 0.65625,0 1.109375,-0.40625 1.296875,-0.859375 z M 3.25,-2.390625 v 1 c 0,0.9375 -0.71875,1.28125 -1.171875,1.28125 -0.484375,0 -0.890625,-0.34375 -0.890625,-0.84375 0,-0.546875 0.421875,-1.375 2.0625,-1.4375 z m 0,0"
   transform="translate(304.77538,146.72)"
   id="path8225" />
<path
   inkscape:connector-curvature="0"
   style="stroke:none;stroke-width:0"
   d="M 1.671875,-3.3125 V -4.40625 L 0.28125,-4.296875 v 0.3125 c 0.703125,0 0.78125,0.0625 0.78125,0.5625 V -0.75 c 0,0.4375 -0.109375,0.4375 -0.78125,0.4375 V 0 c 0.390625,-0.015625 0.859375,-0.03125 1.140625,-0.03125 0.390625,0 0.859375,0 1.265625,0.03125 V -0.3125 H 2.46875 c -0.734375,0 -0.75,-0.109375 -0.75,-0.46875 V -2.3125 c 0,-0.984375 0.421875,-1.875 1.171875,-1.875 0.0625,0 0.09375,0 0.109375,0.015625 -0.03125,0 -0.234375,0.125 -0.234375,0.390625 0,0.265625 0.21875,0.421875 0.4375,0.421875 0.171875,0 0.421875,-0.125 0.421875,-0.4375 0,-0.3125 -0.3125,-0.609375 -0.734375,-0.609375 -0.734375,0 -1.09375,0.671875 -1.21875,1.09375 z m 0,0"
   transform="translate(309.75668,146.72)"
   id="path8227" />
<path
   inkscape:connector-curvature="0"
   style="stroke:none;stroke-width:0"
   d="M 1.109375,-2.515625 C 1.171875,-4 2.015625,-4.25 2.359375,-4.25 c 1.015625,0 1.125,1.34375 1.125,1.734375 z m 0,0.21875 h 2.78125 c 0.21875,0 0.25,0 0.25,-0.21875 0,-0.984375 -0.546875,-1.953125 -1.78125,-1.953125 -1.15625,0 -2.078125,1.03125 -2.078125,2.28125 0,1.328125 1.046875,2.296875 2.1875,2.296875 C 3.6875,0.109375 4.140625,-1 4.140625,-1.1875 4.140625,-1.28125 4.0625,-1.3125 4,-1.3125 c -0.078125,0 -0.109375,0.0625 -0.125,0.140625 -0.34375,1.03125 -1.25,1.03125 -1.34375,1.03125 -0.5,0 -0.890625,-0.296875 -1.125,-0.671875 -0.296875,-0.46875 -0.296875,-1.125 -0.296875,-1.484375 z m 0,0"
   transform="translate(313.65904,146.72)"
   id="path8229" />
</g>
</g>
</g><g
   id="g8618"
   ns1:jacobian_sqrt="63.506451"
   inkscapeversion="0.92.3"
   ns1:alignment="middle center"
   ns1:scale="180.0"
   ns1:preamble="/home/xmrazek7/.config/inkscape/extensions/default_packages.tex"
   ns1:text="\\centering\nGrid \\\\unaware"
   ns1:pdfconverter="pdf2svg"
   ns1:texconverter="pdflatex"
   ns1:version="0.8.1"
   transform="matrix(1745.6005,0,0,-1745.6005,-543394.57,620911.3)"
   style="stroke-width:0.03638086"><g
   id="surface1"
   style="stroke-width:0.03638086">
<g
   id="g8595"
   style="fill:#000000;fill-opacity:1;stroke-width:0.03638086">
  <path
   id="path8587"
   transform="translate(295.613,134.765)"
   d="m 5.90625,-0.625 c 0.140625,0.21875 0.53125,0.609375 0.640625,0.609375 0.09375,0 0.09375,-0.078125 0.09375,-0.21875 V -1.96875 c 0,-0.390625 0.03125,-0.4375 0.6875,-0.4375 v -0.3125 c -0.375,0 -0.921875,0.03125 -1.21875,0.03125 -0.390625,0 -1.25,0 -1.609375,-0.03125 v 0.3125 H 4.828125 C 5.71875,-2.40625 5.75,-2.296875 5.75,-1.9375 v 0.640625 c 0,1.125 -1.265625,1.203125 -1.546875,1.203125 -0.640625,0 -2.625,-0.34375 -2.625,-3.3125 0,-2.984375 1.96875,-3.3125 2.5625,-3.3125 1.078125,0 1.984375,0.890625 2.171875,2.359375 0.03125,0.140625 0.03125,0.171875 0.171875,0.171875 0.15625,0 0.15625,-0.03125 0.15625,-0.234375 V -6.78125 c 0,-0.171875 0,-0.25 -0.109375,-0.25 -0.046875,0 -0.078125,0 -0.15625,0.125 l -0.5,0.734375 C 5.546875,-6.484375 5.015625,-7.03125 4.03125,-7.03125 c -1.859375,0 -3.46875,1.578125 -3.46875,3.625 0,2.046875 1.59375,3.625 3.484375,3.625 0.734375,0 1.53125,-0.265625 1.859375,-0.84375 z m 0,0"
   style="stroke:none;stroke-width:0"
   inkscape:connector-curvature="0" />
<path
   id="path8589"
   transform="translate(303.43065,134.765)"
   d="M 1.671875,-3.3125 V -4.40625 L 0.28125,-4.296875 v 0.3125 c 0.703125,0 0.78125,0.0625 0.78125,0.5625 V -0.75 c 0,0.4375 -0.109375,0.4375 -0.78125,0.4375 V 0 c 0.390625,-0.015625 0.859375,-0.03125 1.140625,-0.03125 0.390625,0 0.859375,0 1.265625,0.03125 V -0.3125 H 2.46875 c -0.734375,0 -0.75,-0.109375 -0.75,-0.46875 V -2.3125 c 0,-0.984375 0.421875,-1.875 1.171875,-1.875 0.0625,0 0.09375,0 0.109375,0.015625 -0.03125,0 -0.234375,0.125 -0.234375,0.390625 0,0.265625 0.21875,0.421875 0.4375,0.421875 0.171875,0 0.421875,-0.125 0.421875,-0.4375 0,-0.3125 -0.3125,-0.609375 -0.734375,-0.609375 -0.734375,0 -1.09375,0.671875 -1.21875,1.09375 z m 0,0"
   style="stroke:none;stroke-width:0"
   inkscape:connector-curvature="0" />
<path
   id="path8591"
   transform="translate(307.333,134.765)"
   d="M 1.765625,-4.40625 0.375,-4.296875 v 0.3125 c 0.640625,0 0.734375,0.0625 0.734375,0.546875 V -0.75 c 0,0.4375 -0.109375,0.4375 -0.78125,0.4375 V 0 C 0.640625,-0.015625 1.1875,-0.03125 1.421875,-0.03125 1.78125,-0.03125 2.125,-0.015625 2.46875,0 v -0.3125 c -0.671875,0 -0.703125,-0.046875 -0.703125,-0.4375 z m 0.03125,-1.734375 c 0,-0.3125 -0.234375,-0.53125 -0.515625,-0.53125 -0.3125,0 -0.53125,0.265625 -0.53125,0.53125 0,0.265625 0.21875,0.53125 0.53125,0.53125 0.28125,0 0.515625,-0.21875 0.515625,-0.53125 z m 0,0"
   style="stroke:none;stroke-width:0"
   inkscape:connector-curvature="0" />
<path
   id="path8593"
   transform="translate(310.10061,134.765)"
   d="m 3.78125,-0.546875 v 0.65625 L 5.25,0 v -0.3125 c -0.6875,0 -0.78125,-0.0625 -0.78125,-0.5625 V -6.921875 L 3.046875,-6.8125 V -6.5 c 0.6875,0 0.765625,0.0625 0.765625,0.5625 v 2.15625 c -0.28125,-0.359375 -0.71875,-0.625 -1.25,-0.625 -1.171875,0 -2.21875,0.984375 -2.21875,2.265625 0,1.265625 0.96875,2.25 2.109375,2.25 0.640625,0 1.078125,-0.34375 1.328125,-0.65625 z m 0,-2.671875 v 2.046875 c 0,0.171875 0,0.1875 -0.109375,0.359375 C 3.375,-0.328125 2.9375,-0.109375 2.5,-0.109375 2.046875,-0.109375 1.6875,-0.375 1.453125,-0.75 1.203125,-1.15625 1.171875,-1.71875 1.171875,-2.140625 1.171875,-2.5 1.1875,-3.09375 1.46875,-3.546875 1.6875,-3.859375 2.0625,-4.1875 2.609375,-4.1875 c 0.34375,0 0.765625,0.15625 1.0625,0.59375 0.109375,0.171875 0.109375,0.1875 0.109375,0.375 z m 0,0"
   style="stroke:none;stroke-width:0"
   inkscape:connector-curvature="0" />
</g>
<g
   id="g8603"
   style="fill:#000000;fill-opacity:1;stroke-width:0.03638086">
  <path
   id="path8597"
   transform="translate(287.622,146.72)"
   d="M 3.890625,-0.78125 V 0.109375 L 5.328125,0 V -0.3125 C 4.640625,-0.3125 4.5625,-0.375 4.5625,-0.875 v -3.53125 l -1.46875,0.109375 v 0.3125 c 0.6875,0 0.78125,0.0625 0.78125,0.5625 v 1.765625 c 0,0.875 -0.484375,1.546875 -1.21875,1.546875 -0.828125,0 -0.875,-0.46875 -0.875,-0.984375 v -3.3125 L 0.3125,-4.296875 v 0.3125 c 0.78125,0 0.78125,0.03125 0.78125,0.90625 v 1.5 c 0,0.78125 0,1.6875 1.515625,1.6875 0.5625,0 1,-0.28125 1.28125,-0.890625 z m 0,0"
   style="stroke:none;stroke-width:0"
   inkscape:connector-curvature="0" />
<path
   id="path8599"
   transform="translate(293.15722,146.72)"
   d="M 1.09375,-3.421875 V -0.75 c 0,0.4375 -0.109375,0.4375 -0.78125,0.4375 V 0 c 0.359375,-0.015625 0.859375,-0.03125 1.140625,-0.03125 0.25,0 0.765625,0.015625 1.109375,0.03125 v -0.3125 c -0.671875,0 -0.78125,0 -0.78125,-0.4375 V -2.59375 C 1.78125,-3.625 2.5,-4.1875 3.125,-4.1875 c 0.640625,0 0.75,0.53125 0.75,1.109375 V -0.75 c 0,0.4375 -0.109375,0.4375 -0.78125,0.4375 V 0 c 0.34375,-0.015625 0.859375,-0.03125 1.125,-0.03125 0.25,0 0.78125,0.015625 1.109375,0.03125 v -0.3125 c -0.515625,0 -0.765625,0 -0.765625,-0.296875 v -1.90625 c 0,-0.859375 0,-1.15625 -0.3125,-1.515625 -0.140625,-0.171875 -0.46875,-0.375 -1.046875,-0.375 C 2.46875,-4.40625 2,-3.984375 1.71875,-3.359375 V -4.40625 L 0.3125,-4.296875 v 0.3125 c 0.703125,0 0.78125,0.0625 0.78125,0.5625 z m 0,0"
   style="stroke:none;stroke-width:0"
   inkscape:connector-curvature="0" />
<path
   id="path8601"
   transform="translate(298.69244,146.72)"
   d="m 3.3125,-0.75 c 0.046875,0.390625 0.3125,0.8125 0.78125,0.8125 0.21875,0 0.828125,-0.140625 0.828125,-0.953125 v -0.5625 h -0.25 v 0.5625 c 0,0.578125 -0.25,0.640625 -0.359375,0.640625 -0.328125,0 -0.375,-0.453125 -0.375,-0.5 v -1.984375 c 0,-0.421875 0,-0.8125 -0.359375,-1.1875 C 3.1875,-4.3125 2.6875,-4.46875 2.21875,-4.46875 c -0.828125,0 -1.515625,0.46875 -1.515625,1.125 0,0.296875 0.203125,0.46875 0.46875,0.46875 0.28125,0 0.453125,-0.203125 0.453125,-0.453125 0,-0.125 -0.046875,-0.453125 -0.515625,-0.453125 C 1.390625,-4.140625 1.875,-4.25 2.1875,-4.25 c 0.5,0 1.0625,0.390625 1.0625,1.28125 v 0.359375 c -0.515625,0.03125 -1.203125,0.0625 -1.828125,0.359375 -0.75,0.34375 -1,0.859375 -1,1.296875 0,0.8125 0.96875,1.0625 1.59375,1.0625 0.65625,0 1.109375,-0.40625 1.296875,-0.859375 z M 3.25,-2.390625 v 1 c 0,0.9375 -0.71875,1.28125 -1.171875,1.28125 -0.484375,0 -0.890625,-0.34375 -0.890625,-0.84375 0,-0.546875 0.421875,-1.375 2.0625,-1.4375 z m 0,0"
   style="stroke:none;stroke-width:0"
   inkscape:connector-curvature="0" />
</g>
<g
   id="g8607"
   style="fill:#000000;fill-opacity:1;stroke-width:0.03638086">
  <path
   id="path8605"
   transform="translate(303.39479,146.72)"
   d="m 6.171875,-3.34375 c 0.171875,-0.5 0.484375,-0.640625 0.84375,-0.640625 v -0.3125 C 6.78125,-4.28125 6.5,-4.265625 6.28125,-4.265625 c -0.296875,0 -0.734375,-0.015625 -0.921875,-0.03125 v 0.3125 c 0.359375,0 0.578125,0.1875 0.578125,0.46875 0,0.0625 0,0.09375 -0.0625,0.21875 L 4.96875,-0.75 3.984375,-3.53125 C 3.953125,-3.65625 3.9375,-3.671875 3.9375,-3.71875 c 0,-0.265625 0.390625,-0.265625 0.59375,-0.265625 v -0.3125 c -0.296875,0.015625 -0.796875,0.03125 -1.046875,0.03125 -0.296875,0 -0.578125,-0.015625 -0.875,-0.03125 v 0.3125 c 0.359375,0 0.515625,0.015625 0.625,0.140625 0.046875,0.0625 0.15625,0.359375 0.21875,0.546875 L 2.609375,-0.875 1.65625,-3.53125 C 1.609375,-3.65625 1.609375,-3.671875 1.609375,-3.71875 1.609375,-3.984375 2,-3.984375 2.1875,-3.984375 v -0.3125 c -0.296875,0.015625 -0.859375,0.03125 -1.078125,0.03125 -0.046875,0 -0.578125,-0.015625 -0.9375,-0.03125 v 0.3125 c 0.5,0 0.625,0.03125 0.75,0.34375 l 1.25,3.53125 C 2.21875,0.03125 2.25,0.109375 2.375,0.109375 c 0.140625,0 0.15625,-0.0625 0.203125,-0.203125 l 1.015625,-2.8125 1.015625,2.828125 c 0.03125,0.109375 0.0625,0.1875 0.203125,0.1875 0.125,0 0.15625,-0.09375 0.1875,-0.1875 z m 0,0"
   style="stroke:none;stroke-width:0"
   inkscape:connector-curvature="0" />
</g>
<g
   id="g8615"
   style="fill:#000000;fill-opacity:1;stroke-width:0.03638086">
  <path
   id="path8609"
   transform="translate(310.31083,146.72)"
   d="m 3.3125,-0.75 c 0.046875,0.390625 0.3125,0.8125 0.78125,0.8125 0.21875,0 0.828125,-0.140625 0.828125,-0.953125 v -0.5625 h -0.25 v 0.5625 c 0,0.578125 -0.25,0.640625 -0.359375,0.640625 -0.328125,0 -0.375,-0.453125 -0.375,-0.5 v -1.984375 c 0,-0.421875 0,-0.8125 -0.359375,-1.1875 C 3.1875,-4.3125 2.6875,-4.46875 2.21875,-4.46875 c -0.828125,0 -1.515625,0.46875 -1.515625,1.125 0,0.296875 0.203125,0.46875 0.46875,0.46875 0.28125,0 0.453125,-0.203125 0.453125,-0.453125 0,-0.125 -0.046875,-0.453125 -0.515625,-0.453125 C 1.390625,-4.140625 1.875,-4.25 2.1875,-4.25 c 0.5,0 1.0625,0.390625 1.0625,1.28125 v 0.359375 c -0.515625,0.03125 -1.203125,0.0625 -1.828125,0.359375 -0.75,0.34375 -1,0.859375 -1,1.296875 0,0.8125 0.96875,1.0625 1.59375,1.0625 0.65625,0 1.109375,-0.40625 1.296875,-0.859375 z M 3.25,-2.390625 v 1 c 0,0.9375 -0.71875,1.28125 -1.171875,1.28125 -0.484375,0 -0.890625,-0.34375 -0.890625,-0.84375 0,-0.546875 0.421875,-1.375 2.0625,-1.4375 z m 0,0"
   style="stroke:none;stroke-width:0"
   inkscape:connector-curvature="0" />
<path
   id="path8611"
   transform="translate(315.29212,146.72)"
   d="M 1.671875,-3.3125 V -4.40625 L 0.28125,-4.296875 v 0.3125 c 0.703125,0 0.78125,0.0625 0.78125,0.5625 V -0.75 c 0,0.4375 -0.109375,0.4375 -0.78125,0.4375 V 0 c 0.390625,-0.015625 0.859375,-0.03125 1.140625,-0.03125 0.390625,0 0.859375,0 1.265625,0.03125 V -0.3125 H 2.46875 c -0.734375,0 -0.75,-0.109375 -0.75,-0.46875 V -2.3125 c 0,-0.984375 0.421875,-1.875 1.171875,-1.875 0.0625,0 0.09375,0 0.109375,0.015625 -0.03125,0 -0.234375,0.125 -0.234375,0.390625 0,0.265625 0.21875,0.421875 0.4375,0.421875 0.171875,0 0.421875,-0.125 0.421875,-0.4375 0,-0.3125 -0.3125,-0.609375 -0.734375,-0.609375 -0.734375,0 -1.09375,0.671875 -1.21875,1.09375 z m 0,0"
   style="stroke:none;stroke-width:0"
   inkscape:connector-curvature="0" />
<path
   id="path8613"
   transform="translate(319.19448,146.72)"
   d="M 1.109375,-2.515625 C 1.171875,-4 2.015625,-4.25 2.359375,-4.25 c 1.015625,0 1.125,1.34375 1.125,1.734375 z m 0,0.21875 h 2.78125 c 0.21875,0 0.25,0 0.25,-0.21875 0,-0.984375 -0.546875,-1.953125 -1.78125,-1.953125 -1.15625,0 -2.078125,1.03125 -2.078125,2.28125 0,1.328125 1.046875,2.296875 2.1875,2.296875 C 3.6875,0.109375 4.140625,-1 4.140625,-1.1875 4.140625,-1.28125 4.0625,-1.3125 4,-1.3125 c -0.078125,0 -0.109375,0.0625 -0.125,0.140625 -0.34375,1.03125 -1.25,1.03125 -1.34375,1.03125 -0.5,0 -0.890625,-0.296875 -1.125,-0.671875 -0.296875,-0.46875 -0.296875,-1.125 -0.296875,-1.484375 z m 0,0"
   style="stroke:none;stroke-width:0"
   inkscape:connector-curvature="0" />
</g>
</g>
</g></g></svg>